<svg width="1021" height="388" viewBox="0 0 1021 388" fill="none" xmlns="http://www.w3.org/2000/svg">
<rect width="1020.61" height="388" rx="10" fill="#464353"/>
<g filter="url(#filter0_d)">
<path d="M482.702 250.174H468.394V200.282H413.98V250.174H399.746V142.235H413.98V188.643H468.394V142.235H482.702V250.174ZM555.353 250.174C554.562 248.592 553.92 245.775 553.425 241.723C547.05 248.345 539.439 251.657 530.592 251.657C522.685 251.657 516.186 249.433 511.095 244.985C506.054 240.487 503.533 234.804 503.533 227.934C503.533 219.581 506.696 213.107 513.023 208.511C519.398 203.865 528.344 201.542 539.859 201.542H553.203V195.241C553.203 190.447 551.77 186.641 548.903 183.824C546.037 180.958 541.811 179.524 536.226 179.524C531.334 179.524 527.232 180.76 523.92 183.231C520.609 185.702 518.953 188.692 518.953 192.201H505.164C505.164 188.198 506.573 184.343 509.39 180.636C512.256 176.88 516.111 173.915 520.955 171.74C525.848 169.566 531.21 168.478 537.042 168.478C546.284 168.478 553.524 170.801 558.763 175.447C564.002 180.043 566.72 186.394 566.918 194.499V231.418C566.918 238.782 567.857 244.639 569.735 248.988V250.174H555.353ZM532.594 239.721C536.894 239.721 540.971 238.609 544.826 236.385C548.681 234.161 551.473 231.27 553.203 227.711V211.254H542.454C525.65 211.254 517.248 216.171 517.248 226.006C517.248 230.306 518.681 233.667 521.548 236.089C524.414 238.51 528.096 239.721 532.594 239.721ZM656.323 210.957C656.323 223.214 653.506 233.074 647.872 240.537C642.238 247.95 634.676 251.657 625.187 251.657C615.055 251.657 607.222 248.073 601.687 240.907L601.019 250.174H588.417V136.304H602.131V178.783C607.667 171.913 615.303 168.478 625.039 168.478C634.775 168.478 642.411 172.16 647.946 179.524C653.531 186.888 656.323 196.971 656.323 209.771V210.957ZM642.608 209.4C642.608 200.059 640.805 192.844 637.197 187.753C633.589 182.663 628.399 180.117 621.629 180.117C612.584 180.117 606.085 184.318 602.131 192.72V227.415C606.332 235.817 612.881 240.018 621.777 240.018C628.35 240.018 633.465 237.472 637.123 232.382C640.78 227.291 642.608 219.631 642.608 209.4ZM688.571 250.174H674.857V169.961H688.571V250.174ZM673.745 148.685C673.745 146.461 674.412 144.583 675.746 143.051C677.13 141.518 679.156 140.752 681.825 140.752C684.494 140.752 686.52 141.518 687.904 143.051C689.288 144.583 689.98 146.461 689.98 148.685C689.98 150.909 689.288 152.762 687.904 154.245C686.52 155.727 684.494 156.469 681.825 156.469C679.156 156.469 677.13 155.727 675.746 154.245C674.412 152.762 673.745 150.909 673.745 148.685ZM729.197 150.538V169.961H744.172V180.562H729.197V230.306C729.197 233.519 729.864 235.94 731.198 237.571C732.533 239.153 734.806 239.943 738.019 239.943C739.6 239.943 741.775 239.647 744.542 239.054V250.174C740.935 251.162 737.426 251.657 734.015 251.657C727.887 251.657 723.266 249.803 720.152 246.097C717.039 242.39 715.482 237.126 715.482 230.306V180.562H700.878V169.961H715.482V150.538H729.197ZM809.78 242.242C804.443 248.518 796.609 251.657 786.28 251.657C777.73 251.657 771.206 249.185 766.709 244.243C762.26 239.252 760.012 231.888 759.962 222.151V169.961H773.677V221.781C773.677 233.939 778.619 240.018 788.504 240.018C798.981 240.018 805.95 236.113 809.41 228.304V169.961H823.124V250.174H810.077L809.78 242.242ZM877.316 251.657C866.443 251.657 857.597 248.098 850.776 240.981C843.956 233.815 840.546 224.252 840.546 212.292V209.771C840.546 201.814 842.053 194.722 845.068 188.495C848.132 182.218 852.383 177.325 857.819 173.816C863.305 170.258 869.236 168.478 875.611 168.478C886.039 168.478 894.145 171.913 899.927 178.783C905.709 185.653 908.601 195.488 908.601 208.288V213.997H854.261C854.458 221.904 856.756 228.304 861.155 233.197C865.603 238.041 871.237 240.462 878.058 240.462C882.901 240.462 887.003 239.474 890.364 237.497C893.724 235.52 896.665 232.901 899.186 229.639L907.563 236.163C900.841 246.492 890.759 251.657 877.316 251.657ZM875.611 179.747C870.076 179.747 865.43 181.773 861.674 185.826C857.918 189.829 855.595 195.463 854.705 202.728H894.886V201.69C894.491 194.722 892.612 189.335 889.252 185.529C885.891 181.674 881.344 179.747 875.611 179.747Z" fill="white"/>
</g>
<path d="M92 193.521C92 227.077 105.33 259.259 129.057 282.986C152.785 306.714 184.966 320.043 218.522 320.043C252.077 320.043 284.259 306.714 307.986 282.986C331.714 259.259 345.043 227.077 345.043 193.521C345.043 189.511 344.851 185.566 344.486 181.663C341.437 149.278 326.033 119.312 301.471 97.9859C276.909 76.6601 245.078 65.6134 212.586 67.1394C180.094 68.6655 149.438 82.6472 126.983 106.181C104.528 129.715 92.0002 160.994 92 193.521Z" fill="#6ADB7E"/>
<path d="M255.939 202.041C252.893 197.955 248.886 194.718 244.289 192.631C238.62 190.192 232.764 188.23 226.782 186.763V151.86C235.978 153.275 244.602 157.287 251.679 163.443L258.623 148.339C254.63 144.709 250.045 141.818 245.077 139.798C239.57 137.523 233.789 136.01 227.889 135.299V117.609H211.809V135.473C205.6 136.185 199.61 138.237 194.238 141.493C189.385 144.424 185.3 148.51 182.332 153.403C179.499 158.177 178.031 163.665 178.094 169.246C177.817 175.294 179.534 181.262 182.971 186.198C186.135 190.471 190.312 193.852 195.111 196.021C200.871 198.531 206.827 200.545 212.917 202.041V235.488C202.065 234.653 191.725 230.443 183.291 223.426L176.348 238.552C181.064 242.531 186.427 245.635 192.194 247.724C198.512 250.031 205.114 251.435 211.81 251.896V269.435H227.889V251.57C236.821 250.574 245.197 246.656 251.765 240.4C254.657 237.569 256.942 234.157 258.475 230.378C260.007 226.6 260.754 222.538 260.668 218.449C260.935 212.594 259.27 206.817 255.939 202.041ZM212.917 183.068C209 181.856 205.358 179.862 202.203 177.2C200.953 176.066 199.965 174.662 199.31 173.092C198.655 171.521 198.348 169.822 198.413 168.116C198.296 164.245 199.69 160.485 202.289 157.662C205.169 154.701 208.885 152.733 212.917 152.034V183.068ZM236.878 229.316C234.16 232.159 230.622 234.04 226.782 234.684V205.909C230.453 206.915 233.887 208.667 236.878 211.06C238.011 212.048 238.912 213.284 239.513 214.676C240.114 216.069 240.4 217.581 240.349 219.101C240.497 222.831 239.257 226.48 236.878 229.316Z" fill="white"/>
<defs>
<filter id="filter0_d" x="366.007" y="136.304" width="576.333" height="182.831" filterUnits="userSpaceOnUse" color-interpolation-filters="sRGB">
<feFlood flood-opacity="0" result="BackgroundImageFix"/>
<feColorMatrix in="SourceAlpha" type="matrix" values="0 0 0 0 0 0 0 0 0 0 0 0 0 0 0 0 0 0 127 0"/>
<feOffset dy="33.7391"/>
<feGaussianBlur stdDeviation="16.8696"/>
<feColorMatrix type="matrix" values="0 0 0 0 0 0 0 0 0 0 0 0 0 0 0 0 0 0 0.25 0"/>
<feBlend mode="normal" in2="BackgroundImageFix" result="effect1_dropShadow"/>
<feBlend mode="normal" in="SourceGraphic" in2="effect1_dropShadow" result="shape"/>
</filter>
</defs>
</svg>
