<svg width="873" height="573" viewBox="0 0 873 573" fill="none" xmlns="http://www.w3.org/2000/svg">
<g clip-path="url(#clip0)">
<path d="M873 566.523H0V573H873V566.523Z" fill="#85848B"/>
<path d="M691.643 452.167C691.643 457.149 663.038 471.672 629.061 471.672C595.084 471.672 568.609 457.149 568.609 452.167C568.609 447.185 596.148 448.789 630.159 448.789C664.17 448.789 691.643 447.176 691.643 452.167Z" fill="#504F60"/>
<path opacity="0.2" d="M691.643 452.167C691.643 457.149 663.038 471.672 629.061 471.672C595.084 471.672 568.609 457.149 568.609 452.167" fill="black"/>
<path d="M349.464 360.752C354.979 361.47 360.702 361.926 365.983 360.186C366.815 359.925 367.73 359.342 367.647 358.498C367.587 358.191 367.459 357.902 367.273 357.653C365.282 354.622 363.609 351.387 362.282 348.002C362.229 347.825 362.121 347.671 361.974 347.563C361.802 347.499 361.614 347.499 361.442 347.563C359.005 348.213 356.9 349.809 354.48 350.493C353.246 350.836 351.958 350.934 350.687 350.78C349.589 350.653 348.092 349.733 347.094 349.851C347.66 353.541 349.04 356.986 349.464 360.752Z" fill="#6ADB7E"/>
<path d="M453.759 351.405C457.394 348.872 461.162 346.212 463.308 342.302C463.461 342.068 463.55 341.797 463.566 341.517C463.529 341.241 463.423 340.979 463.258 340.757C461.214 337.458 458.582 334.574 455.498 332.254C453.888 333.408 452.434 334.77 451.173 336.307C450.258 337.286 447.729 338.84 447.704 340.335C447.704 341.179 448.669 342.159 449.118 342.868C449.725 343.78 450.299 344.709 450.848 345.654C451.164 346.119 454.05 351.219 453.759 351.405Z" fill="#6ADB7E"/>
<path d="M371.082 372.059C371.147 372.928 370.911 373.794 370.416 374.507C370.028 374.904 369.547 375.194 369.019 375.352C361.309 378.155 352.384 374.659 344.69 377.421C343.11 377.986 341.612 378.805 340.024 379.346C338.13 379.924 336.176 380.275 334.201 380.393C331.482 380.655 328.745 380.823 326.017 380.899C323.944 381.048 321.861 380.863 319.845 380.351C318.837 380.089 317.895 379.614 317.079 378.958C316.264 378.302 315.594 377.479 315.113 376.542C314.694 375.703 314.611 374.732 314.88 373.832C315 373.523 315.172 373.238 315.387 372.987C315.908 372.394 316.521 371.889 317.2 371.493L320.037 369.635C321.367 368.68 322.812 367.903 324.337 367.322C325.46 366.95 326.649 366.79 327.789 366.477C331.773 365.295 334.817 362.086 337.645 359.004L341.504 354.824C341.865 354.365 342.323 353.992 342.843 353.735C343.379 353.554 343.948 353.499 344.507 353.575C348.256 353.846 351.876 355.078 355.029 357.155C355.835 357.769 356.705 358.29 357.624 358.709C359.886 359.604 362.789 358.928 364.877 357.797C365.867 357.256 365.65 356.952 366.066 355.99C366.482 355.027 367.497 354.411 368.378 355.289C368.645 355.593 368.833 355.958 368.927 356.353C369.759 359.139 369.443 362.137 369.443 365.059C369.419 365.515 369.475 365.973 369.61 366.41C369.822 366.85 370.075 367.268 370.366 367.659C370.426 367.763 370.478 367.87 370.524 367.98C371.033 369.274 371.224 370.673 371.082 372.059Z" fill="#514E7F"/>
<path d="M371.082 372.059C371.147 372.928 370.911 373.794 370.416 374.507C370.028 374.904 369.547 375.194 369.019 375.352C361.309 378.155 352.384 374.659 344.69 377.421C343.11 377.986 341.612 378.805 340.024 379.346C338.13 379.924 336.176 380.275 334.201 380.393C331.482 380.655 328.745 380.823 326.017 380.899C323.944 381.048 321.861 380.863 319.845 380.351C318.837 380.089 317.895 379.614 317.079 378.958C316.264 378.302 315.594 377.479 315.113 376.542C314.694 375.703 314.611 374.732 314.88 373.832C315 373.523 315.172 373.238 315.387 372.987C315.836 373.942 316.161 375.208 316.443 375.664C316.825 376.34 317.345 376.925 317.967 377.381C318.59 377.837 319.301 378.152 320.053 378.307C321.179 378.377 322.308 378.231 323.38 377.876C330.367 376.12 337.795 376.095 344.507 373.435C346.811 372.515 349.007 371.29 351.427 370.733C353.848 370.176 356.418 370.328 358.913 370.116C362.856 369.796 366.673 368.588 370.558 367.955C371.059 369.259 371.239 370.668 371.082 372.059Z" fill="#464353"/>
<path d="M471.417 350.89C471.051 353.862 469.197 356.42 467.159 358.591C465.121 360.761 462.817 362.711 461.195 365.211C459.199 368.31 458.301 372.152 455.705 374.769C454.709 375.721 453.59 376.531 452.378 377.176C451.021 377.989 449.586 378.659 448.095 379.177C444.219 380.435 440.043 380.148 435.993 379.844C434.678 379.831 433.376 379.577 432.15 379.092C431.592 378.805 431.058 378.471 430.553 378.096C429.538 377.461 428.683 376.594 428.058 375.563C427.751 375.002 427.664 374.345 427.817 373.722C428.048 373.036 428.446 372.421 428.973 371.932C429.884 370.97 430.863 370.075 431.9 369.255C433.324 368.322 434.608 367.185 435.71 365.878C436.386 364.845 436.884 363.703 437.182 362.5C437.771 360.393 438.131 358.227 438.255 356.04C438.251 354.588 438.398 353.138 438.696 351.717C439.311 349.488 440.942 347.495 440.759 345.19C440.685 344.86 440.714 344.514 440.842 344.202C441.035 343.958 441.305 343.788 441.607 343.721C442.878 343.206 444.219 342.89 445.583 342.783C446.267 342.735 446.954 342.842 447.592 343.096C448.231 343.351 448.806 343.745 449.276 344.253C449.842 344.945 450.216 345.941 451.048 346.212C451.46 346.326 451.892 346.343 452.312 346.262C454.358 346.051 456.521 345.789 458.134 344.447C458.88 343.768 459.479 342.939 459.894 342.014C460.31 341.088 460.532 340.085 460.546 339.068C460.546 338.3 460.205 337.497 461.378 337.379C462.26 337.261 462.958 338.224 463.408 338.815C465.029 341.019 466.693 343.324 467.3 346.009C467.536 345.916 467.787 345.867 468.04 345.865C468.559 345.861 469.071 345.984 469.533 346.223C469.995 346.463 470.394 346.812 470.694 347.242C471.356 348.331 471.613 349.625 471.417 350.89Z" fill="#514E7F"/>
<path d="M471.417 350.89C471.051 353.862 469.197 356.42 467.159 358.591C465.121 360.761 462.817 362.711 461.195 365.211C459.199 368.31 458.3 372.152 455.705 374.769C454.709 375.721 453.59 376.531 452.378 377.176C451.021 377.989 449.586 378.659 448.095 379.177C444.219 380.435 440.043 380.148 435.993 379.844C434.678 379.831 433.376 379.577 432.15 379.092C431.592 378.805 431.058 378.471 430.553 378.096C429.538 377.461 428.683 376.594 428.058 375.563C428.837 375.182 429.688 374.975 430.553 374.955C432.35 375.056 433.664 376.779 435.385 377.311C437.839 378.062 440.285 376.306 442.771 375.706C444.393 375.318 446.099 375.419 447.704 374.862C449.042 374.337 450.278 373.577 451.355 372.616C452.832 371.544 454.146 370.258 455.256 368.799C456.178 367.34 456.945 365.786 457.544 364.164C458.857 361.053 460.403 358.05 462.168 355.179C462.429 354.725 462.745 354.305 463.108 353.929C463.499 353.566 463.94 353.313 464.381 352.992C466.044 351.717 466.735 349.615 467.317 347.554C467.474 346.928 467.695 346.32 467.974 345.739C468.493 345.734 469.005 345.857 469.467 346.097C469.929 346.336 470.327 346.686 470.627 347.115C471.343 348.23 471.624 349.576 471.417 350.89Z" fill="#464353"/>
<path d="M297.006 87.6232C299.076 89.1981 300.78 91.216 301.996 93.534C303.161 95.8476 309.873 113.799 309.482 116.409C311.669 114.171 320.295 113.808 322.507 111.57C323.431 110.633 328.413 105.955 329.161 104.866C329.91 103.776 335.466 101.488 336.073 100.34C338.344 96.2107 319.97 80.564 322.324 76.4856C322.455 76.2982 322.522 76.0731 322.516 75.8438C322.462 75.6513 322.355 75.4784 322.208 75.3456C320.702 73.7835 318.706 72.8124 316.893 71.6556C315.08 70.4988 313.333 68.886 312.842 66.7581C311.113 67.5661 309.526 68.6557 308.143 69.9837C304.771 72.9166 301.458 75.9086 298.203 78.9596C296.931 80.1587 294.469 81.7546 293.878 83.4687C293.179 85.3095 295.791 86.6183 297.006 87.6232Z" fill="#A1616A"/>
<path d="M326.749 80.9778C323.93 82.9009 321.296 85.0891 318.881 87.5134C316.602 89.8017 314.439 92.4531 313.89 95.6534C313.657 96.9115 313.69 98.1866 313.499 99.4616C312.667 104.992 307.96 109.046 305.88 114.222C305.278 115.819 304.835 117.474 304.558 119.161C303.973 122.36 303.653 125.602 303.601 128.855C303.551 132.005 306.596 134.175 307.71 137.113C308.825 140.052 309.124 143.075 309.69 146.089C310.754 151.78 312.709 157.269 314.68 162.724C318.781 174.225 332.072 206.016 336.173 217.525C348.741 214.325 382.194 206.97 393.323 200.224C397.033 197.978 367.58 172.637 371.548 170.889C371.775 170.853 371.99 170.765 372.177 170.63C372.364 170.495 372.518 170.317 372.626 170.112C372.734 169.906 372.794 169.678 372.8 169.445C372.806 169.212 372.759 168.981 372.662 168.77C368.695 151.156 356.285 136.683 350.654 119.533C348.699 113.58 345.189 108.497 342.528 102.839C340.116 97.7137 338.826 92.0478 335.94 87.1756C335.396 86.1718 334.684 85.2718 333.836 84.5158C333.116 83.9554 332.338 83.4769 331.515 83.0887C329.868 82.2781 328.338 81.7968 326.749 80.9778Z" fill="#514E7F"/>
<path d="M297.671 85.622C308.535 85.622 317.342 76.6811 317.342 65.652C317.342 54.6228 308.535 45.6819 297.671 45.6819C286.807 45.6819 278 54.6228 278 65.652C278 76.6811 286.807 85.622 297.671 85.622Z" fill="#A1616A"/>
<path d="M317.683 75.0332C318.663 74.1152 319.895 73.5205 321.215 73.3276C322.535 73.1346 323.882 73.3525 325.077 73.9524C326.408 74.6532 327.572 76.0718 327.273 77.5579L337.03 77.7099C338.583 77.6668 340.135 77.8114 341.654 78.1406C343.183 78.4785 344.548 79.3475 345.514 80.5978C345.63 80.7582 345.763 80.9524 345.963 80.9778C346.125 80.9803 346.284 80.9267 346.412 80.8258C347.913 80.0616 349.604 79.7677 351.269 79.9814C356.543 80.3276 361.417 83.0043 365.551 86.3481C366.296 86.8684 366.875 87.5995 367.214 88.4507C367.555 89.5737 367.148 90.9839 368.046 91.786C368.046 101.074 371.19 109.755 373.286 118.807C373.66 120.42 375.182 121.847 376.239 123.113C377.544 124.517 378.609 126.133 379.391 127.893C381.171 132.587 378.717 138.11 380.448 142.821C381.179 144.814 382.593 146.452 383.775 148.183C385.332 150.182 386.316 152.578 386.619 155.107C386.694 156.239 386.553 157.379 386.619 158.485C386.731 160.006 387.01 161.51 387.451 162.969C388.161 165.693 388.904 168.415 389.68 171.134C390.944 175.525 392.591 180.262 396.467 182.601C387.11 184.214 377.245 185.793 368.329 182.491C367.085 182.061 365.904 181.461 364.819 180.71C361.6 178.379 360.044 174.393 358.655 170.627C357.108 166.405 355.536 162.108 355.22 157.615C355.223 156.187 355.024 154.765 354.63 153.393C353.723 150.945 351.303 149.467 349.107 148.107C346.627 146.728 344.381 144.955 342.453 142.855C341.496 141.798 340.763 140.552 340.3 139.196C339.836 137.839 339.652 136.4 339.758 134.969C339.924 133.575 340.465 132.233 340.515 130.831C340.565 129.429 339.949 127.825 338.627 127.453C331.814 125.359 328.562 117.169 327.048 110.109C326.395 106.461 326.103 102.755 326.175 99.0479L326.084 91.8452C325.144 90.9769 324.387 89.9235 323.861 88.7491C323.335 87.5747 323.05 86.3039 323.023 85.014C323.113 84.2614 323.099 83.4996 322.981 82.751C322.652 81.8359 322.117 81.0117 321.417 80.3445C319.913 78.7774 318.654 76.9864 317.683 75.0332Z" fill="#464353"/>
<path d="M296.731 97.8657C296.506 100.095 297.006 102.383 296.515 104.57C296.323 105.415 295.991 106.259 295.75 107.044C295.012 110.192 295.331 113.5 296.656 116.442C297.979 119.356 299.564 122.14 301.389 124.76C302.006 125.654 302.515 126.621 302.903 127.639C303.217 128.709 303.413 129.81 303.485 130.924C303.967 135.395 304.739 139.83 305.797 144.198C306.729 147.981 317.309 180.321 319.771 183.319C320.217 183.982 320.895 184.45 321.667 184.628C322.224 184.649 322.778 184.533 323.281 184.29L328.271 182.348C328.696 182.216 329.089 181.998 329.427 181.706C329.895 181.151 330.149 180.443 330.143 179.713C330.5 175.593 319.896 143.024 318.548 139.131C314.472 127.377 309.049 116.046 306.396 103.878C305.656 100.5 305.265 95.2988 302.828 92.6051C301.821 91.4905 302.162 91.9634 300.956 92.546C300.347 92.8145 299.758 93.1278 299.193 93.4833C298.487 93.9815 297.9 94.6336 297.474 95.3918C297.048 96.15 296.794 96.9952 296.731 97.8657Z" fill="#464353"/>
<path d="M311.877 120.166C313.216 127.352 314.597 134.521 315.969 141.707L335.499 136.514C335.657 134.437 334.567 132.511 333.835 130.603C332.055 126.069 332.014 121.019 330.575 116.358C329.485 112.812 327.589 109.552 326.566 105.98C325.975 103.903 325.676 101.758 325.094 99.6559C324.469 97.5911 323.702 95.5736 322.798 93.6184C321.702 90.7828 320.272 88.0922 318.539 85.6051C316.044 86.5508 313.382 87.6485 311.96 89.9368C311.231 91.2262 310.814 92.6735 310.746 94.1588C310.405 98.6088 311.993 103.084 311.469 107.509C310.93 111.723 311.067 115.997 311.877 120.166Z" fill="#6ADB7E"/>
<path d="M335.823 215.752C336.921 219.974 335.333 224.416 334.035 228.595C332.082 234.891 330.75 241.369 330.059 247.932C329.975 249.602 329.644 251.25 329.078 252.821C328.462 254.231 327.414 255.422 326.699 256.765C324.736 260.294 324.786 264.601 325.21 268.637C325.493 271.297 325.917 273.948 326.441 276.566C327.082 279.766 327.872 283.11 326.949 286.234C328.496 285.888 329.544 287.923 329.444 289.519C329.344 291.115 328.837 292.896 329.594 294.273C331.507 294.982 331.523 297.65 331.465 299.719C331.497 303.306 331.943 306.877 332.796 310.358C335.69 324.488 338.762 338.578 342.012 352.629C349.04 354.841 357.25 357.147 363.954 354.081C365.201 353.516 366.449 352.612 366.732 351.244C366.805 350.507 366.714 349.762 366.466 349.066L363.288 337.329C362.515 334.491 361.741 331.561 362.149 328.648C362.456 326.478 363.388 324.139 362.34 322.222C361.982 321.564 361.417 321.049 361.001 320.424C359.337 317.95 360.211 314.64 360.344 311.642C360.396 310.969 360.351 310.292 360.211 309.632C359.983 308.862 359.665 308.122 359.263 307.428C356.637 302.253 355.376 296.476 355.603 290.659C355.702 289.916 355.602 289.161 355.312 288.472C355.11 288.187 354.929 287.888 354.771 287.577C354.647 287.034 354.709 286.466 354.946 285.964C353.992 285.23 353.132 284.379 352.384 283.431C352.845 283.139 353.235 282.746 353.525 282.279C353.814 281.812 353.996 281.285 354.055 280.737C354.114 280.189 354.05 279.634 353.867 279.115C353.684 278.596 353.387 278.125 352.999 277.739C353.339 277.67 353.652 277.507 353.905 277.267C354.159 277.028 354.342 276.722 354.434 276.383C354.526 276.045 354.524 275.687 354.428 275.349C354.332 275.012 354.145 274.708 353.889 274.472C353.482 274.184 352.941 274.058 352.65 273.627C352.201 273.002 352.567 272.133 352.933 271.465L354.871 267.911C356.318 265.268 356.642 262 358.198 259.467C360.427 255.777 361.883 251.664 363.322 247.594L368.919 231.914L372.687 235.232C373.942 236.206 374.994 237.423 375.781 238.813C376.317 240.186 376.656 241.631 376.788 243.102C378.168 251.614 383.442 258.994 385.396 267.379C385.829 269.245 386.12 271.204 387.176 272.8C387.554 273.29 387.894 273.809 388.191 274.353C388.466 275.183 388.61 276.053 388.615 276.929C388.79 278.644 389.326 280.301 390.187 281.787C391.048 283.273 392.214 284.554 393.606 285.542C395.461 286.834 397.765 287.72 398.771 289.764C398.972 290.396 399.252 291.001 399.603 291.562C400.501 292.66 402.439 292.787 402.822 294.163C403.038 294.931 402.639 295.852 403.063 296.527C403.304 296.84 403.623 297.082 403.986 297.228L409.401 299.972C415.456 303.046 418.55 310.105 423.017 315.248C424.559 316.922 425.925 318.756 427.093 320.719C429.022 324.223 429.912 328.623 433.173 330.852C434.049 331.313 434.847 331.915 435.535 332.634C436.558 334.002 436.184 335.918 436.275 337.641C436.367 339.364 437.664 341.415 439.278 340.892C438.713 342.978 438.713 345.181 439.278 347.267C446.362 346.898 453.118 344.12 458.458 339.38C460.039 337.979 461.561 336.189 461.578 334.061C461.602 333.693 461.521 333.327 461.345 333.005C461.025 332.59 460.603 332.266 460.122 332.068C455.057 329.281 453.534 322.822 450.973 317.578C448.735 312.951 445.425 308.965 442.655 304.667C436.633 295.421 432.524 284.233 423.416 278.128C421.412 276.785 419.083 275.595 418.076 273.374C417.519 272.133 417.453 270.714 417.012 269.431C416.571 268.147 415.515 266.897 414.167 266.897C414.916 265.04 414.766 262.777 414.816 260.767C414.867 259.875 414.766 258.981 414.516 258.124C414.17 257.202 413.721 256.324 413.177 255.506C410.801 251.422 409.613 246.738 409.75 241.996C409.817 239.556 410.241 237.039 409.518 234.709C409.152 233.535 408.511 232.463 408.07 231.331C407.406 229.281 407.055 227.14 407.031 224.981L406.532 216.867C406.456 214.164 406.111 211.477 405.5 208.845C403.837 202.546 402.173 176.158 396.476 173.186C390.778 170.214 380.988 190.522 374.575 190.918C371.738 191.038 368.935 191.588 366.258 192.548C361.991 194.169 358.414 197.192 354.929 200.148L343.135 210.204C340.639 212.29 338.577 214.283 335.823 215.752Z" fill="#464353"/>
<path d="M279.214 43.4781C281.809 39.8809 286.267 37.9726 290.659 37.8121C295.051 37.6517 299.376 39.0534 303.31 41.0378C304.471 41.7081 305.713 42.2246 307.003 42.5745C309.083 43.0052 311.395 42.431 313.275 43.4189C315.77 44.7615 316.252 48.1813 316.036 51.0185C315.82 53.8557 315.296 57.0053 316.785 59.4625C317.313 60.1633 317.794 60.8996 318.224 61.6664C318.864 63.1272 318.49 64.816 318.107 66.3612C317.134 65.5168 316.585 64.2418 315.72 63.2623C314.855 62.2828 313.35 61.6242 312.277 62.3588C311.204 63.0934 311.22 64.4276 311.162 65.6266C311.104 66.8257 310.804 68.2611 309.69 68.6496C309.224 68.7571 308.738 68.7204 308.293 68.5443C307.848 68.3682 307.465 68.0607 307.195 67.6616C305.29 65.2973 306.055 61.5228 304.167 59.1416C303.094 57.7906 301.306 57.132 300.316 55.7134C299.534 54.5988 299.334 53.1802 298.652 51.9811C297.97 50.7821 296.382 49.9039 295.325 50.7314C294.965 51.0811 294.664 51.4892 294.435 51.9389C293.777 52.8968 292.819 53.6011 291.717 53.9382C290.615 54.2753 289.434 54.2254 288.363 53.7966C287.546 53.2869 286.661 52.8974 285.735 52.6398C285.129 52.609 284.527 52.7508 283.996 53.0492C283.466 53.3477 283.028 53.7908 282.732 54.3286C282.135 55.403 281.847 56.6258 281.901 57.8582C281.901 59.5469 282.2 61.3455 281.252 62.6965C280.891 63.2051 280.44 63.6405 279.921 63.98C278.532 64.8835 276.594 65.4915 275.313 64.4613C274.879 64.0508 274.556 63.5339 274.375 62.9601C274.195 62.3864 274.163 61.7751 274.282 61.1851C274.531 60.0098 274.859 58.8531 275.263 57.723C275.995 55.1054 275.039 52.1585 275.837 49.6928C276.673 47.4723 277.81 45.3807 279.214 43.4781Z" fill="#464353"/>
<path d="M289.753 103.05C289.628 103.666 289.691 104.305 289.935 104.883C290.183 105.276 290.519 105.603 290.917 105.837C293.714 107.606 296.895 108.652 300.183 108.885C300.63 108.893 301.069 109.009 301.464 109.223C302.246 109.746 302.295 110.912 302.004 111.84C301.616 112.717 301.415 113.666 301.414 114.627C301.655 116.392 303.718 117.16 305.456 117.422C307.893 117.734 310.563 117.574 312.493 116.029C313.8 114.818 314.796 113.302 315.396 111.613C320.17 100.475 321.842 88.1636 326.674 77.0598C327.041 76.3347 327.285 75.5528 327.398 74.7461C327.449 74.3423 327.393 73.932 327.235 73.5578C327.077 73.1836 326.823 72.8592 326.5 72.6182C325.601 72.0525 324.204 72.3733 323.597 71.4867C323.297 71.0392 323.331 70.4312 323.065 69.9584C322.507 68.9535 321.043 69.114 320.045 68.5313C319.263 68.1091 318.723 67.2394 317.849 67.0705C317.421 67.0459 316.992 67.1232 316.598 67.2962C316.204 67.4691 315.855 67.733 315.579 68.0669C312.742 70.7521 311.254 74.5603 309.673 78.1575C307.26 83.6713 304.435 88.9897 301.222 94.0659C301.597 93.4749 299.426 88.9995 298.577 88.8053C297.089 88.5013 295.184 91.1528 294.377 92.1407C291.845 95.257 290.241 99.0414 289.753 103.05Z" fill="#6ADB7E"/>
<path opacity="0.1" d="M319.97 69.3167C319.373 69.3268 318.785 69.4732 318.251 69.745C317.717 70.0169 317.25 70.4073 316.884 70.8872C315.994 72.0609 315.82 73.6146 315.595 75.1092C314.838 79.8443 313.174 84.3828 310.696 88.4676" fill="black"/>
<path opacity="0.1" d="M324.212 72.6858C323.387 72.7044 322.582 72.9408 321.874 73.3717C321.167 73.8026 320.582 74.413 320.178 75.143C319.627 76.4712 319.285 77.8786 319.163 79.3143C318.45 82.4973 317.075 85.4886 315.129 88.0876" fill="black"/>
<path d="M521.889 237.766V227.278C521.886 219.558 518.864 212.155 513.486 206.696C508.108 201.238 500.814 198.172 493.21 198.172H85.2388C77.6341 198.172 70.3407 201.238 64.9626 206.696C59.5844 212.155 56.5619 219.558 56.5597 227.278V246.615L521.889 237.766Z" fill="#4A4959"/>
<path d="M198.733 185.877C198.733 185.877 197.568 259.222 210.377 283.355C223.186 307.487 228.676 412.471 228.676 412.471C228.676 412.471 362.956 426.573 456.529 395.584C550.102 364.594 749.209 351.92 749.209 351.92L715.656 122.336C715.656 122.336 549.894 111.545 455.597 157.202C361.3 202.858 198.733 185.877 198.733 185.877Z" fill="#8DD070"/>
<path opacity="0.1" d="M198.733 185.877C198.733 185.877 197.568 259.222 210.377 283.355C223.186 307.487 228.676 412.471 228.676 412.471C228.676 412.471 362.956 426.573 456.529 395.584C550.102 364.594 749.209 351.92 749.209 351.92L715.656 122.336C715.656 122.336 549.894 111.545 455.597 157.202C361.3 202.858 198.733 185.877 198.733 185.877Z" fill="black"/>
<path d="M228.452 212.67C228.452 212.67 224.251 273.188 234.79 292.525C245.328 311.861 245.819 398.184 245.819 398.184C245.819 398.184 366.665 403.876 452.628 374.17C538.591 344.464 719.232 325.195 719.232 325.195L698.705 137.443C698.705 137.443 549.237 135.881 462.002 177.695C374.767 219.51 228.452 212.67 228.452 212.67Z" fill="#8DD070"/>
<path opacity="0.1" d="M460.675 339.794C477.869 337.62 488.084 305.507 483.491 268.069C478.898 230.631 461.235 202.044 444.04 204.218C426.846 206.392 416.631 238.504 421.224 275.943C425.817 313.381 443.48 341.968 460.675 339.794Z" fill="black"/>
<path opacity="0.2" d="M624.778 10.4958C624.778 10.4958 463.74 51.8713 387.8 124.701C311.861 197.53 151.996 232.015 151.996 232.015C151.996 232.015 173.056 302.176 192.536 321.158C212.016 340.14 248.963 438.361 248.963 438.361C248.963 438.361 381.022 409.938 460.704 351.269C540.387 292.601 726.094 218.505 726.094 218.505L624.778 10.4958Z" fill="black"/>
<path d="M149.575 221.511C149.575 221.511 170.627 291.68 190.091 310.662C209.554 329.645 246.517 427.856 246.517 427.856C246.517 427.856 378.593 399.442 458.284 340.774C537.975 282.105 723.665 208.034 723.665 208.034L622.349 0C622.349 0 461.32 41.3755 385.38 114.205C309.44 187.034 149.575 221.511 149.575 221.511Z" fill="#8DD070"/>
<path opacity="0.1" d="M149.575 221.511C149.575 221.511 170.627 291.68 190.091 310.662C209.554 329.645 246.517 427.856 246.517 427.856C246.517 427.856 378.593 399.442 458.284 340.774C537.975 282.105 723.665 208.034 723.665 208.034L622.349 0C622.349 0 461.32 41.3755 385.38 114.205C309.44 187.034 149.575 221.511 149.575 221.511Z" fill="black"/>
<path d="M185.932 237.757C185.932 237.757 200.23 296.671 216.108 311.786C231.987 326.9 258.528 408.891 258.528 408.891C258.528 408.891 375.257 376.652 448.095 321.597C520.932 266.543 687.051 192.008 687.051 192.008L610.771 19.6491C610.771 19.6491 468.049 64.7147 397.657 131.692C327.265 198.67 185.932 237.757 185.932 237.757Z" fill="#8DD070"/>
<path opacity="0.1" d="M445.402 286.402C461.109 278.976 461.125 245.231 445.437 211.029C429.749 176.828 404.298 155.123 388.59 162.548C372.882 169.974 372.866 203.719 388.554 237.921C404.242 272.122 429.694 293.827 445.402 286.402Z" fill="black"/>
<path opacity="0.1" d="M532.901 248.059V539.376C532.901 542.685 532.259 545.961 531.012 549.017C529.764 552.074 527.936 554.851 525.631 557.19C523.326 559.529 520.59 561.384 517.579 562.65C514.567 563.915 511.34 564.566 508.081 564.565H81.3876C74.8086 564.562 68.4999 561.908 63.8486 557.184C59.1974 552.461 56.5845 546.055 56.5845 539.376V218.691C68.8114 223.301 68.8114 223.301 81.3876 222.913H508.081C514.655 222.913 520.961 225.56 525.614 230.275C530.267 234.989 532.888 241.385 532.901 248.059Z" fill="black"/>
<path d="M532.901 251.766V543.083C532.899 549.764 530.283 556.171 525.629 560.894C520.974 565.618 514.662 568.271 508.081 568.271H81.3876C74.8086 568.269 68.4999 565.614 63.8486 560.891C59.1974 556.167 56.5845 549.762 56.5845 543.083V222.389C68.8114 226.991 68.8114 226.991 81.3876 226.611H508.081C514.657 226.611 520.963 229.26 525.617 233.976C530.27 238.692 532.89 245.09 532.901 251.766Z" fill="#5B5A6D"/>
<path opacity="0.1" d="M531.687 359.469V452.631H442.688C430.626 452.466 419.113 447.486 410.641 438.768C402.168 430.05 397.418 418.296 397.418 406.05C397.418 393.803 402.168 382.049 410.641 373.331C419.113 364.614 430.626 359.634 442.688 359.469H531.687Z" fill="black"/>
<path d="M532.901 356.986V450.165H443.903C431.84 450.001 420.327 445.02 411.855 436.303C403.382 427.585 398.632 415.831 398.632 403.584C398.632 391.338 403.382 379.584 411.855 370.866C420.327 362.148 431.84 357.168 443.903 357.003L532.901 356.986Z" fill="#4A4959"/>
<path opacity="0.1" d="M448.17 424.217C458.051 424.217 466.061 416.085 466.061 406.054C466.061 396.023 458.051 387.891 448.17 387.891C438.288 387.891 430.278 396.023 430.278 406.054C430.278 416.085 438.288 424.217 448.17 424.217Z" fill="black"/>
<path d="M449.384 421.751C459.265 421.751 467.275 413.62 467.275 403.588C467.275 393.557 459.265 385.425 449.384 385.425C439.503 385.425 431.493 393.557 431.493 403.588C431.493 413.62 439.503 421.751 449.384 421.751Z" fill="#6ADB7E"/>
<path d="M687.384 356.184C688.091 363.961 682.294 371.51 683.982 379.126C684.348 380.756 685.038 382.293 685.288 383.939C685.987 388.465 683.333 392.746 680.797 396.529L659.004 428.988C658.132 430.415 657.087 431.725 655.894 432.889C651.735 436.655 645.48 436.267 640.007 437.39C636.159 438.182 632.527 439.813 629.36 442.169C629.228 442.284 629.144 442.446 629.125 442.622C629.107 442.798 629.155 442.974 629.261 443.115C630.165 444.365 631.363 445.366 632.747 446.025C634.13 446.684 635.654 446.981 637.179 446.889C637.753 447.658 637.179 448.781 636.347 449.329C635.174 450.174 633.569 450.376 633.336 452.386C633.253 453.088 633.393 453.798 633.735 454.413C634.613 455.778 635.979 456.744 637.545 457.106C645.089 459.445 653.24 455.333 658.888 449.735C664.536 444.136 668.586 437.069 674.126 431.369C677.195 428.22 680.68 425.517 683.841 422.461C690.145 416.364 695.045 408.95 699.777 401.528C701.2 399.29 702.63 396.994 703.229 394.401C703.828 391.809 703.545 389.191 704.219 386.684C705.101 383.39 707.471 380.773 709.442 378.012C713.31 372.607 715.888 365.996 715.381 359.342C714.874 352.688 710.806 346.11 704.618 343.847C702.7 343.065 700.585 342.935 698.588 343.476C696.051 344.269 694.18 346.397 692.449 348.432L688.291 353.288C687.254 354.353 686.434 355.615 685.879 357.003C685.612 357.7 685.549 358.459 685.696 359.192C685.844 359.924 686.196 360.597 686.71 361.132" fill="#FBBEBE"/>
<path opacity="0.05" d="M687.384 356.184C688.091 363.961 682.294 371.51 683.982 379.126C684.348 380.756 685.038 382.293 685.288 383.939C685.987 388.465 683.333 392.746 680.797 396.529L659.004 428.988C658.132 430.415 657.087 431.725 655.894 432.889C651.735 436.655 645.48 436.267 640.007 437.39C636.159 438.182 632.527 439.813 629.36 442.169C629.228 442.284 629.144 442.446 629.125 442.622C629.107 442.798 629.155 442.974 629.261 443.115C630.165 444.365 631.363 445.366 632.747 446.025C634.13 446.684 635.654 446.981 637.179 446.889C637.753 447.658 637.179 448.781 636.347 449.329C635.174 450.174 633.569 450.376 633.336 452.386C633.253 453.088 633.393 453.798 633.735 454.413C634.613 455.778 635.979 456.744 637.545 457.106C645.089 459.445 653.24 455.333 658.888 449.735C664.536 444.136 668.586 437.069 674.126 431.369C677.195 428.22 680.68 425.517 683.841 422.461C690.145 416.364 695.045 408.95 699.777 401.528C701.2 399.29 702.63 396.994 703.229 394.401C703.828 391.809 703.545 389.191 704.219 386.684C705.101 383.39 707.471 380.773 709.442 378.012C713.31 372.607 715.888 365.996 715.381 359.342C714.874 352.688 710.806 346.11 704.618 343.847C702.7 343.065 700.585 342.935 698.588 343.476C696.051 344.269 694.18 346.397 692.449 348.432L688.291 353.288C687.254 354.353 686.434 355.615 685.879 357.003C685.612 357.7 685.549 358.459 685.696 359.192C685.844 359.924 686.196 360.597 686.71 361.132" fill="black"/>
<path d="M703.878 556.391C699.12 559.338 693.19 559.515 687.659 558.831C686.769 558.721 685.712 558.654 685.163 559.354C684.332 560.368 685.313 561.888 686.328 562.673C689.59 565.16 693.424 566.761 697.465 567.326C701.074 567.845 704.716 568.091 708.361 568.06C718.342 568.238 728.323 568.406 738.147 566.954C738.728 566.909 739.295 566.743 739.81 566.464C740.443 566.013 740.884 565.334 741.041 564.564C741.715 561.964 740.417 559.177 738.454 557.37C736.491 555.563 733.971 554.558 731.509 553.587L722.859 550.168C720.829 549.365 717.577 547.237 715.373 547.406C711.231 547.71 707.313 554.347 703.878 556.391Z" fill="#3F3D56"/>
<path opacity="0.05" d="M703.878 556.391C699.12 559.338 693.19 559.515 687.659 558.831C686.769 558.721 685.712 558.654 685.163 559.354C684.332 560.368 685.313 561.888 686.328 562.673C689.59 565.16 693.424 566.761 697.465 567.326C701.074 567.845 704.716 568.091 708.361 568.06C718.342 568.238 728.323 568.406 738.147 566.954C738.728 566.909 739.295 566.743 739.81 566.464C740.443 566.013 740.884 565.334 741.041 564.564C741.715 561.964 740.417 559.177 738.454 557.37C736.491 555.563 733.971 554.558 731.509 553.587L722.859 550.168C720.829 549.365 717.577 547.237 715.373 547.406C711.231 547.71 707.313 554.347 703.878 556.391Z" fill="black"/>
<path d="M709.942 439.813C706.34 444.677 702.614 450.292 703.504 456.313C703.986 459.555 705.775 462.418 707.089 465.415C708.869 469.485 709.8 473.859 710.715 478.216C712.063 484.583 713.418 490.967 714.242 497.435C715.182 504.739 710.765 525.874 710.358 533.229C710.258 535.002 710.05 536.919 708.835 538.194C708.361 538.701 707.729 539.106 707.513 539.764C707.386 540.399 707.49 541.059 707.804 541.622C709.834 546.266 713.984 549.728 718.617 551.704C723.25 553.68 734.42 557.092 739.469 557.269C740.135 557.343 740.808 557.253 741.432 557.007C742.104 556.591 742.633 555.975 742.946 555.242C746.564 548.217 743.087 523.24 743.137 515.311C743.187 508.699 744.726 502.13 744.443 495.526C744.21 490.224 742.78 485.039 742.306 479.753C741.474 471.09 743.037 462.384 744.61 453.822C745.807 447.252 747.013 440.683 748.552 434.198C749.492 430.238 750.582 426.244 752.711 422.807C754.374 420.08 756.712 417.8 758.65 415.207C764.029 408.048 766.419 399.028 765.304 390.095C765.187 389.251 752.827 393.278 751.738 393.76C747.292 395.671 743.201 398.341 739.644 401.655C736.783 404.424 734.529 408.123 732.025 411.222C728.482 415.607 724.983 420.023 721.528 424.47C717.586 429.554 713.723 434.668 709.942 439.813Z" fill="#464353"/>
<path opacity="0.05" d="M709.942 439.518C706.34 444.381 702.614 450.005 703.504 456.017C703.986 459.268 705.775 462.131 707.089 465.128C708.869 469.19 709.8 473.572 710.715 477.921C712.063 484.296 713.418 490.68 714.242 497.139C715.182 504.452 710.765 525.579 710.358 532.933C710.258 534.707 710.05 536.632 708.835 537.907C708.361 538.405 707.729 538.81 707.513 539.469C707.385 540.104 707.489 540.764 707.804 541.327C709.834 545.979 713.984 549.433 718.617 551.459C723.25 553.486 734.42 555.251 739.469 555.42C740.135 555.494 740.808 555.404 741.432 555.158C742.105 554.747 742.634 554.133 742.946 553.401C746.564 546.376 743.087 523.003 743.137 515.066C743.187 508.446 744.726 501.885 744.443 495.273C744.21 489.97 742.78 484.786 742.306 479.508C741.474 470.836 743.037 462.131 744.61 453.568C745.807 447.007 747.013 440.438 748.552 433.945C749.492 429.984 750.582 425.99 752.711 422.554C754.374 419.826 756.712 417.546 758.65 414.954C764.03 407.795 766.42 398.775 765.304 389.842C765.187 388.997 752.827 393.025 751.738 393.506C747.293 395.423 743.203 398.096 739.644 401.41C736.783 404.171 734.529 407.869 732.025 410.968C728.482 415.354 724.983 419.773 721.528 424.225C717.586 429.269 713.723 434.367 709.942 439.518Z" fill="black"/>
<path d="M669.867 332.693C681.016 332.693 690.054 323.518 690.054 312.199C690.054 300.881 681.016 291.706 669.867 291.706C658.718 291.706 649.68 300.881 649.68 312.199C649.68 323.518 658.718 332.693 669.867 332.693Z" fill="#FBBEBE"/>
<path d="M688.05 311.338C689.915 314.358 692.36 316.966 695.24 319.006C698.119 321.045 701.374 322.475 704.81 323.21L703.288 328.825C700.659 338.468 697.706 348.669 690.37 355.356C691.202 352.089 690.137 348.601 688.324 345.764C686.511 342.927 683.966 340.698 681.47 338.494L669.851 328.277C669.515 327.999 669.233 327.662 669.019 327.28C668.732 326.56 668.732 325.754 669.019 325.034C670.5 320.356 674.725 317.434 678.168 314.276C679.896 312.643 681.439 310.819 682.768 308.839C685.089 305.478 686.528 308.855 688.05 311.338Z" fill="#FBBEBE"/>
<path d="M643.276 291.596L642.818 287.745C646.004 288.59 649.032 285.837 651.069 282.992C653.107 280.146 654.995 276.794 658.098 275.603C661.866 274.168 665.858 276.447 669.46 278.373C673.492 280.644 677.917 282.106 682.493 282.679C683.223 282.704 683.947 282.823 684.648 283.034C686.993 283.878 688.108 286.867 688.449 289.578C688.79 292.288 688.698 295.168 689.854 297.583C690.686 299.415 692.233 300.775 693.181 302.582C695.677 307.428 693.265 314.057 695.868 318.811L689.397 312.79C688.806 312.241 687.975 311.667 687.318 312.132C686.802 312.503 686.76 313.305 686.552 313.947C685.928 315.822 683.616 316.379 681.944 315.636C680.273 314.893 679.05 313.28 677.786 311.811C674.924 308.383 671.514 305.368 667.522 303.907C665.772 303.243 663.902 302.964 662.038 303.09C660.174 303.215 658.357 303.741 656.709 304.633C653.689 306.364 651.477 310.401 647.776 310.544C642.702 310.738 640.589 301.146 638.244 297.355C639.102 296.699 639.706 295.758 639.949 294.696C640.192 293.633 640.06 292.518 639.574 291.545C639.916 291.402 643.201 291.005 643.276 291.596Z" fill="#464353"/>
<path d="M393.59 171.784C391.968 173.249 390.468 174.847 389.106 176.564C387.736 178.304 387.006 180.475 387.044 182.702C387.051 183.348 387.254 183.976 387.626 184.501C387.816 184.752 388.078 184.937 388.376 185.029C388.675 185.121 388.994 185.117 389.289 185.016C389.624 184.843 389.91 184.588 390.121 184.273C391 183.201 391.933 182.175 392.916 181.199C393.273 180.836 393.748 180.456 394.23 180.591C394.446 180.669 394.64 180.8 394.796 180.971C395.355 181.462 395.763 182.108 395.968 182.829C396.26 184.121 395.519 185.413 394.679 186.426C393.839 187.439 392.849 188.411 392.508 189.686C392.379 190.022 392.379 190.396 392.508 190.733C392.669 190.976 392.894 191.169 393.157 191.29C394.348 191.956 395.669 192.348 397.026 192.438C398.382 192.529 399.742 192.315 401.009 191.813C402.672 191.129 404.153 189.956 405.866 189.348C406.608 189.142 407.327 188.859 408.012 188.503C408.502 188.172 408.923 187.746 409.25 187.249C409.577 186.752 409.804 186.194 409.917 185.607C410.133 184.435 410.175 183.237 410.042 182.052C409.834 177.465 408.867 172.946 407.181 168.685C407.083 168.411 406.917 168.166 406.698 167.976C406.448 167.821 406.159 167.742 405.866 167.748C403.737 167.52 400.244 166.414 398.189 167.216C397.471 167.616 396.851 168.176 396.376 168.854C395.993 169.285 393.59 171.219 393.59 171.784Z" fill="#A1616A"/>
<path d="M392.916 169.876C392.916 167.816 390.421 162.842 394.388 162.513C394.388 160.309 391.319 158.941 391.893 156.602C392.076 155.825 392.725 155.192 392.799 154.398C393.049 152.144 389.04 150.919 389.705 148.758C389.955 147.913 390.836 147.423 391.028 146.587C391.477 144.637 388.042 143.767 387.975 141.766C387.975 141.09 388.35 140.457 388.316 139.782C388.316 138.937 387.593 138.296 387.193 137.561C386.154 135.678 386.661 132.765 384.765 131.794C386.021 131.903 386.428 130.012 385.912 128.855C385.397 127.698 384.34 126.693 384.332 125.41C384.394 124.945 384.394 124.473 384.332 124.008C383.983 122.775 381.995 122.674 381.662 121.475C381.619 121.015 381.605 120.552 381.621 120.09C381.487 119.136 380.523 118.528 379.616 118.258C378.674 118.096 377.768 117.767 376.938 117.287C376.356 116.839 375.682 116.096 375.058 116.442C374.825 116.586 374.709 116.856 374.534 117.059C373.785 117.946 372.355 117.557 371.415 116.907C368.637 114.99 367.256 111.553 366.665 108.201C366.075 104.849 366.092 101.387 365.351 98.0684C365.126 97.0342 364.825 96.0182 364.453 95.0286C364.137 94.1842 363.122 92.8585 363.056 92.0056C362.906 90.0635 366.865 91.3892 368.371 91.5834C369.832 91.7283 371.277 92.011 372.687 92.4278C374.192 93.005 375.667 93.6617 377.104 94.3953C383.109 97.0889 390.362 97.4182 395.187 101.944C396.775 103.43 398.114 105.381 400.177 106.056C401.123 106.241 402.057 106.486 402.972 106.791C405.259 107.88 405.617 110.962 406.865 113.192C407.257 113.78 407.599 114.402 407.888 115.049C408.128 115.813 408.241 116.612 408.22 117.414L408.395 123.265C408.678 133.069 408.961 142.897 407.929 152.642C407.596 155.859 407.097 159.169 408.037 162.26C408.287 163.104 408.636 163.898 408.869 164.75C409.075 165.75 409.181 166.769 409.185 167.79L409.318 171.582C409.364 171.876 409.299 172.178 409.135 172.426C408.996 172.541 408.834 172.622 408.659 172.665C408.485 172.707 408.304 172.709 408.129 172.671C402.93 172.198 397.674 169.226 392.766 171.024" fill="#464353"/>
<path d="M630.151 461.193C664.126 461.193 691.668 457.152 691.668 452.167C691.668 447.181 664.126 443.14 630.151 443.14C596.176 443.14 568.634 447.181 568.634 452.167C568.634 457.152 596.176 461.193 630.151 461.193Z" fill="#504F60"/>
<path d="M683.076 452.606C681.994 447.902 681.321 443.773 681.321 443.773C681.321 443.773 681.57 438.656 679.308 434.814V433.531V424.074C679.952 422.356 680.739 420.698 681.662 419.117C683.325 416.145 681.662 405.252 681.662 405.252C681.662 405.252 675.448 389.892 676.954 380.148C678.459 370.404 664.195 336.881 664.195 336.881C664.283 333.648 664.732 330.436 665.534 327.306C665.686 326.647 665.748 325.971 665.717 325.296C665.717 325.211 665.717 325.135 665.717 325.051C665.717 324.967 665.717 325.102 665.717 325.127C665.501 318.701 660.493 306.66 660.493 306.66L661.167 283.709C661.167 283.709 664.361 270.199 659.154 252.002C657.333 245.661 656.168 240.586 655.428 236.668C655.345 236.229 655.262 235.823 655.195 235.393C665.916 233.704 674.109 232.353 674.109 232.353C674.109 232.353 667.888 205.932 663.687 201.304C659.487 196.677 656.127 182.145 656.127 182.145C656.127 182.145 653.939 163.492 657.474 158.038C661.009 152.583 661.508 143.176 661.508 143.176C661.508 143.176 669.568 137.265 670.583 134.589C671.597 131.912 673.269 126.001 673.269 122.868C673.269 119.736 672.263 116.958 672.595 115.269C672.928 113.58 670.242 107.34 671.589 104.368C671.938 103.455 672.118 102.484 672.121 101.505C672.125 101.477 672.125 101.449 672.121 101.421C672.134 98.8196 671.897 96.2235 671.414 93.6691C669.083 91.6704 666.362 90.1943 663.429 89.3373L663.255 88.628L662.797 86.7703C662.542 86.599 662.278 86.4411 662.007 86.2975V85.6219L661.932 82.9368L663.197 76.9078C665.692 66.4203 651.893 64.8582 651.893 64.8582C651.056 63.2495 649.664 62.0108 647.984 61.3793C645.214 60.3913 647.526 77.1526 648.815 78.2672C649.789 79.1116 652.799 84.33 654.255 86.9139L654.488 87.3361C654.26 87.544 654.049 87.7699 653.856 88.0116L654.38 91.6509L654.463 92.2082C653.548 93.3612 652.806 94.6443 652.259 96.0165C652.259 96.0165 654.754 98.8199 654.28 101.927C653.806 105.035 655.054 108.978 655.112 109.189C654.962 109.012 653.19 107.07 651.419 107.543C649.647 108.015 644.698 109.527 644.698 109.527C644.698 109.527 641.005 110.185 641.371 111.013C641.737 111.84 638.876 115.471 638.876 115.471L628.945 105.913C628.845 105.626 628.737 105.339 628.653 105.068C628.248 103.69 627.97 102.277 627.822 100.846C628.904 100.585 629.966 100.244 630.999 99.8247C632.043 99.461 632.984 98.8469 633.744 98.0346C634.75 96.8271 634.942 95.189 635.349 93.6859C636.131 90.7474 637.844 88.1383 639.034 85.3433C641.048 80.6204 641.697 75.4133 640.905 70.3299C640.753 68.7634 640.231 67.2572 639.383 65.939C637.761 63.676 634.817 62.7556 632.679 60.9486C630.542 59.1416 629.161 56.3804 626.666 55.0379C624.411 53.8135 621.675 53.957 619.13 54.3792C614.159 55.2114 609.384 56.9752 605.048 59.5807C603.601 60.4251 602.004 61.4637 600.34 61.1513C598.91 60.8895 597.845 59.7327 596.947 58.6181C596.957 58.572 596.971 58.5268 596.988 58.483C596.948 58.4419 596.912 58.3966 596.88 58.3479C595.828 60.7193 595.3 63.296 595.333 65.8968C595.333 66.3021 595.333 66.7412 595.383 67.1043V67.5265C595.383 67.6447 595.383 67.7629 595.383 67.8727C595.383 68.0527 595.357 68.2318 595.308 68.4047C595.099 68.9212 594.781 69.3851 594.377 69.7642C594.071 70.1162 593.793 70.4917 593.545 70.8872C593.545 70.7521 593.628 70.617 593.678 70.4734C593.043 71.4137 592.686 72.5178 592.646 73.6568C592.6 74.486 592.868 75.3017 593.395 75.9367C593.893 76.4276 594.436 76.8687 595.017 77.254C594.819 78.3687 594.719 79.4989 594.718 80.6315C594.736 83.9893 595.608 87.2853 597.249 90.2009C598.89 93.1165 601.244 95.5529 604.083 97.2746C604.2 97.5533 604.308 97.8404 604.416 98.119C605.689 101.497 606.645 105.465 606.221 109.096C606.221 109.358 606.146 109.628 606.104 109.89C606.063 110.152 605.855 110.169 605.747 110.312C605.747 110.312 589.336 110.481 585.477 106.935C581.617 103.388 575.728 115.607 575.728 115.607C575.728 115.607 569.848 116.763 568.667 115.607C567.486 114.45 560.607 115.446 560.607 115.446C557.789 112.902 554.122 111.543 550.351 111.646C548.067 109.884 545.546 108.462 542.866 107.424L542.683 107.357C541.499 106.919 540.234 106.757 538.981 106.884C538.981 106.884 530.913 100.129 528.559 96.4809C526.205 92.8331 515.002 79.3649 514.952 79.3058V78.6557L514.827 76.6967C514.494 76.7497 514.158 76.7779 513.82 76.7811C513.762 76.5869 513.679 76.3589 513.596 76.0971C512.95 74.1863 512.155 72.3311 511.217 70.5494C511.217 70.5494 511.217 68.0754 511.924 67.4505C512.631 66.8256 511.633 57.7484 511.633 57.7484C511.633 57.7484 504.363 40.4973 497.851 53.3744C497.851 53.3744 485.541 61.7086 495.871 71.4192C495.871 71.4192 500.03 73.4457 500.579 75.0501C500.961 76.0887 502.359 79.0019 503.299 80.9609L503.723 81.8053L503.606 81.9066L503.756 83.5278L503.823 84.1527C501.876 85.2757 500.554 86.3903 500.878 87.2263C501.451 88.6568 501.845 90.1546 502.051 91.6847C502.051 91.6847 516.341 109.856 518.187 117.616C518.187 117.616 556.506 140.736 569.108 142.382L566.879 153.908C566.554 157.036 566.387 160.178 566.38 163.323C566.546 165.798 564.866 177.028 564.866 177.028C564.866 177.028 562.678 193.544 560.832 195.858C558.985 198.172 559.318 208.077 559.318 208.077C558.882 212.818 558.047 217.513 556.823 222.11C554.976 228.384 556.315 236.153 556.315 236.153C556.315 236.153 549.936 251.014 565.223 240.941C565.223 240.941 572.709 240.468 581.376 240.164C581.376 240.451 581.376 240.746 581.376 241.008C581.376 242.14 581.376 243.364 581.318 244.647C581.201 253.159 581.152 264.913 581.534 273.762C582.208 289.451 586.916 320.5 586.916 320.5V336.129C586.612 337.595 586.461 339.09 586.467 340.588C586.367 346.087 587.809 351.502 590.625 356.201L591.806 366.604C591.806 366.604 594.568 373.46 594.618 377.581C594.607 377.913 594.568 378.244 594.501 378.569C594.394 379.093 594.349 379.629 594.368 380.165C594.21 384.893 597.013 396.208 597.013 396.208C597.013 396.208 597.18 407.599 598.86 408.266C600.299 408.832 596.938 414.827 595.94 416.55C595.914 416.444 595.894 416.337 595.882 416.229L595.674 416.567C595.327 417.489 595.15 418.468 595.15 419.455C595.055 420.232 595.18 421.022 595.51 421.73C595.84 422.439 596.361 423.038 597.013 423.457C600.207 425.441 601.921 427.088 599.209 427.747C598.212 427.904 597.223 428.115 596.248 428.38C596.248 428.253 596.148 428.118 596.107 428C595.724 428.152 595.405 428.433 595.203 428.796C595.002 429.159 594.93 429.582 595 429.993C595.026 431.332 595.365 432.646 595.99 433.826C598.677 439.94 600.54 442.27 600.54 442.27L601.829 442.127C601.639 442.627 601.387 443.101 601.081 443.537C600.59 444.245 599.94 444.824 599.184 445.226C598.48 445.654 597.695 445.927 596.88 446.028C595.969 446.058 595.075 446.282 594.255 446.687C593.435 447.091 592.709 447.667 592.122 448.375C590.459 450.579 589.394 453.577 592.705 456.211L604.724 460.433C604.724 460.433 625.401 463.161 624.303 458.449C623.205 453.737 622.54 449.617 622.54 449.617C622.629 446.74 622.059 443.881 620.876 441.265C620.66 440.839 620.415 440.427 620.145 440.033L620.876 439.957C620.876 439.957 622.39 429.545 624.403 427.569C624.869 427.113 624.977 426.725 624.869 426.488C625.077 425.923 624.545 425.593 623.871 425.399L623.721 425.813C623.062 425.667 622.391 425.591 621.717 425.585C621.717 425.585 621.043 420.139 623.23 418.154C623.407 417.928 623.536 417.667 623.609 417.388C623.682 417.11 623.697 416.818 623.655 416.533C623.671 415.786 623.593 415.039 623.422 414.312C623.4 414.359 623.375 414.404 623.347 414.447C622.249 409.499 618.523 401.638 618.523 401.638C618.523 401.638 618.356 396.69 619.704 394.705C621.051 392.721 619.529 367.786 619.529 367.786C619.529 367.786 620.036 355.736 618.523 350.121C617.009 344.506 620.369 337.894 620.369 337.894C620.369 337.894 620.369 337.768 620.369 337.54V337.455L620.178 335.555C620.173 335.595 620.173 335.634 620.178 335.673C619.837 332.482 619.196 326.698 618.722 324.029C618.049 320.229 618.897 302.075 618.897 302.075L621.916 294.306L627.298 307.69L633.012 325.524C633.012 325.524 635.84 329.29 635.906 333.123C635.906 333.309 635.906 333.495 635.906 333.681C635.86 334.076 635.838 334.473 635.84 334.871C635.739 337.124 636.348 339.352 637.578 341.23C637.578 341.23 639.092 349.674 641.446 351.793C643.8 353.912 643.8 358.067 643.8 358.067C643.8 358.067 646.653 370.294 647.959 372.422C649.09 374.229 649.148 379.177 649.14 380.722C649.14 381.001 649.14 381.161 649.14 381.161C649.14 381.161 649.539 385.535 649.522 389.2C649.522 389.656 649.522 390.095 649.522 390.509C649.526 390.478 649.526 390.447 649.522 390.416C649.522 391.417 649.404 392.415 649.173 393.388L649.123 393.557C649.123 393.346 649.123 393.143 649.181 392.941C648.597 395.429 648.317 397.982 648.35 400.54C648.275 404.931 648.932 410.133 651.552 413.206C656.093 418.492 658.946 417.833 658.946 417.833C658.946 417.833 656.767 424.437 654.072 425.762C653.97 425.811 653.875 425.874 653.789 425.948C653.789 425.813 653.739 425.686 653.723 425.56C653.422 425.889 653.193 426.279 653.05 426.703C652.907 427.128 652.853 427.578 652.891 428.025C652.7 430.93 654.505 435.625 656.218 437.812C656.854 438.444 657.634 438.908 658.489 439.163C658.353 439.26 658.212 439.347 658.065 439.425C657.765 439.591 657.457 439.741 657.141 439.872C656.704 440.061 656.241 440.183 655.769 440.235C654.857 440.26 653.961 440.482 653.14 440.887C652.32 441.292 651.594 441.87 651.011 442.583C649.348 444.778 648.283 447.776 651.593 450.41L663.612 454.632C663.612 454.632 684.157 457.309 683.076 452.606Z" fill="url(#paint0_linear)"/>
<path d="M604.133 460.408L592.488 456.186C589.278 453.551 590.301 450.554 591.923 448.35C592.481 447.647 593.181 447.074 593.976 446.669C594.771 446.264 595.642 446.037 596.531 446.003C597.319 445.901 598.077 445.627 598.751 445.2C599.49 444.793 600.122 444.215 600.598 443.512C601.447 442.143 601.905 440.561 601.92 438.943C601.92 438.943 614.696 435.144 618.19 438.943C618.813 439.631 619.334 440.408 619.737 441.249C620.897 443.872 621.466 446.725 621.4 449.6C621.4 449.6 622.049 453.72 623.105 458.432C624.162 463.144 604.133 460.408 604.133 460.408Z" fill="#2D293D"/>
<path d="M661.059 454.582L649.414 450.36C646.204 447.725 647.227 444.728 648.849 442.532C649.403 441.826 650.101 441.251 650.895 440.846C651.689 440.441 652.56 440.215 653.449 440.185C653.908 440.137 654.358 440.014 654.779 439.822C655.087 439.69 655.387 439.54 655.678 439.374C658.93 437.559 658.847 433.1 658.847 433.1C658.847 433.1 671.614 429.3 675.116 433.1C675.585 433.615 675.995 434.181 676.339 434.789C678.526 438.631 678.285 443.756 678.285 443.756C678.285 443.756 678.934 447.886 679.949 452.589C680.963 457.292 661.059 454.582 661.059 454.582Z" fill="#2D293D"/>
<path opacity="0.1" d="M618.198 438.935C618.822 439.623 619.343 440.399 619.745 441.24L600.615 443.495C601.465 442.126 601.923 440.544 601.938 438.926C601.938 438.926 614.705 435.135 618.198 438.935Z" fill="black"/>
<path opacity="0.1" d="M676.355 434.806V438.445C673.377 443.419 658.98 442.329 654.796 439.838C655.103 439.707 655.403 439.557 655.694 439.391C658.946 437.575 658.863 433.117 658.863 433.117C658.863 433.117 671.631 429.317 675.132 433.117C675.601 433.632 676.011 434.198 676.355 434.806Z" fill="black"/>
<path d="M678.626 419.117C677.736 420.703 676.976 422.361 676.355 424.074V437.119C673.095 442.566 656.185 440.75 653.898 437.778C651.61 434.806 649.223 427.071 651.793 425.728C654.363 424.386 656.509 417.8 656.509 417.8C656.509 417.8 653.74 418.458 649.348 413.172C644.956 407.886 646.262 396.166 647.077 393.363C647.892 390.559 647.077 381.144 647.077 381.144C647.077 381.144 647.243 374.533 645.946 372.388C644.648 370.243 641.879 358.033 641.879 358.033C641.879 358.033 641.879 353.904 639.6 351.759C637.321 349.614 635.857 341.187 635.857 341.187C634.524 339.082 633.951 336.572 634.235 334.086C634.717 329.957 631.465 325.498 631.465 325.498L625.934 307.656L620.727 294.281L617.799 302.041C617.799 302.041 616.967 320.204 617.641 323.995C618.315 327.787 619.305 337.869 619.305 337.869C619.305 337.869 616.052 344.472 617.516 350.087C618.98 355.703 618.448 367.769 618.448 367.769C618.448 367.769 619.912 392.696 618.606 394.68C617.3 396.664 617.466 401.621 617.466 401.621C617.466 401.621 624.121 416.145 622.024 418.129C619.928 420.113 620.561 425.56 620.561 425.56C620.561 425.56 625.11 425.56 623.164 427.544C621.218 429.528 619.745 439.931 619.745 439.931L600.074 442.27C600.074 442.27 598.278 439.965 595.674 433.826C593.071 427.688 596.157 428.38 598.777 427.713C601.397 427.046 599.742 425.408 596.647 423.423C593.553 421.439 595.35 416.981 595.35 416.981C595.35 416.981 600.066 408.891 598.436 408.233C596.805 407.574 596.647 396.175 596.647 396.175C596.647 396.175 593.395 382.664 594.21 379C595.025 375.335 591.607 366.621 591.607 366.621L590.467 356.218C586.987 350.314 585.717 343.336 586.891 336.56V320.517C586.891 320.517 582.333 289.476 581.684 273.788C581.268 263.739 581.385 250.026 581.518 241.472C581.601 236.676 581.684 233.493 581.684 233.493L651.951 226.062C651.951 226.062 651.885 229.355 653.224 236.659C653.947 240.577 655.07 245.652 656.834 251.994C661.874 270.157 658.788 283.692 658.788 283.692L658.131 306.652C658.131 306.652 664.311 322.003 663.014 327.289C662.229 330.427 661.789 333.644 661.7 336.881C661.7 336.881 675.523 370.404 674.059 380.148C672.596 389.892 678.609 405.252 678.609 405.252C678.609 405.252 680.256 416.145 678.626 419.117Z" fill="#464353"/>
<path opacity="0.05" d="M638.452 333.09L659.845 330.193C659.845 330.193 647.726 342.75 638.452 333.09Z" fill="black"/>
<path opacity="0.1" d="M656.75 308.974C656.75 308.974 657.482 316.658 652.849 319.545C652.849 319.545 661.142 318.228 656.75 308.974Z" fill="black"/>
<path opacity="0.1" d="M655.437 284.537C655.437 284.537 637.554 299.483 631.049 298.241C624.545 297 655.437 284.537 655.437 284.537Z" fill="black"/>
<path opacity="0.1" d="M611.935 340.098C611.935 340.098 598.353 343.231 597.945 348.77C597.537 354.309 611.935 340.098 611.935 340.098Z" fill="black"/>
<path opacity="0.05" d="M614.921 408.967C614.921 408.967 595.733 412.598 601.181 415.072C606.629 417.546 615.578 419.531 615.578 419.531C615.578 419.531 621.775 419.86 614.921 408.967Z" fill="black"/>
<g opacity="0.05">
<path opacity="0.05" d="M597.305 419.007C596.822 418.701 596.414 418.289 596.11 417.8C595.806 417.312 595.615 416.761 595.55 416.187L595.35 416.533C595.35 416.533 593.562 420.991 596.656 422.967C597.005 423.195 597.346 423.423 597.654 423.643C598.228 423.533 598.843 423.449 599.434 423.297C602.054 422.638 600.399 420.991 597.305 419.007Z" fill="black"/>
<path opacity="0.05" d="M622.024 417.681C622.557 417.192 622.54 415.925 622.216 414.304C621.384 415.579 621.143 417.572 621.126 419.083C621.328 418.559 621.634 418.081 622.024 417.681Z" fill="black"/>
<path opacity="0.05" d="M619.072 335.53C618.365 337.483 617.928 339.526 617.774 341.601C618.145 340.168 618.643 338.772 619.263 337.43L619.072 335.53Z" fill="black"/>
<path opacity="0.05" d="M663.023 326.866C663.151 326.273 663.21 325.667 663.198 325.059C662.956 326.292 662.789 327.432 662.664 328.437C662.773 327.922 662.889 327.432 663.023 326.866Z" fill="black"/>
<path opacity="0.05" d="M618.614 394.241C618.881 393.836 619.03 392.468 619.097 390.568C618.495 392.038 618.176 393.612 618.157 395.204C618.271 394.865 618.424 394.542 618.614 394.241Z" fill="black"/>
<path opacity="0.05" d="M622.607 425.382C621.598 428.695 620.85 432.083 620.369 435.515L600.698 437.82C600.698 437.82 598.901 435.515 596.298 429.376C596.088 428.902 595.902 428.417 595.741 427.924C594.56 428.473 594.077 429.714 595.641 433.337C598.244 439.45 600.049 441.781 600.049 441.781L619.72 439.467C619.72 439.467 621.184 429.064 623.131 427.08C624.129 426.125 623.513 425.627 622.607 425.382Z" fill="black"/>
<path opacity="0.05" d="M596.656 395.727C596.656 395.727 596.814 407.118 598.444 407.777C599.276 405.894 599.817 404.104 599.085 403.808C597.421 403.149 597.296 391.75 597.296 391.75C597.296 391.75 594.044 378.24 594.859 374.575C595.674 370.91 592.256 362.196 592.256 362.196L591.116 351.793C587.636 345.89 586.366 338.911 587.54 332.135V316.092C587.54 316.092 582.982 285.052 582.333 269.363C581.917 259.315 582.033 245.602 582.167 237.048C582.167 235.503 582.216 234.135 582.241 232.978L581.684 233.037C581.684 233.037 581.593 236.212 581.518 241.017C581.385 249.57 581.26 263.283 581.684 273.323C582.333 289.012 586.883 320.061 586.883 320.061V336.104C585.715 342.878 586.988 349.853 590.468 355.753L591.599 366.156C591.599 366.156 595.017 374.904 594.202 378.544C593.387 382.183 596.656 395.727 596.656 395.727Z" fill="black"/>
<path opacity="0.05" d="M654.563 433.37C652.965 431.022 651.899 428.343 651.444 425.526C649.439 427.367 651.743 434.51 653.939 437.347C656.21 440.32 673.128 442.135 676.396 436.68V433.539C671.963 437.955 656.709 436.182 654.563 433.37Z" fill="black"/>
<path opacity="0.05" d="M679.283 414.709C678.391 416.295 677.628 417.953 677.004 419.666V422.005C677.378 421.16 677.902 420.029 678.667 418.695C679.182 417.395 679.426 416 679.383 414.599C679.383 414.599 679.308 414.675 679.283 414.709Z" fill="black"/>
<path opacity="0.05" d="M655.561 417.318C656.18 416.046 656.716 414.735 657.166 413.392C657.166 413.392 654.397 414.051 650.005 408.765C646.811 404.923 646.628 397.661 647.086 392.915C646.254 395.727 644.965 407.447 649.356 412.733C652.226 416.187 654.397 417.099 655.561 417.318Z" fill="black"/>
<path opacity="0.05" d="M647.077 380.697C647.364 383.95 647.472 387.218 647.402 390.483C647.483 389.968 647.594 389.457 647.734 388.955C648.566 386.143 647.734 376.737 647.734 376.737C647.734 376.737 647.901 370.125 646.595 367.98C645.289 365.835 642.569 353.609 642.569 353.609C642.569 353.609 642.569 349.479 640.29 347.335C638.011 345.19 636.547 336.763 636.547 336.763C635.203 334.661 634.615 332.152 634.884 329.661C635.374 325.532 632.122 321.074 632.122 321.074L626.591 303.24L621.384 289.865L618.448 297.633C618.448 297.633 618.448 298.613 618.348 300.167L620.727 293.859L625.934 307.209L631.465 325.043C631.465 325.043 634.717 329.501 634.226 333.63C633.958 336.121 634.546 338.63 635.89 340.731C635.89 340.731 637.354 349.175 639.633 351.303C641.912 353.431 641.904 357.577 641.904 357.577C641.904 357.577 644.673 369.796 645.971 371.932C647.268 374.068 647.077 380.697 647.077 380.697Z" fill="black"/>
</g>
<path d="M660.734 76.8824L659.511 82.9114L659.586 85.5966L659.636 87.5725L652.849 88.2818L652.092 86.8548C650.686 84.2709 647.767 79.0188 646.827 78.2081C645.571 77.1442 643.334 60.3744 645.995 61.3708C647.634 62.0133 648.979 63.2498 649.771 64.8413C649.771 64.8413 663.138 66.395 660.734 76.8824Z" fill="#FFCDD3"/>
<path opacity="0.1" d="M659.637 87.5725L652.85 88.2818L652.093 86.8548C653.006 85.7997 654.251 85.0985 655.616 84.8707C656.98 84.6428 658.381 84.9023 659.579 85.6051L659.637 87.5725Z" fill="black"/>
<path d="M661.35 90.8403L652.4 92.9429L652.209 91.5918L651.701 87.9525C651.701 87.9525 655.245 83.1563 660.368 86.7534L660.818 88.6027L661.35 90.8403Z" fill="#6ADB7E"/>
<path d="M516.374 77.541L506.817 82.7425L505.985 80.9186C505.079 78.985 503.723 76.0718 503.348 75.0078C502.783 73.4035 498.799 71.3769 498.799 71.3769C488.818 61.6748 500.712 53.3321 500.712 53.3321C507.017 40.4551 514.02 57.7061 514.02 57.7061C514.02 57.7061 515.001 66.8003 514.311 67.4083C513.621 68.0162 513.621 70.5072 513.621 70.5072C514.532 72.2919 515.302 74.1469 515.925 76.0549C516.216 76.9753 516.374 77.541 516.374 77.541Z" fill="#FFCDD3"/>
<path opacity="0.1" d="M516.374 77.541L506.817 82.7425L505.985 80.9186C507.333 79.7703 512.115 75.8523 513.688 76.0127C514.438 76.1078 515.196 76.1276 515.95 76.0718C516.216 76.9753 516.374 77.541 516.374 77.541Z" fill="black"/>
<path d="M517.347 80.4711L506.609 85.8415L506.393 83.5025L506.243 81.8813C506.243 81.8813 512.464 76.4687 514.303 76.6798C515.232 76.8165 516.176 76.8165 517.106 76.6798L517.23 78.6388L517.347 80.4711Z" fill="#6ADB7E"/>
<path d="M634.709 116.932C634.709 116.932 587.897 122.294 596.648 119.406C602.736 117.388 605.156 113.496 605.664 109.105C606.08 105.448 605.148 101.505 603.925 98.1275C602.825 95.1311 601.432 92.2543 599.767 89.54C599.767 89.54 635.532 69.5615 628.388 87.7245C627.286 90.4718 626.601 93.373 626.358 96.3289C626.143 99.2665 626.456 102.219 627.281 105.043C628.631 109.625 631.201 113.74 634.709 116.932Z" fill="#FFCDD3"/>
<path opacity="0.1" d="M628.362 87.6992C627.26 90.4464 626.576 93.3476 626.333 96.3036C622.964 99.183 619.271 98.9888 614.522 98.9888C610.879 98.9888 606.836 99.8838 603.925 98.1021C602.825 95.1058 601.432 92.2289 599.766 89.5146C599.766 89.5146 635.524 69.5362 628.362 87.6992Z" fill="black"/>
<path d="M613.89 100.255C624.579 100.255 633.245 91.4581 633.245 80.6062C633.245 69.7543 624.579 60.9571 613.89 60.9571C603.2 60.9571 594.535 69.7543 594.535 80.6062C594.535 91.4581 603.2 100.255 613.89 100.255Z" fill="#FFCDD3"/>
<path opacity="0.1" d="M634.709 116.932C634.709 116.932 587.897 122.294 596.648 119.406C602.736 117.388 605.156 113.496 605.664 109.105C607.993 106.571 612.676 104.688 615.645 103.709C618.39 102.772 621.354 102.722 624.129 103.565C625.22 103.899 626.259 104.388 627.215 105.018C628.578 109.617 631.173 113.741 634.709 116.932Z" fill="black"/>
<path opacity="0.1" d="M661.35 90.8403L652.401 92.9429L652.209 91.5918C653.167 90.2556 654.508 89.2516 656.048 88.7167C657.589 88.1819 659.254 88.142 660.818 88.6027L661.35 90.8403Z" fill="black"/>
<path opacity="0.1" d="M517.348 80.4711L506.61 85.8415L506.393 83.5025C509.871 81.604 513.486 79.9753 517.206 78.6303L517.348 80.4711Z" fill="black"/>
<path opacity="0.1" d="M653.224 236.676C635.083 239.615 609.299 243.364 605.206 242.097C601.805 241.05 590.958 241.16 581.518 241.489C581.601 236.693 581.684 233.51 581.684 233.51L651.951 226.079C651.951 226.079 651.885 229.372 653.224 236.676Z" fill="black"/>
<path d="M671.307 232.353C671.307 232.353 611.611 242.756 605.207 240.797C598.802 238.838 565.906 240.957 565.906 240.957C551.101 251.031 557.281 236.17 557.281 236.17C557.281 236.17 555.983 228.41 557.771 222.136C558.972 217.53 559.793 212.83 560.225 208.085C560.225 208.085 559.901 198.172 561.689 195.858C563.477 193.544 565.598 177.036 565.598 177.036C565.598 177.036 567.22 165.806 567.062 163.332C566.904 160.858 567.544 153.917 567.544 153.917L569.665 142.357C557.463 140.71 520.375 117.591 520.375 117.591C518.587 109.831 504.763 91.6678 504.763 91.6678C504.562 90.1405 504.179 88.6435 503.624 87.2094C502.65 84.5664 517.289 79.2805 517.289 79.2805C517.289 79.2805 528.185 92.7909 530.465 96.4556C532.744 100.12 540.545 106.859 540.545 106.859C541.758 106.732 542.982 106.894 544.122 107.331L544.313 107.391C546.928 108.433 549.38 109.855 551.591 111.613C555.259 111.524 558.817 112.887 561.514 115.412C561.514 115.412 568.168 114.416 569.324 115.573C570.481 116.73 576.153 115.573 576.153 115.573C576.153 115.573 581.842 103.354 585.585 106.901C589.328 110.447 605.207 110.278 605.207 110.278C607.319 107.424 612.468 105.381 615.687 104.368C618.433 103.434 621.396 103.384 624.171 104.224C625.368 104.587 626.494 105.158 627.498 105.913L637.155 115.488C637.155 115.488 639.916 111.849 639.592 111.03C639.267 110.211 642.844 109.544 642.844 109.544C642.844 109.544 647.56 108.058 649.348 107.559C651.136 107.061 652.775 109.029 652.925 109.206C652.867 108.995 651.644 104.984 652.093 101.944C652.542 98.9043 650.138 96.0334 650.138 96.0334C655.828 81.8306 668.678 93.7197 668.678 93.7197C668.678 93.7197 670.142 101.48 668.845 104.452C667.547 107.424 670.142 113.698 669.818 115.353C669.493 117.008 670.475 119.812 670.475 122.953C670.475 126.094 668.811 132.03 667.871 134.673C666.932 137.316 659.088 143.261 659.088 143.261C659.088 143.261 658.597 152.676 655.179 158.122C651.76 163.568 653.906 182.196 653.906 182.196C653.906 182.196 657.158 196.728 661.226 201.355C665.293 205.982 671.307 232.353 671.307 232.353Z" fill="#3F3D56"/>
<path opacity="0.1" d="M584.288 123.696C584.288 123.696 582.499 118.25 580.869 117.785C579.251 117.181 577.675 116.464 576.153 115.64L577.201 113.605C577.201 113.605 583.306 115.294 584.288 117.126C585.269 118.959 584.288 123.696 584.288 123.696Z" fill="black"/>
<path opacity="0.1" d="M551.591 111.646C551.266 113.335 536.785 114.779 536.785 114.779L544.105 107.331L544.288 107.399C546.913 108.447 549.373 109.877 551.591 111.646Z" fill="black"/>
<path d="M509.704 90.2999C510.42 90.2999 511.001 89.7102 511.001 88.9827C511.001 88.2552 510.42 87.6654 509.704 87.6654C508.987 87.6654 508.406 88.2552 508.406 88.9827C508.406 89.7102 508.987 90.2999 509.704 90.2999Z" fill="#575988"/>
<path d="M511.367 92.9429C512.083 92.9429 512.664 92.3531 512.664 91.6256C512.664 90.8981 512.083 90.3083 511.367 90.3083C510.65 90.3083 510.069 90.8981 510.069 91.6256C510.069 92.3531 510.65 92.9429 511.367 92.9429Z" fill="#575988"/>
<path d="M512.997 95.3832C513.714 95.3832 514.295 94.7935 514.295 94.066C514.295 93.3384 513.714 92.7487 512.997 92.7487C512.281 92.7487 511.7 93.3384 511.7 94.066C511.7 94.7935 512.281 95.3832 512.997 95.3832Z" fill="#575988"/>
<path d="M514.702 98.0177C515.419 98.0177 516 97.4279 516 96.7004C516 95.9729 515.419 95.3832 514.702 95.3832C513.986 95.3832 513.405 95.9729 513.405 96.7004C513.405 97.4279 513.986 98.0177 514.702 98.0177Z" fill="#575988"/>
<path d="M668.03 97.6293C668.613 97.6293 669.086 97.1492 669.086 96.5569C669.086 95.9646 668.613 95.4845 668.03 95.4845C667.446 95.4845 666.973 95.9646 666.973 96.5569C666.973 97.1492 667.446 97.6293 668.03 97.6293Z" fill="#575988"/>
<path d="M668.195 100.07C668.779 100.07 669.252 99.5895 669.252 98.9972C669.252 98.405 668.779 97.9248 668.195 97.9248C667.612 97.9248 667.139 98.405 667.139 98.9972C667.139 99.5895 667.612 100.07 668.195 100.07Z" fill="#575988"/>
<path d="M668.337 102.501C668.92 102.501 669.393 102.021 669.393 101.429C669.393 100.837 668.92 100.357 668.337 100.357C667.753 100.357 667.28 100.837 667.28 101.429C667.28 102.021 667.753 102.501 668.337 102.501Z" fill="#575988"/>
<path opacity="0.1" d="M584.345 168.449C584.187 168.255 620.86 215.262 649.323 188.098C649.348 188.107 604.374 194.296 584.345 168.449Z" fill="black"/>
<path opacity="0.1" d="M563.302 192.886C563.302 192.886 585.244 193.494 587.54 199.903V206.574C586.915 206.925 586.212 207.11 585.498 207.11C584.783 207.11 584.081 206.925 583.456 206.574C581.243 205.358 567.977 198.518 563.302 201.811V192.886Z" fill="black"/>
<path d="M563.709 192.886C563.709 192.886 584.695 193.468 586.89 199.582V205.932C586.292 206.269 585.62 206.446 584.936 206.446C584.252 206.446 583.579 206.269 582.981 205.932C580.868 204.783 568.184 198.256 563.709 201.397V192.886Z" fill="#3F3D56"/>
<path opacity="0.1" d="M575.279 144.519C577.521 149.786 580.378 154.762 583.788 159.338C587.497 164.396 591.992 168.808 597.096 172.401C597.096 172.401 575.645 147.575 575.279 144.519Z" fill="black"/>
<path opacity="0.1" d="M568.101 118.638C568.101 118.638 571.761 134.681 581.193 140.128L568.101 118.638Z" fill="black"/>
<path opacity="0.1" d="M562.487 120.259C562.395 119.964 559.235 132.925 574.647 140.128C574.647 140.128 568.101 137.873 562.487 120.259Z" fill="black"/>
<path opacity="0.1" d="M658.298 109.502C658.056 109.502 665.9 114.568 668.038 116.932C668.038 116.932 662.931 109.164 658.298 109.502Z" fill="black"/>
<path d="M608.658 98.4146C608.66 98.8432 608.751 99.2666 608.923 99.658C609.096 100.049 609.346 100.4 609.659 100.688C609.971 100.976 610.339 101.195 610.74 101.332C611.14 101.468 611.564 101.518 611.985 101.48C617.882 101.851 624.028 102.113 629.452 99.7909C630.469 99.4224 631.382 98.8079 632.113 98.0008C633.078 96.7933 633.269 95.1552 633.66 93.6522C634.425 90.7136 636.056 88.1045 637.229 85.3095C639.213 80.5874 639.878 75.4018 639.15 70.3214C638.996 68.7642 638.49 67.2642 637.669 65.939C636.106 63.6676 633.253 62.7472 631.182 60.9402C629.111 59.1332 627.78 56.372 625.359 55.0294C623.18 53.7966 620.51 53.9486 618.056 54.3708C613.23 55.2028 608.605 56.9656 604.432 59.5638C603.027 60.4082 601.488 61.4468 599.874 61.1344C598.46 60.8642 597.429 59.6567 596.547 58.5252C595.413 61.2274 594.936 64.1672 595.158 67.0958C595.219 67.5256 595.205 67.963 595.116 68.3878C594.913 68.9013 594.604 69.3648 594.21 69.7473C592.754 71.4361 591.848 74.1803 593.287 75.9198C593.91 76.6713 594.875 77.0851 595.482 77.8535C596.572 79.2298 596.206 81.2311 596.181 82.9874C596.121 83.6007 596.274 84.216 596.614 84.7269C596.928 85.0247 597.313 85.2348 597.732 85.3369C598.15 85.439 598.587 85.4295 599.001 85.3095C599.825 85.0575 600.69 84.9743 601.546 85.0646C602.448 85.3623 603.226 85.9565 603.759 86.7534C606.445 90.3083 607.51 94.1757 608.658 98.4146Z" fill="#2D293D"/>
<g opacity="0.1">
<path opacity="0.1" d="M632.804 96.5062C632.073 97.3134 631.159 97.9278 630.142 98.2963C624.686 100.602 618.548 100.34 612.675 99.9851C612.045 99.9915 611.421 99.8499 610.854 99.5714C609.955 99.0394 609.614 97.9248 609.34 96.9115C608.192 92.6895 607.136 88.8138 604.408 85.2926C603.882 84.4804 603.103 83.8708 602.195 83.5616C601.339 83.4796 600.476 83.5627 599.65 83.8065C599.237 83.9276 598.8 83.9384 598.382 83.8378C597.964 83.7372 597.578 83.5286 597.263 83.2323C596.923 82.7214 596.77 82.1061 596.83 81.4928C596.83 79.7196 597.221 77.7353 596.132 76.3589C595.524 75.5905 594.56 75.1767 593.936 74.4168C593.529 73.8565 593.279 73.1947 593.213 72.5018C593.147 71.8089 593.268 71.1108 593.562 70.4819C592.522 72.1707 592.081 74.2901 593.287 75.7425C593.911 76.494 594.876 76.9077 595.483 77.6761C596.573 79.061 596.207 81.0537 596.182 82.8101C596.118 83.4225 596.268 84.0381 596.606 84.5495C596.921 84.8488 597.308 85.0597 597.728 85.1619C598.148 85.264 598.586 85.2538 599.001 85.1322C599.825 84.8802 600.69 84.797 601.546 84.8873C602.448 85.185 603.227 85.7792 603.759 86.5761C606.479 90.0972 607.543 93.9646 608.691 98.2035C608.826 99.2465 609.339 100.201 610.13 100.88C610.7 101.159 611.327 101.298 611.96 101.285C617.857 101.657 624.004 101.927 629.427 99.5967C630.445 99.2306 631.359 98.6158 632.089 97.8066C632.455 97.3309 632.737 96.7936 632.92 96.2191C632.929 96.3289 632.87 96.4218 632.804 96.5062Z" fill="black"/>
<path opacity="0.1" d="M595.159 67.8727C595.42 67.5847 595.621 67.2457 595.749 66.8763C595.824 66.449 595.824 66.0117 595.749 65.5844C595.587 63.1769 595.895 60.7607 596.656 58.4746L596.548 58.3479C595.41 61.046 594.933 63.984 595.159 66.9101C595.183 67.2305 595.183 67.5523 595.159 67.8727Z" fill="black"/>
</g>
<path opacity="0.1" d="M605.206 110.321C605.206 110.321 629.385 113.58 631.556 109.89L605.206 110.321Z" fill="black"/>
<path opacity="0.1" d="M652.209 100.162C652.209 100.162 665.65 100.162 668.603 105.296L652.209 100.162Z" fill="black"/>
<path d="M727.409 556.264C723.422 559.882 718.241 561.847 712.894 561.77C711.53 561.77 709.642 562.031 709.634 563.416C709.667 563.822 709.804 564.213 710.033 564.548C711.721 567.404 714.386 569.529 717.519 570.518C720.43 571.413 723.541 571.261 726.577 571.1L735.435 570.636C737.099 570.543 738.762 570.458 740.426 570.247C742.089 570.036 743.902 569.69 745.641 569.403C749.912 568.787 754.232 568.583 758.541 568.795C759.689 568.837 761.037 568.795 761.719 567.951C762.401 567.106 762.051 565.493 761.794 564.227C761.261 561.618 761.794 558.882 761.303 556.264C760.471 551.671 756.554 548.149 752.262 546.486C748.269 544.949 741.199 543.184 737.423 545.751C733.439 548.445 731.002 552.946 727.409 556.264Z" fill="#3F3D56"/>
<path d="M736.209 402.364C736.99 406.139 740.592 409.026 740.692 412.877C740.783 415.967 738.612 418.56 737.049 421.203C735.575 423.94 734.331 426.798 733.331 429.748C730.387 437.427 726.733 444.807 722.418 451.787C720.339 455.164 718.01 458.77 718.484 462.696C718.815 464.532 719.454 466.297 720.372 467.915L726.61 480.496C727.976 483.008 729.046 485.675 729.796 488.442C730.336 490.832 730.386 493.306 730.702 495.738C731.684 503.455 735.252 511.224 733.139 518.705C732.956 519.347 732.308 520.124 731.8 519.676C733.863 523.586 735.518 527.521 735.36 531.954C735.277 534.276 734.578 536.699 735.418 538.861C735.776 539.764 736.4 540.609 736.392 541.58C736.392 542.222 736.1 542.821 736.034 543.446C735.859 545.228 737.473 546.714 739.145 547.28C740.817 547.845 742.638 547.803 744.327 548.318C747.57 549.306 749.891 552.143 752.644 554.111C755.469 556.086 758.797 557.186 762.226 557.277C762.715 557.33 763.209 557.23 763.64 556.99C763.885 556.773 764.081 556.506 764.216 556.206C764.35 555.906 764.421 555.58 764.422 555.251C764.573 553.674 764.339 552.083 763.741 550.62C763.144 549.156 762.201 547.864 760.995 546.857C760.467 546.522 760.029 546.057 759.722 545.506C759.567 545.019 759.527 544.501 759.606 543.995C760.108 537.074 759.986 530.121 759.24 523.223C758.904 521.036 758.795 518.82 758.916 516.611C759.09 514.77 759.639 512.946 759.44 511.114C759.24 509.282 758.317 507.61 757.776 505.845C756.811 502.704 757.078 499.326 756.944 496.042C756.778 490.333 755.489 484.727 754.208 479.154C753.701 476.967 753.143 474.678 751.621 473.057C750.324 471.681 748.228 470.363 748.718 468.531C748.99 467.856 749.395 467.244 749.908 466.732C750.51 465.965 750.952 465.081 751.207 464.135C751.461 463.188 751.523 462.199 751.388 461.227C751.935 461.369 752.514 461.313 753.025 461.07C753.536 460.827 753.949 460.41 754.191 459.893C764.322 455.038 772.49 445.327 776.133 434.561C776.348 433.761 776.679 432.999 777.115 432.298C778.055 430.964 779.685 430.39 781.132 429.655C785.674 427.333 788.809 422.984 791.687 418.728C793.351 416.263 795.014 413.713 795.763 410.808C796.156 408.929 796.343 407.012 796.32 405.091L796.578 395.17C796.634 394.516 796.572 393.858 796.395 393.228C796.148 392.639 795.789 392.105 795.339 391.657C792.572 388.687 788.939 386.698 784.975 385.983C782.313 385.501 779.593 385.594 776.898 385.366C771.675 384.927 766.518 383.281 761.295 383.678C753.085 384.294 745.774 390.07 741.906 397.45C740.55 400.05 739.12 402.313 736.209 402.364Z" fill="#464353"/>
<path d="M690.628 337.852C690.739 339.384 690.535 340.922 690.03 342.37C689.389 343.754 687.784 344.835 686.378 344.269C686.802 343.298 685.679 342.192 684.631 342.31C684.116 342.431 683.637 342.677 683.236 343.027C682.834 343.377 682.523 343.821 682.327 344.32C681.633 345.738 681.4 347.344 681.662 348.905C681.995 350.847 683.101 352.713 682.81 354.664C682.577 356.285 681.404 357.898 682.028 359.401C682.433 360.088 682.941 360.706 683.533 361.233C684.355 362.261 684.757 363.57 684.657 364.889C684.556 366.209 683.961 367.439 682.993 368.326L698.73 368.647C698.156 371.316 699.337 374.043 700.684 376.416C704.458 382.939 709.67 388.486 715.91 392.622C722.15 396.758 729.249 399.37 736.65 400.253C736.25 400.49 735.906 400.815 735.645 401.203C735.383 401.591 735.21 402.034 735.138 402.499C735.065 402.963 735.095 403.438 735.226 403.89C735.357 404.341 735.584 404.757 735.893 405.108C737.174 406.4 739.345 406.24 740.95 405.404C742.555 404.568 743.811 403.183 745.275 402.111C747.859 400.252 751.012 399.389 754.167 399.679C756.138 399.873 758.051 400.523 760.031 400.625C765.853 400.937 770.844 396.681 776.45 394.942C780.534 393.667 785.166 393.667 788.593 391.074C790.074 389.96 791.288 388.127 790.856 386.32C790.498 385.282 789.931 384.33 789.192 383.526C787.221 380.933 786.056 377.817 784.642 374.87C781.841 369.036 777.984 363.788 773.272 359.401C769.716 356.245 765.947 353.345 761.994 350.721C761.038 350.005 760.019 349.38 758.949 348.855C757.569 348.238 756.038 347.943 754.79 347.166C752.944 345.984 751.879 343.898 750.457 342.218C747.338 338.519 742.547 336.822 738.704 333.917C736.126 331.967 733.847 329.4 730.769 328.462C729.272 327.998 727.683 327.964 726.186 327.508C722.784 326.461 720.306 323.396 716.97 322.155C714.334 321.175 711.422 321.428 708.653 321.082C705.531 320.691 702.548 319.538 699.961 317.722C699.127 317.032 698.193 316.48 697.191 316.083C692.974 314.783 692.633 322.754 692.2 325.515C691.643 329.619 690.628 333.698 690.628 337.852Z" fill="#6ADB7E"/>
<path d="M694.737 364.586C695.444 372.371 689.655 379.912 691.343 387.536C691.701 389.158 692.391 390.703 692.641 392.35C693.348 396.867 690.686 401.148 688.149 404.931L666.357 437.398C665.482 438.823 664.438 440.134 663.246 441.299C659.088 445.057 652.833 444.677 647.36 445.791C643.515 446.593 639.885 448.223 636.713 450.571C636.57 450.683 636.477 450.847 636.452 451.029C636.427 451.21 636.473 451.394 636.58 451.542C637.484 452.791 638.681 453.791 640.063 454.45C641.444 455.109 642.966 455.407 644.49 455.316C645.064 456.076 644.49 457.208 643.7 457.757C642.536 458.601 640.922 458.795 640.689 460.813C640.61 461.515 640.75 462.223 641.088 462.84C641.969 464.201 643.334 465.163 644.898 465.525C652.442 467.873 660.593 463.752 666.241 458.153C671.889 452.555 675.939 445.488 681.479 439.796C684.548 436.638 688.033 433.945 691.194 430.888C697.498 424.783 702.406 417.377 707.13 409.955C708.553 407.718 709.992 405.421 710.582 402.829C711.173 400.236 710.898 397.61 711.572 395.102C712.454 391.818 714.824 389.191 716.795 386.439C720.663 381.035 723.25 374.423 722.734 367.761C722.218 361.098 718.159 354.529 711.971 352.266C710.052 351.492 707.938 351.362 705.941 351.894C703.404 352.688 701.533 354.816 699.802 356.859L695.644 361.706C694.631 362.78 693.837 364.045 693.306 365.43C693.038 366.128 692.974 366.889 693.122 367.623C693.269 368.357 693.622 369.032 694.138 369.568" fill="#FBBEBE"/>
<path d="M705.783 332.651C702.922 332.819 699.77 333.107 697.748 335.184C696.901 336.138 696.215 337.228 695.719 338.409C693.756 342.471 691.843 346.718 691.701 351.244C691.585 354.858 692.616 358.396 693.157 361.968C693.606 364.94 692.467 367.972 692.25 370.978C695.802 369.872 700.493 368.369 703.712 366.502C705.908 365.227 708.029 363.775 710.424 362.964C713.843 361.808 719.574 363.809 722.826 365.413C723.001 363.1 721.287 359.063 721.47 356.741C721.496 355.764 721.667 354.796 721.977 353.87C722.464 352.891 723.04 351.961 723.699 351.092C724.937 349.049 725.507 346.66 725.326 344.268C725.145 341.876 724.223 339.604 722.693 337.776C719.807 334.483 715.29 333.25 710.982 332.71C708.268 332.39 705.534 332.294 702.805 332.423" fill="#6ADB7E"/>
</g>
<defs>
<linearGradient id="paint0_linear" x1="587.406" y1="461.193" x2="587.406" y2="48.5698" gradientUnits="userSpaceOnUse">
<stop stop-color="#808080" stop-opacity="0.25"/>
<stop offset="0.54" stop-color="#808080" stop-opacity="0.12"/>
<stop offset="1" stop-color="#808080" stop-opacity="0.1"/>
</linearGradient>
<clipPath id="clip0">
<rect width="873" height="573" fill="white"/>
</clipPath>
</defs>
</svg>
