<svg width="45" height="45" viewBox="0 0 45 45" fill="none" xmlns="http://www.w3.org/2000/svg">
<g clip-path="url(#clip0)">
<path d="M12.5611 44.7871C11.6532 44.7871 10.7628 44.4324 10.0919 43.7626L1.53915 35.2278C0.546699 34.2374 0 32.92 0 31.5179C0 30.1159 0.546699 28.7981 1.53915 27.8077L10.0919 19.273C11.097 18.2696 12.5945 17.9732 13.9069 18.5176C15.2175 19.0612 16.0644 20.3285 16.0644 21.7459V29.7714C29.9293 29.7714 41.2094 18.4913 41.2094 4.62635V1.83283C41.2094 0.86835 41.9911 0.0866699 42.9556 0.0866699C43.9201 0.0866699 44.7018 0.86835 44.7018 1.83283V4.62635C44.7018 12.2757 41.723 19.4674 36.314 24.8764C30.905 30.285 23.7137 33.2641 16.0644 33.2641C14.1385 33.2641 12.5717 31.6973 12.5717 29.7718V21.7459C12.5717 21.7456 12.5717 21.7452 12.5717 21.7449C12.569 21.7435 12.5655 21.7422 12.5625 21.7411C12.5615 21.7425 12.5601 21.7435 12.5587 21.7449L4.00594 30.2799C3.67479 30.6104 3.49232 31.05 3.49232 31.5179C3.49232 31.9859 3.67479 32.4255 4.00594 32.7559L12.5587 41.2906L12.5625 41.2944C12.5655 41.2934 12.569 41.2924 12.5717 41.291C12.5717 41.2906 12.5717 41.2903 12.5717 41.2896V39.3757C12.5717 38.4112 13.3537 37.6295 14.3182 37.6295C15.2823 37.6295 16.0644 38.4112 16.0644 39.3757V41.2896C16.0644 42.707 15.2175 43.9743 13.9069 44.518C13.4707 44.6991 13.0137 44.7871 12.5611 44.7871Z" fill="#4D8F6A"/>
</g>
<defs>
<clipPath id="clip0">
<rect width="44.7018" height="44.7018" fill="white"/>
</clipPath>
</defs>
</svg>
