<svg width="45" height="45" viewBox="0 0 45 45" fill="none" xmlns="http://www.w3.org/2000/svg">
<g clip-path="url(#clip0)">
<path d="M32.1405 44.7871C33.0484 44.7871 33.9389 44.4324 34.6097 43.7626L43.1625 35.2278C44.155 34.2374 44.7017 32.92 44.7017 31.5179C44.7017 30.1159 44.155 28.7981 43.1625 27.8077L34.6097 19.273C33.6047 18.2696 32.1071 17.9732 30.7948 18.5176C29.4841 19.0612 28.6373 20.3285 28.6373 21.7459V29.7714C14.7724 29.7714 3.49223 18.4913 3.49223 4.62635V1.83283C3.49223 0.86835 2.71055 0.0866699 1.74607 0.0866699C0.781586 0.0866699 -9.53674e-05 0.86835 -9.53674e-05 1.83283V4.62635C-9.53674e-05 12.2757 2.97861 19.4674 8.38762 24.8764C13.7966 30.285 20.988 33.2641 28.6373 33.2641C30.5632 33.2641 32.13 31.6973 32.13 29.7718V21.7459C32.13 21.7456 32.13 21.7452 32.13 21.7449C32.1327 21.7435 32.1361 21.7422 32.1392 21.7411C32.1402 21.7425 32.1416 21.7435 32.1429 21.7449L40.6957 30.2799C41.0269 30.6104 41.2093 31.05 41.2093 31.5179C41.2093 31.9859 41.0269 32.4255 40.6957 32.7559L32.1429 41.2906L32.1392 41.2944C32.1361 41.2934 32.1327 41.2924 32.13 41.291C32.13 41.2906 32.13 41.2903 32.13 41.2896V39.3757C32.13 38.4112 31.348 37.6295 30.3835 37.6295C29.4193 37.6295 28.6373 38.4112 28.6373 39.3757V41.2896C28.6373 42.707 29.4841 43.9743 30.7948 44.518C31.231 44.6991 31.688 44.7871 32.1405 44.7871Z" fill="#4D8F6A"/>
</g>
<defs>
<clipPath id="clip0">
<rect width="44.7018" height="44.7018" fill="white" transform="matrix(-1 0 0 1 44.7017 0)"/>
</clipPath>
</defs>
</svg>
