<svg width="1022" height="783" viewBox="0 0 1022 783" fill="none" xmlns="http://www.w3.org/2000/svg">
<g clip-path="url(#clip0)">
<path d="M867 782.954C952.328 782.954 1021.5 771.537 1021.5 757.454C1021.5 743.371 952.328 731.954 867 731.954C781.672 731.954 712.5 743.371 712.5 757.454C712.5 771.537 781.672 782.954 867 782.954Z" fill="#4D8F6A"/>
<path d="M997.677 663.57C997.374 718.354 964.699 737.3 924.527 737.078C923.594 737.073 922.665 737.057 921.741 737.031C919.88 736.981 918.038 736.885 916.216 736.746C879.973 733.978 851.913 713.714 852.195 662.764C852.487 610.038 920.244 543.871 925.325 538.979C925.329 538.979 925.329 538.979 925.334 538.975C925.527 538.789 925.626 538.695 925.626 538.695C925.626 538.695 997.981 608.79 997.677 663.57Z" fill="#4D8F6A"/>
<path d="M921.926 728.683L948.736 691.658L921.837 732.763L921.742 737.031C919.88 736.981 918.038 736.885 916.216 736.746L919.386 681.955L919.366 681.531L919.415 681.451L919.716 676.273L893.207 634.77L919.818 672.394L919.879 673.493L922.274 632.096L899.62 589.234L922.595 624.82L925.325 538.979L925.336 538.694L925.334 538.975L924.584 606.678L947.515 579.963L924.454 612.508L923.646 649.583L945.125 614.118L923.531 655.034L923.082 675.649L954.242 626.29L922.921 682.841L921.926 728.683Z" fill="#4D8F6A"/>
<path d="M852.454 247.016C879.347 247.016 901.149 225.214 901.149 198.321C901.149 171.427 879.347 149.625 852.454 149.625C825.56 149.625 803.759 171.427 803.759 198.321C803.759 225.214 825.56 247.016 852.454 247.016Z" fill="#2F2E41"/>
<path d="M845.206 248.4C863.469 248.4 878.274 233.595 878.274 215.332C878.274 197.069 863.469 182.264 845.206 182.264C826.944 182.264 812.139 197.069 812.139 215.332C812.139 233.595 826.944 248.4 845.206 248.4Z" fill="#FFB8B8"/>
<path d="M825.545 233.206C825.545 233.206 839.844 266.274 832.694 269.849C825.545 273.424 821.97 289.511 821.97 289.511L840.738 328.835L866.656 344.922H881.849C881.849 344.922 897.042 276.999 891.68 268.955C886.318 260.912 866.656 256.443 866.656 256.443C866.656 256.443 862.187 245.719 863.975 235.888C865.762 226.057 825.545 233.206 825.545 233.206Z" fill="#FFB8B8"/>
<path d="M804.094 327.047L780.858 308.279C780.858 308.279 738.853 278.786 744.215 300.236C749.577 321.685 773.708 323.472 773.708 323.472L813.925 355.646L804.094 327.047Z" fill="#FFB8B8"/>
<path d="M802.308 425.357C802.308 425.357 791.583 470.043 802.308 530.816L806.776 554.946C806.776 554.946 806.776 573.714 811.245 580.864C811.245 580.864 822.863 687.217 829.119 687.217C835.375 687.217 855.037 683.642 856.825 680.961C858.612 678.28 821.969 420.888 821.969 420.888L802.308 425.357Z" fill="#2F2E41"/>
<path opacity="0.1" d="M802.308 425.357C802.308 425.357 791.583 470.043 802.308 530.816L806.776 554.946C806.776 554.946 806.776 573.714 811.245 580.864C811.245 580.864 822.863 687.217 829.119 687.217C835.375 687.217 855.037 683.642 856.825 680.961C858.612 678.28 821.969 420.888 821.969 420.888L802.308 425.357Z" fill="black"/>
<path d="M831.659 680.079L817.814 731.385C817.814 731.385 790.125 747.673 807.227 750.93C824.329 754.188 841.431 747.673 841.431 747.673L849.575 724.056L857.719 719.169V744.415H860.162L865.863 711.026C865.863 711.026 865.048 693.924 860.162 692.295C855.276 690.666 852.832 681.708 852.832 681.708L831.659 680.079Z" fill="#2F2E41"/>
<path opacity="0.1" d="M831.659 680.079L817.814 731.385C817.814 731.385 790.125 747.673 807.227 750.93C824.329 754.188 841.431 747.673 841.431 747.673L849.575 724.056L857.719 719.169V744.415H860.162L865.863 711.026C865.863 711.026 865.048 693.924 860.162 692.295C855.276 690.666 852.832 681.708 852.832 681.708L831.659 680.079Z" fill="black"/>
<path d="M798.732 423.569C798.732 423.569 805.882 450.381 808.563 454.849C808.563 454.849 812.138 530.816 823.757 556.734L836.269 589.801C836.269 589.801 856.824 687.217 851.462 697.942C851.462 697.942 879.167 704.198 880.955 697.942C880.955 697.942 880.061 646.106 882.742 638.956C885.423 631.806 889.892 592.482 868.443 563.883V477.192C868.443 477.192 902.404 448.593 882.742 411.951C863.08 375.308 798.732 423.569 798.732 423.569Z" fill="#2F2E41"/>
<path d="M854.144 692.579L838.951 748.884C838.951 748.884 808.564 766.758 827.332 770.333C846.1 773.908 864.868 766.758 864.868 766.758L873.806 740.84L882.743 735.478V763.183H885.424L891.68 726.541C891.68 726.541 890.786 707.773 885.424 705.985C880.062 704.198 877.381 694.367 877.381 694.367L854.144 692.579Z" fill="#2F2E41"/>
<path d="M834.638 263.174C834.638 263.174 812.138 276.105 812.138 276.999C812.138 277.892 814.819 292.192 814.819 292.192C814.819 292.192 787.114 319.897 805.882 344.028C805.882 344.028 812.138 348.496 812.138 362.796V377.096C812.138 377.096 759.409 410.163 772.814 420.888C786.22 431.613 800.52 429.825 804.988 436.081C809.457 442.337 835.375 430.719 840.737 428.931C846.1 427.144 846.993 425.357 851.462 431.613C855.931 437.869 880.955 427.144 880.955 427.144C880.955 427.144 897.042 422.675 900.617 422.675C902.824 422.649 904.984 422.032 906.873 420.888L868.443 381.564L887.658 332.856C887.658 332.856 830.906 297.554 830.906 287.723C830.906 277.893 834.638 263.174 834.638 263.174Z" fill="#4D8F6A"/>
<path d="M869.337 265.38C869.337 265.38 857.718 281.467 866.656 303.81C875.593 326.153 889.892 352.071 889.892 352.071L867.549 359.221H846.994C846.994 359.221 804.095 352.071 808.564 368.158C813.032 384.245 843.419 377.096 843.419 377.096H861.293C861.293 377.096 901.511 381.564 906.873 374.414C906.873 374.414 921.173 373.521 914.917 344.922C908.661 316.323 890.395 267.367 890.395 267.367L869.337 265.38Z" fill="#FFB8B8"/>
<path d="M838.776 200.509C856 200.509 869.962 193.405 869.962 184.642C869.962 175.879 856 168.775 838.776 168.775C821.552 168.775 807.589 175.879 807.589 184.642C807.589 193.405 821.552 200.509 838.776 200.509Z" fill="#2F2E41"/>
<path d="M877.827 222.929C880.295 222.929 882.296 218.527 882.296 213.098C882.296 207.668 880.295 203.267 877.827 203.267C875.359 203.267 873.358 207.668 873.358 213.098C873.358 218.527 875.359 222.929 877.827 222.929Z" fill="#FFB8B8"/>
<path d="M874.252 181.817C889.06 181.817 901.064 169.813 901.064 155.006C901.064 140.198 889.06 128.194 874.252 128.194C859.444 128.194 847.44 140.198 847.44 155.006C847.44 169.813 859.444 181.817 874.252 181.817Z" fill="#2F2E41"/>
<path opacity="0.3" d="M303 276.954C363.751 276.954 413 227.705 413 166.954C413 106.203 363.751 56.9541 303 56.9541C242.249 56.9541 193 106.203 193 166.954C193 227.705 242.249 276.954 303 276.954Z" fill="#4D8F6A"/>
<path opacity="0.3" d="M90 537.954C125.899 537.954 155 508.853 155 472.954C155 437.056 125.899 407.954 90 407.954C54.1015 407.954 25 437.056 25 472.954C25 508.853 54.1015 537.954 90 537.954Z" fill="#4D8F6A"/>
<path opacity="0.3" d="M507 605.954C580.454 605.954 640 546.408 640 472.954C640 399.5 580.454 339.954 507 339.954C433.546 339.954 374 399.5 374 472.954C374 546.408 433.546 605.954 507 605.954Z" fill="#4D8F6A"/>
<path d="M66.1299 258.037L64.1738 257.62C64.5928 255.655 65.0295 253.696 65.4839 251.745L67.4321 252.198C66.9805 254.138 66.5464 256.084 66.1299 258.037Z" fill="#4D8F6A"/>
<path d="M695.887 241.513C694.861 237.703 693.748 233.854 692.58 230.076L694.49 229.485C695.666 233.287 696.786 237.159 697.818 240.994L695.887 241.513ZM70.3496 240.639L68.4199 240.114C69.4668 236.268 70.6016 232.385 71.793 228.573L73.7021 229.17C72.5176 232.958 71.3901 236.817 70.3496 240.639V240.639ZM688.858 218.789C687.549 215.054 686.157 211.304 684.72 207.642L686.581 206.912C688.027 210.596 689.429 214.37 690.745 218.127L688.858 218.789ZM77.4775 217.836L75.5918 217.169C76.9238 213.407 78.3433 209.621 79.811 205.917L81.6704 206.653C80.2114 210.335 78.8008 214.098 77.4775 217.836ZM680.17 196.653C678.596 193.039 676.93 189.399 675.219 185.837L677.021 184.971C678.743 188.556 680.42 192.217 682.004 195.854L680.17 196.653ZM86.2739 195.636L84.4429 194.831C86.0483 191.181 87.7432 187.513 89.4814 183.927L91.2812 184.799C89.5537 188.363 87.8691 192.009 86.2739 195.636ZM669.868 175.207C668.024 171.707 666.094 168.198 664.13 164.78L665.864 163.784C667.84 167.223 669.783 170.753 671.638 174.275L669.868 175.207ZM96.686 174.158L94.9194 173.22C96.791 169.698 98.7519 166.165 100.748 162.722L102.478 163.725C100.495 167.147 98.5454 170.658 96.686 174.158ZM658.011 154.568C655.92 151.218 653.735 147.86 651.52 144.586L653.177 143.465C655.406 146.759 657.603 150.139 659.708 153.509L658.011 154.568ZM108.649 153.514L106.957 152.449C109.079 149.08 111.293 145.703 113.539 142.412L115.191 143.539C112.959 146.811 110.758 150.166 108.649 153.514H108.649ZM644.664 134.847C642.343 131.671 639.918 128.48 637.457 125.364L639.027 124.124C641.503 127.261 643.942 130.471 646.279 133.666L644.664 134.847ZM122.095 133.813L120.485 132.625C122.852 129.417 125.308 126.213 127.784 123.102L129.349 124.347C126.888 127.439 124.447 130.624 122.095 133.813H122.095ZM629.904 116.149C627.344 113.138 624.691 110.132 622.021 107.215L623.495 105.864C626.183 108.799 628.852 111.823 631.428 114.853L629.904 116.149ZM136.944 115.155L135.425 113.853C138.014 110.834 140.697 107.819 143.399 104.892L144.869 106.248C142.183 109.158 139.517 112.154 136.944 115.155ZM613.812 98.5737C611.032 95.7519 608.166 92.9472 605.293 90.2373L606.666 88.7822C609.556 91.5092 612.439 94.331 615.236 97.1704L613.812 98.5737ZM153.113 97.6386L151.694 96.2295C154.502 93.4013 157.397 90.5913 160.298 87.8774L161.665 89.3379C158.781 92.0351 155.904 94.8281 153.113 97.6386ZM596.472 82.2168C593.496 79.6079 590.432 77.019 587.364 74.5224L588.626 72.9716C591.713 75.4834 594.796 78.0879 597.79 80.7129L596.472 82.2168ZM170.513 81.3554L169.201 79.8462C172.206 77.2334 175.297 74.643 178.39 72.1469L179.646 73.7036C176.573 76.184 173.5 78.7588 170.513 81.3554ZM577.978 67.166C574.825 64.7861 571.578 62.4282 568.328 60.1577L569.473 58.5181C572.744 60.8027 576.011 63.1753 579.183 65.5694L577.978 67.166ZM189.051 66.392L187.853 64.7905C191.042 62.4037 194.314 60.0473 197.578 57.7866L198.716 59.4311C195.473 61.6772 192.221 64.0195 189.051 66.392ZM558.426 53.5072C555.1 51.3612 551.687 49.247 548.283 47.2245L549.305 45.5048C552.729 47.5405 556.163 49.6674 559.51 51.8266L558.426 53.5072ZM208.628 52.8305L207.55 51.146C210.901 49.002 214.335 46.8926 217.758 44.876L218.773 46.5996C215.372 48.6035 211.958 50.7002 208.628 52.8305V52.8305ZM537.913 41.3188C534.445 39.4262 530.885 37.5688 527.332 35.7983L528.225 34.0083C531.799 35.79 535.382 37.6587 538.871 39.563L537.913 41.3188ZM229.139 40.7466L228.188 38.9868C231.684 37.0971 235.263 35.2465 238.824 33.4873L239.71 35.2803C236.17 37.0288 232.613 38.8681 229.139 40.7466ZM516.551 30.6709C512.95 29.039 509.262 27.4502 505.587 25.9472L506.344 24.0957C510.042 25.6079 513.754 27.2075 517.377 28.8496L516.551 30.6709ZM250.474 30.2094L249.655 28.3852C253.274 26.7612 256.978 25.1802 260.663 23.687L261.414 25.5405C257.751 27.0249 254.07 28.5957 250.474 30.2094ZM494.451 21.6318C490.725 20.2671 486.926 18.9551 483.16 17.7319L483.778 15.8296C487.567 17.0606 491.389 18.3808 495.139 19.7539L494.451 21.6318ZM272.516 21.2793L271.834 19.3994C275.568 18.0444 279.376 16.7427 283.152 15.5293L283.764 17.4336C280.012 18.6391 276.228 19.9331 272.516 21.2793ZM471.729 14.2534C467.92 13.1714 464.043 12.1474 460.206 11.209L460.68 9.26657C464.542 10.2104 468.443 11.2412 472.275 12.3296L471.729 14.2534ZM295.177 13.998L294.636 12.0722C298.463 10.9975 302.367 9.97848 306.239 9.04343L306.709 10.9878C302.86 11.917 298.98 12.9297 295.177 13.998ZM448.578 8.59372C444.705 7.79782 440.763 7.06345 436.861 6.41061L437.191 4.43796C441.117 5.0947 445.083 5.83396 448.98 6.63473L448.578 8.59372ZM318.343 8.40572L317.947 6.44572C321.851 5.65519 325.819 4.92765 329.742 4.28312L330.066 6.25676C326.168 6.89694 322.224 7.62009 318.343 8.40573V8.40572ZM425.072 4.66012C421.143 4.15084 417.157 3.70894 413.227 3.34517L413.411 1.35396C417.366 1.71969 421.375 2.16451 425.329 2.67672L425.072 4.66012ZM341.86 4.54146L341.609 2.55709C345.55 2.05758 349.561 1.62398 353.53 1.26803L353.709 3.26021C349.764 3.61374 345.777 4.04489 341.86 4.54147V4.54146ZM401.341 2.46431C397.399 2.2441 393.393 2.09371 389.431 2.01705L389.47 0.0170517C393.455 0.0946917 397.487 0.246049 401.452 0.467239L401.341 2.46431ZM365.598 2.41302L365.492 0.415939C369.463 0.205499 373.496 0.065849 377.478 -6.10352e-05L377.511 1.99994C373.553 2.06491 369.545 2.20407 365.598 2.41302Z" fill="#4D8F6A"/>
<path d="M700.104 259.145C699.694 257.191 699.267 255.244 698.823 253.303L700.772 252.855C701.221 254.809 701.65 256.768 702.062 258.735L700.104 259.145Z" fill="#4D8F6A"/>
<path d="M702.802 389.546L700.839 389.158C701.225 387.205 701.593 385.246 701.944 383.28L703.913 383.63C703.561 385.609 703.19 387.581 702.802 389.546Z" fill="#4D8F6A"/>
<path d="M383.001 651.954C380.827 651.954 378.659 651.933 376.495 651.891L376.534 649.891C380.488 649.968 384.469 649.973 388.427 649.909L388.459 651.909C386.643 651.938 384.824 651.953 383.001 651.954ZM400.416 651.498L400.311 649.5C404.267 649.292 408.257 649.009 412.171 648.659L412.349 650.651C408.411 651.003 404.396 651.288 400.416 651.498ZM364.541 651.44C360.572 651.219 356.558 650.922 352.612 650.558L352.796 648.565C356.718 648.928 360.707 649.224 364.653 649.444L364.541 651.44ZM424.243 649.371L423.992 647.387C427.928 646.889 431.887 646.314 435.758 645.68L436.081 647.654C432.186 648.292 428.204 648.869 424.243 649.371V649.371ZM340.722 649.238C336.77 648.726 332.789 648.136 328.888 647.483L329.218 645.511C333.094 646.158 337.051 646.745 340.978 647.254L340.722 649.238ZM447.85 645.505L447.455 643.544C451.335 642.761 455.241 641.896 459.063 640.977L459.531 642.922C455.686 643.847 451.755 644.716 447.85 645.505ZM317.126 645.295C313.225 644.494 309.297 643.612 305.454 642.674L305.928 640.73C309.748 641.663 313.651 642.54 317.529 643.336L317.126 645.295ZM471.11 639.908L470.571 637.982C474.364 636.92 478.196 635.77 481.958 634.564L482.569 636.469C478.783 637.683 474.927 638.84 471.11 639.908V639.908ZM293.885 639.624C290.062 638.54 286.2 637.367 282.407 636.138L283.023 634.235C286.793 635.457 290.631 636.623 294.431 637.7L293.885 639.624ZM493.863 632.62L493.182 630.739C496.878 629.402 500.605 627.977 504.261 626.5L505.01 628.354C501.332 629.84 497.581 631.275 493.863 632.62L493.863 632.62ZM271.069 632.23C267.331 630.864 263.569 629.409 259.887 627.905L260.643 626.054C264.302 627.548 268.041 628.994 271.756 630.352L271.069 632.23ZM515.994 623.682L515.177 621.855C518.777 620.245 522.391 618.548 525.92 616.81L526.803 618.604C523.252 620.353 519.616 622.061 515.994 623.682L515.994 623.682ZM248.875 623.172C245.251 621.533 241.608 619.806 238.048 618.036L238.939 616.245C242.477 618.004 246.097 619.722 249.699 621.35L248.875 623.172ZM537.422 613.131L536.473 611.371C539.95 609.498 543.431 607.539 546.821 605.548L547.834 607.272C544.422 609.275 540.919 611.247 537.422 613.131H537.422ZM227.42 612.504C223.926 610.604 220.422 608.612 217.005 606.587L218.025 604.866C221.421 606.88 224.904 608.858 228.376 610.747L227.42 612.504ZM558.028 601.032L556.953 599.347C560.264 597.235 563.593 595.025 566.849 592.777L567.986 594.424C564.71 596.685 561.359 598.908 558.028 601.032H558.028ZM206.818 600.292C203.478 598.143 200.131 595.901 196.869 593.629L198.012 591.988C201.254 594.246 204.581 596.474 207.9 598.61L206.818 600.292ZM577.698 587.453L576.502 585.85C579.658 583.497 582.819 581.049 585.897 578.573L587.151 580.132C584.053 582.623 580.873 585.086 577.698 587.453L577.698 587.453ZM187.173 586.607C184.006 584.225 180.832 581.745 177.742 579.237L179.002 577.685C182.074 580.177 185.227 582.641 188.375 585.01L187.173 586.607ZM596.33 572.468L595.022 570.956C598.002 568.374 600.977 565.701 603.864 563.011L605.227 564.474C602.324 567.181 599.331 569.87 596.331 572.468L596.33 572.468ZM168.587 571.526C165.593 568.91 162.61 566.206 159.722 563.49L161.092 562.033C163.963 564.732 166.927 567.42 169.904 570.021L168.587 571.526ZM613.83 556.159L612.414 554.747C615.208 551.944 617.981 549.061 620.655 546.177L622.122 547.536C619.431 550.438 616.641 553.34 613.83 556.159ZM151.157 555.137C148.371 552.318 145.594 549.405 142.903 546.479L144.376 545.125C147.05 548.034 149.81 550.929 152.58 553.73L151.157 555.137ZM630.095 538.613L628.58 537.309C631.16 534.312 633.716 531.233 636.177 528.155L637.74 529.405C635.263 532.501 632.691 535.6 630.095 538.613ZM134.973 537.525C132.398 534.509 129.842 531.402 127.375 528.291L128.942 527.049C131.394 530.141 133.935 533.229 136.494 536.227L134.973 537.525ZM645.045 519.921L643.438 518.729C645.798 515.545 648.124 512.286 650.348 509.044L651.997 510.175C649.759 513.438 647.42 516.716 645.045 519.921ZM120.121 518.786C117.771 515.589 115.449 512.305 113.22 509.026L114.874 507.901C117.089 511.16 119.397 514.424 121.732 517.603L120.121 518.786ZM658.589 500.178L656.9 499.107C659.01 495.778 661.09 492.356 663.083 488.938L664.812 489.946C662.806 493.386 660.712 496.828 658.589 500.178ZM106.682 499.021C104.575 495.664 102.5 492.221 100.517 488.787L102.248 487.787C104.22 491.199 106.282 494.621 108.376 497.959L106.682 499.021ZM670.655 479.489L668.891 478.546C670.761 475.049 672.584 471.482 674.312 467.945L676.109 468.822C674.372 472.382 672.537 475.971 670.655 479.489ZM94.7315 478.334C92.8755 474.83 91.0601 471.245 89.336 467.68L91.1368 466.809C92.8501 470.353 94.6543 473.915 96.4991 477.398L94.7315 478.334ZM681.167 457.961L679.339 457.15C680.939 453.542 682.496 449.848 683.965 446.172L685.823 446.914C684.343 450.613 682.778 454.33 681.167 457.961V457.961ZM84.3369 456.834C82.7427 453.202 81.1968 449.495 79.7417 445.817L81.6016 445.081C83.0474 448.737 84.584 452.421 86.168 456.03L84.3369 456.834ZM690.066 435.701L688.183 435.027C689.516 431.298 690.795 427.497 691.987 423.731L693.893 424.335C692.696 428.123 691.408 431.947 690.066 435.701ZM75.5581 434.641C74.2349 430.897 72.9634 427.078 71.7798 423.288L73.689 422.692C74.8652 426.458 76.1284 430.254 77.4439 433.975L75.5581 434.641ZM697.295 412.832L695.368 412.299C696.415 408.508 697.407 404.633 698.317 400.781L700.264 401.242C699.347 405.117 698.349 409.017 697.295 412.832ZM68.4238 411.806C67.3828 407.981 66.3984 404.083 65.498 400.22L67.4463 399.767C68.3408 403.606 69.3188 407.48 70.3535 411.28L68.4238 411.806Z" fill="#4D8F6A"/>
<path d="M62.957 388.307C62.5762 386.34 62.2129 384.367 61.8672 382.387L63.8379 382.043C64.1807 384.01 64.5417 385.971 64.9209 387.926L62.957 388.307Z" fill="#4D8F6A"/>
<path d="M546.265 390.46L544.405 389.725C545.131 387.89 545.836 386.012 546.502 384.141L548.387 384.812C547.713 386.704 546.999 388.604 546.265 390.46Z" fill="#4D8F6A"/>
<path d="M383 501.454C380.605 501.454 378.187 501.405 375.815 501.31L375.896 499.312C379.832 499.471 383.855 499.498 387.804 499.389L387.858 501.389C386.244 501.433 384.625 501.454 383 501.454ZM399.878 500.652L399.689 498.662C403.627 498.287 407.6 497.77 411.496 497.126L411.822 499.099C407.881 499.751 403.862 500.273 399.878 500.652ZM363.805 500.416C359.827 499.983 355.816 499.407 351.884 498.703L352.236 496.734C356.124 497.43 360.088 498 364.021 498.428L363.805 500.416ZM423.631 496.727L423.169 494.781C427.02 493.867 430.883 492.81 434.651 491.636L435.246 493.546C431.434 494.732 427.526 495.803 423.631 496.727V496.727ZM340.107 496.174C336.224 495.198 332.329 494.075 328.53 492.837L329.15 490.935C332.905 492.159 336.755 493.27 340.595 494.234L340.107 496.174ZM446.616 489.568L445.89 487.705C449.571 486.273 453.252 484.691 456.831 483.007L457.683 484.815C454.062 486.521 450.339 488.12 446.616 489.568V489.568ZM317.212 488.706C313.502 487.205 309.799 485.556 306.207 483.804L307.084 482.007C310.635 483.738 314.295 485.368 317.962 486.853L317.212 488.706ZM468.396 479.312L467.422 477.566C470.877 475.637 474.306 473.565 477.615 471.409L478.707 473.085C475.36 475.266 471.892 477.361 468.396 479.312ZM295.565 478.157C292.099 476.161 288.658 474.02 285.338 471.792L286.453 470.132C289.735 472.334 293.136 474.451 296.564 476.425L295.565 478.157ZM488.568 466.166L487.363 464.57C490.524 462.185 493.639 459.664 496.621 457.078L497.931 458.59C494.915 461.205 491.765 463.754 488.568 466.166ZM275.571 464.741C272.404 462.287 269.288 459.695 266.308 457.039L267.639 455.547C270.584 458.172 273.666 460.733 276.796 463.161L275.571 464.741ZM506.755 450.393L505.345 448.975C508.15 446.185 510.893 443.264 513.498 440.293L515.001 441.611C512.367 444.616 509.592 447.57 506.755 450.393V450.393ZM257.593 448.727C254.796 445.87 252.061 442.88 249.464 439.838L250.986 438.539C253.553 441.547 256.257 444.504 259.021 447.328L257.593 448.727ZM522.629 432.289L521.04 431.076C523.436 427.935 525.755 424.668 527.934 421.365L529.604 422.467C527.4 425.808 525.054 429.112 522.629 432.289ZM241.961 430.415C239.577 427.201 237.275 423.865 235.12 420.501L236.805 419.423C238.935 422.748 241.21 426.046 243.568 429.224L241.961 430.415ZM535.886 412.19L534.146 411.206C536.09 407.766 537.941 404.212 539.646 400.644L541.451 401.506C539.726 405.115 537.854 408.71 535.886 412.19H535.886ZM228.976 410.144C227.052 406.632 225.229 403.013 223.557 399.388L225.373 398.55C227.026 402.134 228.829 405.711 230.729 409.183L228.976 410.144Z" fill="#4D8F6A"/>
<path d="M218.865 388.216C218.157 386.351 217.47 384.441 216.821 382.538L218.715 381.893C219.355 383.774 220.035 385.663 220.735 387.506L218.865 388.216Z" fill="#4D8F6A"/>
<path d="M221.955 261.279L220.1 260.533C220.849 258.669 221.638 256.799 222.446 254.974L224.275 255.784C223.477 257.588 222.696 259.437 221.955 261.279Z" fill="#4D8F6A"/>
<path d="M229.531 244.949L227.764 244.015C229.653 240.442 231.693 236.888 233.829 233.453L235.527 234.509C233.416 237.905 231.399 241.417 229.531 244.949ZM534.891 242.036C532.958 238.543 530.875 235.07 528.699 231.712L530.376 230.624C532.578 234.02 534.686 237.534 536.641 241.067L534.891 242.036ZM242.232 224.509L240.61 223.338C242.977 220.06 245.489 216.823 248.076 213.717L249.613 214.997C247.055 218.068 244.572 221.268 242.232 224.509ZM521.803 221.842C519.405 218.649 516.861 215.497 514.245 212.472L515.756 211.164C518.404 214.223 520.976 217.411 523.403 220.641L521.803 221.842ZM257.632 206.017L256.187 204.634C258.981 201.713 261.915 198.853 264.904 196.131L266.251 197.61C263.295 200.301 260.395 203.129 257.632 206.017ZM506.058 203.646C503.239 200.811 500.286 198.038 497.28 195.404L498.598 193.9C501.639 196.564 504.625 199.369 507.476 202.236L506.058 203.646ZM275.429 189.818L274.188 188.249C277.36 185.739 280.659 183.31 283.992 181.028L285.122 182.678C281.827 184.934 278.565 187.336 275.429 189.818ZM487.956 187.788C484.776 185.369 481.47 183.029 478.128 180.834L479.226 179.162C482.606 181.383 485.951 183.749 489.167 186.196L487.956 187.788ZM295.286 176.228L294.273 174.503C297.759 172.457 301.362 170.506 304.981 168.707L305.872 170.498C302.293 172.276 298.732 174.205 295.286 176.228ZM467.842 174.578C464.353 172.618 460.754 170.758 457.146 169.05L458.002 167.243C461.651 168.97 465.292 170.852 468.821 172.833L467.842 174.578ZM316.832 165.518L316.068 163.669C319.805 162.126 323.644 160.696 327.479 159.418L328.111 161.315C324.32 162.579 320.525 163.992 316.832 165.518ZM446.092 164.282C442.366 162.827 438.544 161.486 434.733 160.297L435.329 158.388C439.184 159.591 443.05 160.947 446.82 162.419L446.092 164.282ZM339.657 157.912L339.159 155.975C343.072 154.969 347.073 154.087 351.051 153.356L351.413 155.323C347.48 156.046 343.525 156.917 339.657 157.912ZM423.123 157.116C419.235 156.196 415.264 155.401 411.319 154.753L411.644 152.78C415.633 153.435 419.65 154.239 423.584 155.17L423.123 157.116ZM363.321 153.558L363.097 151.571C367.101 151.119 371.185 150.8 375.236 150.623L375.324 152.621C371.318 152.796 367.28 153.111 363.321 153.558ZM399.38 153.217C395.41 152.845 391.366 152.606 387.363 152.508L387.412 150.509C391.461 150.608 395.551 150.85 399.566 151.226L399.38 153.217Z" fill="#4D8F6A"/>
<path d="M542.805 258.277C542.03 256.45 541.215 254.616 540.382 252.826L542.194 251.982C543.037 253.792 543.862 255.648 544.646 257.496L542.805 258.277Z" fill="#4D8F6A"/>
<path d="M568.621 325.718C565.994 325.707 563.445 326.609 561.409 328.268C559.372 329.928 557.975 332.243 557.455 334.818C556.935 337.393 557.325 340.068 558.557 342.388C559.79 344.707 561.789 346.528 564.214 347.538C566.639 348.548 569.34 348.685 571.854 347.926C574.369 347.167 576.543 345.559 578.004 343.376C579.466 341.194 580.125 338.571 579.869 335.957C579.612 333.343 578.457 330.898 576.6 329.041C575.557 327.985 574.314 327.148 572.944 326.577C571.574 326.007 570.105 325.714 568.621 325.718Z" fill="#4D8F6A"/>
<path d="M523.379 325.718C520.752 325.707 518.203 326.609 516.166 328.268C514.13 329.928 512.733 332.243 512.213 334.818C511.693 337.393 512.082 340.068 513.315 342.388C514.548 344.707 516.547 346.528 518.972 347.538C521.397 348.548 524.097 348.685 526.612 347.926C529.127 347.167 531.301 345.559 532.762 343.376C534.224 341.194 534.883 338.571 534.626 335.957C534.37 333.343 533.215 330.898 531.357 329.041C530.312 327.988 529.069 327.152 527.7 326.582C526.331 326.011 524.862 325.718 523.379 325.718Z" fill="#4D8F6A"/>
<path d="M546 262.954C534.727 262.954 523.706 266.297 514.333 272.56C504.959 278.824 497.653 287.726 493.339 298.141C489.025 308.557 487.896 320.017 490.095 331.074C492.295 342.131 497.723 352.288 505.695 360.259C513.667 368.231 523.823 373.66 534.88 375.859C545.937 378.058 557.398 376.929 567.813 372.615C578.228 368.301 587.131 360.995 593.394 351.622C599.657 342.248 603 331.228 603 319.954C603 304.837 596.995 290.339 586.305 279.649C575.616 268.959 561.117 262.954 546 262.954ZM557.077 286.723C557.802 286.716 558.52 286.854 559.191 287.128C559.862 287.402 560.472 287.807 560.984 288.32C561.497 288.832 561.902 289.442 562.176 290.113C562.45 290.784 562.588 291.502 562.581 292.227C562.588 293.326 562.268 294.401 561.662 295.317C561.056 296.233 560.191 296.949 559.178 297.372C558.164 297.796 557.048 297.908 555.97 297.696C554.893 297.483 553.903 296.955 553.126 296.178C552.349 295.401 551.821 294.411 551.609 293.334C551.396 292.256 551.509 291.14 551.932 290.126C552.356 289.113 553.071 288.248 553.987 287.642C554.903 287.036 555.979 286.716 557.077 286.723ZM523.379 353.185C520.183 353.187 517.058 352.24 514.399 350.466C511.741 348.691 509.669 346.168 508.445 343.215C507.221 340.262 506.9 337.013 507.524 333.878C508.147 330.743 509.686 327.864 511.946 325.604C514.206 323.344 517.085 321.805 520.22 321.181C523.355 320.558 526.605 320.879 529.557 322.103C532.51 323.327 535.033 325.399 536.808 328.057C538.582 330.716 539.529 333.841 539.527 337.037C539.513 341.315 537.807 345.414 534.781 348.439C531.756 351.465 527.657 353.171 523.379 353.185H523.379ZM548.769 320.993V336.569C548.769 337.304 548.478 338.008 547.958 338.528C547.439 339.047 546.735 339.339 546 339.339C545.266 339.339 544.561 339.047 544.042 338.528C543.523 338.008 543.231 337.304 543.231 336.569V325.164C543.231 322.896 540.462 322.394 532.587 317.86C531.565 317.254 529.385 316.181 529.385 313.169C529.402 311.718 529.979 310.329 530.994 309.293L543.404 297.333C543.993 296.737 544.712 296.286 545.504 296.015C546.297 295.744 547.142 295.66 547.972 295.771C548.802 295.881 549.596 296.183 550.29 296.653C550.984 297.122 551.559 297.746 551.971 298.475L557.077 308.877H565.385C566.118 308.879 566.821 309.171 567.34 309.69C567.858 310.209 568.149 310.913 568.149 311.646C568.149 312.38 567.858 313.084 567.34 313.603C566.821 314.122 566.118 314.414 565.385 314.416H555.45C553.598 314.416 552.11 310.435 548.873 305.502L540.41 314.416C543.508 316.839 548.769 318.708 548.769 320.993H548.769ZM568.621 353.168C565.427 353.168 562.305 352.22 559.65 350.446C556.994 348.672 554.925 346.15 553.702 343.199C552.48 340.248 552.16 337.002 552.783 333.869C553.407 330.737 554.945 327.859 557.203 325.601C559.461 323.343 562.339 321.805 565.471 321.182C568.603 320.559 571.85 320.878 574.801 322.101C577.752 323.323 580.274 325.393 582.048 328.048C583.822 330.704 584.769 333.826 584.769 337.019C584.756 341.298 583.05 345.398 580.025 348.423C576.999 351.449 572.9 353.154 568.621 353.168H568.621Z" fill="#4D8F6A"/>
<path d="M708 262.954C696.727 262.954 685.706 266.297 676.333 272.56C666.959 278.824 659.653 287.726 655.339 298.141C651.025 308.557 649.896 320.017 652.095 331.074C654.295 342.131 659.723 352.288 667.695 360.259C675.667 368.231 685.823 373.66 696.88 375.859C707.937 378.058 719.398 376.929 729.813 372.615C740.228 368.301 749.131 360.995 755.394 351.622C761.657 342.248 765 331.228 765 319.954C765 304.837 758.995 290.339 748.305 279.649C737.616 268.959 723.117 262.954 708 262.954ZM692.89 303.702C694.634 303.742 696.328 304.297 697.758 305.295C699.188 306.293 700.293 307.691 700.932 309.314C701.571 310.937 701.718 312.713 701.353 314.419C700.988 316.124 700.128 317.684 698.88 318.904C697.632 320.123 696.053 320.947 694.339 321.272C692.625 321.597 690.853 321.41 689.246 320.733C687.638 320.056 686.266 318.92 685.301 317.467C684.336 316.014 683.821 314.308 683.821 312.564C683.834 311.386 684.079 310.222 684.541 309.139C685.004 308.056 685.676 307.075 686.518 306.252C687.361 305.429 688.357 304.78 689.45 304.343C690.544 303.905 691.713 303.687 692.89 303.702ZM741.231 342.108H735.19V333.246H680.81V342.108H674.769V297.8H680.81V324.385H704.971V303.702H729.15C730.72 303.685 732.277 303.977 733.734 304.562C735.19 305.146 736.517 306.012 737.639 307.11C738.761 308.208 739.656 309.516 740.272 310.959C740.888 312.403 741.214 313.954 741.231 315.523V342.108Z" fill="#4D8F6A"/>
<path d="M77.0767 304.723H60.1151C59.9317 304.724 59.7559 304.797 59.6262 304.927C59.4965 305.056 59.4234 305.232 59.4229 305.416V329.646C59.4234 329.83 59.4965 330.006 59.6262 330.135C59.7559 330.265 59.9317 330.338 60.1151 330.339H77.0767C77.8104 330.337 78.5136 330.044 79.0324 329.525C79.5513 329.006 79.8437 328.303 79.8459 327.569V307.493C79.8437 306.759 79.5513 306.056 79.0324 305.537C78.5136 305.018 77.8104 304.725 77.0767 304.723Z" fill="#4D8F6A"/>
<path d="M73.2697 335.531C72.4785 335.595 71.7223 335.885 71.0903 336.365C70.4584 336.846 69.9771 337.497 69.7034 338.242C69.4296 338.987 69.3748 339.795 69.5455 340.57C69.7161 341.346 70.1051 342.056 70.6664 342.617C71.2277 343.178 71.9379 343.567 72.7131 343.738C73.4884 343.909 74.2963 343.854 75.0414 343.58C75.7865 343.306 76.4377 342.825 76.9181 342.193C77.3985 341.561 77.688 340.805 77.7524 340.014C77.8 339.413 77.7166 338.809 77.5082 338.244C77.2998 337.678 76.9711 337.165 76.545 336.738C76.1188 336.312 75.6053 335.984 75.0399 335.775C74.4744 335.567 73.8705 335.483 73.2697 335.531Z" fill="#4D8F6A"/>
<path d="M40.0558 335.531C39.2647 335.595 38.5084 335.885 37.8765 336.365C37.2445 336.846 36.7633 337.497 36.4895 338.242C36.2158 338.987 36.161 339.795 36.3316 340.57C36.5022 341.346 36.8912 342.056 37.4525 342.617C38.0138 343.178 38.724 343.567 39.4993 343.738C40.2745 343.909 41.0824 343.854 41.8275 343.58C42.5726 343.306 43.2238 342.825 43.7042 342.193C44.1846 341.561 44.4741 340.805 44.5385 340.014C44.5861 339.413 44.5028 338.809 44.2943 338.244C44.0859 337.678 43.7572 337.165 43.3311 336.738C42.905 336.312 42.3915 335.984 41.826 335.775C41.2606 335.567 40.6566 335.483 40.0558 335.531Z" fill="#4D8F6A"/>
<path d="M53.8851 304.723H36.9581C36.2154 304.726 35.5038 305.022 34.9786 305.548C34.4533 306.073 34.157 306.784 34.1543 307.527V327.535C34.157 328.278 34.4533 328.989 34.9786 329.514C35.5038 330.04 36.2154 330.336 36.9581 330.339H53.8851C54.0685 330.338 54.2443 330.265 54.374 330.135C54.5037 330.006 54.5768 329.83 54.5773 329.646V305.416C54.5768 305.232 54.5037 305.056 54.374 304.927C54.2443 304.797 54.0685 304.724 53.8851 304.723Z" fill="#4D8F6A"/>
<path d="M57 262.954C45.7265 262.954 34.7061 266.297 25.3325 272.56C15.9589 278.824 8.65309 287.726 4.33889 298.141C0.0246983 308.557 -1.10409 320.017 1.09526 331.074C3.29462 342.131 8.72335 352.288 16.6949 360.259C24.6665 368.231 34.823 373.66 45.8799 375.859C56.9368 378.058 68.3976 376.929 78.813 372.615C89.2284 368.301 98.1306 360.995 104.394 351.622C110.657 342.248 114 331.228 114 319.954C114 304.837 107.995 290.339 97.3051 279.649C86.6155 268.959 72.1174 262.954 57 262.954ZM84.6923 343.146C84.687 344.981 83.9558 346.739 82.6587 348.036C81.3615 349.333 79.6037 350.064 77.7692 350.069H36.2308C34.3963 350.064 32.6386 349.333 31.3414 348.036C30.0442 346.739 29.3131 344.981 29.3077 343.146V295.377C29.312 293.91 29.8969 292.503 30.9346 291.466C31.9724 290.428 33.3786 289.843 34.8462 289.839H79.1539C80.6215 289.843 82.0277 290.428 83.0654 291.466C84.1031 292.503 84.688 293.91 84.6923 295.377V343.146Z" fill="#4D8F6A"/>
<path d="M77.2505 294.685H36.7505C36.4182 294.662 36.0848 294.708 35.7709 294.819C35.457 294.93 35.1694 295.105 34.9259 295.332C34.6824 295.56 34.4883 295.834 34.3555 296.14C34.2228 296.445 34.1543 296.775 34.1543 297.108C34.1543 297.441 34.2228 297.771 34.3555 298.076C34.4883 298.381 34.6824 298.656 34.9259 298.884C35.1694 299.111 35.457 299.286 35.7709 299.397C36.0848 299.508 36.4182 299.554 36.7505 299.531H77.2505C77.5827 299.554 77.9162 299.508 78.23 299.397C78.5439 299.286 78.8315 299.111 79.075 298.884C79.3185 298.656 79.5126 298.381 79.6454 298.076C79.7781 297.771 79.8466 297.441 79.8466 297.108C79.8466 296.775 79.7781 296.445 79.6454 296.14C79.5126 295.834 79.3185 295.56 79.075 295.332C78.8315 295.105 78.5439 294.93 78.23 294.819C77.9162 294.708 77.5827 294.662 77.2505 294.685Z" fill="#4D8F6A"/>
<path d="M227.615 321.512C226.473 321.512 225.538 323.208 225.538 325.319C225.538 327.431 226.473 329.127 227.615 329.127C228.757 329.127 229.692 327.431 229.692 325.319C229.692 323.208 228.757 321.512 227.615 321.512Z" fill="#4D8F6A"/>
<path d="M212.385 321.512C211.242 321.512 210.308 323.208 210.308 325.319C210.308 327.431 211.242 329.127 212.385 329.127C213.527 329.127 214.462 327.431 214.462 325.319C214.462 323.208 213.527 321.512 212.385 321.512Z" fill="#4D8F6A"/>
<path d="M220 262.954C208.726 262.954 197.706 266.297 188.333 272.56C178.959 278.824 171.653 287.726 167.339 298.141C163.025 308.557 161.896 320.017 164.095 331.074C166.295 342.131 171.723 352.288 179.695 360.259C187.667 368.231 197.823 373.66 208.88 375.859C219.937 378.058 231.398 376.929 241.813 372.615C252.228 368.301 261.131 360.995 267.394 351.622C273.657 342.248 277 331.228 277 319.954C277 304.837 270.995 290.339 260.305 279.649C249.616 268.959 235.117 262.954 220 262.954ZM193.346 318.016L196.496 301.262C197.31 296.71 199.421 293.127 203.385 293.127H209.338L209.685 291.76C209.988 290.567 210.68 289.509 211.652 288.754C212.623 287.998 213.819 287.588 215.05 287.589H224.915C226.144 287.588 227.337 287.996 228.309 288.748C229.28 289.5 229.974 290.553 230.281 291.743L230.627 293.127H236.615C240.492 293.127 242.552 296.641 243.521 301.244V301.262L246.688 318.033C246.714 318.158 246.704 318.288 246.659 318.408C246.615 318.528 246.539 318.633 246.438 318.712C246.338 318.791 246.217 318.84 246.09 318.855C245.963 318.869 245.835 318.849 245.719 318.794L241.323 316.77C241.22 316.727 241.129 316.658 241.059 316.57C240.989 316.482 240.943 316.378 240.925 316.268L238.121 301.452C237.602 299.548 236.875 298.683 235.335 298.683H204.683C203.16 298.683 202.329 299.6 201.896 301.452L199.092 316.268C199.071 316.377 199.024 316.48 198.954 316.567C198.885 316.654 198.796 316.724 198.694 316.77L194.315 318.777C194.2 318.83 194.072 318.849 193.945 318.834C193.819 318.819 193.7 318.769 193.6 318.69C193.5 318.612 193.423 318.508 193.379 318.389C193.334 318.27 193.323 318.141 193.346 318.016ZM254.39 328.798L244.923 352.319C240.163 352.319 235.11 348.512 235.11 348.512C231.994 350.087 225.919 351.471 221.385 351.731C220.9 351.748 220.433 351.766 220 351.766C219.567 351.766 219.1 351.766 218.615 351.731C214.081 351.471 208.006 350.069 204.89 348.512C204.89 348.512 199.837 352.319 195.077 352.319L185.61 328.798C185.464 328.429 185.387 328.036 185.385 327.639C185.385 327.041 185.556 326.457 185.878 325.954C186.2 325.451 186.66 325.05 187.202 324.8L219.412 310.002C219.593 309.917 219.791 309.872 219.991 309.872C220.192 309.872 220.39 309.917 220.571 310.002L252.798 324.8C253.34 325.05 253.8 325.451 254.122 325.954C254.444 326.457 254.615 327.041 254.615 327.639C254.613 328.036 254.536 328.429 254.39 328.798Z" fill="#4D8F6A"/>
<path d="M383 262.954C371.726 262.954 360.706 266.297 351.333 272.56C341.959 278.824 334.653 287.726 330.339 298.141C326.025 308.557 324.896 320.017 327.095 331.074C329.295 342.131 334.723 352.288 342.695 360.259C350.667 368.231 360.823 373.66 371.88 375.859C382.937 378.058 394.398 376.929 404.813 372.615C415.228 368.301 424.131 360.995 430.394 351.622C436.657 342.248 440 331.228 440 319.954C440 304.837 433.995 290.339 423.305 279.649C412.616 268.959 398.117 262.954 383 262.954ZM409.258 325.51C408.67 325.51 406.714 325.493 406.143 325.458L394.91 325.164C394.852 325.162 394.794 325.176 394.742 325.203C394.691 325.23 394.647 325.27 394.616 325.319L377.758 350.519C377.508 350.913 377.163 351.237 376.755 351.461C376.346 351.684 375.887 351.801 375.421 351.8H371.32C370.35 351.8 370.021 350.831 370.368 349.931L379.039 325.198C379.059 325.147 379.066 325.092 379.06 325.037C379.054 324.982 379.035 324.93 379.004 324.884C378.974 324.838 378.933 324.8 378.884 324.774C378.836 324.747 378.782 324.732 378.727 324.731L357.664 324.264C357.445 324.259 357.228 324.305 357.03 324.398C356.831 324.491 356.657 324.629 356.521 324.8L349.996 332.71C349.735 333.038 349.404 333.303 349.026 333.486C348.649 333.669 348.235 333.764 347.816 333.766H344.925C344.815 333.767 344.705 333.741 344.606 333.691C344.508 333.641 344.422 333.568 344.358 333.478C344.293 333.388 344.251 333.284 344.236 333.174C344.22 333.065 344.231 332.953 344.268 332.848L347.712 320.958C347.971 320.296 347.971 319.56 347.712 318.898L344.268 307.008C344.231 306.903 344.22 306.792 344.236 306.682C344.251 306.572 344.293 306.468 344.358 306.378C344.422 306.288 344.508 306.215 344.606 306.165C344.705 306.115 344.815 306.089 344.925 306.091H347.833C348.253 306.088 348.668 306.182 349.046 306.365C349.424 306.548 349.755 306.815 350.014 307.146L356.418 314.935C356.552 315.108 356.726 315.247 356.925 315.34C357.123 315.433 357.341 315.478 357.56 315.471L378.745 315.16C378.8 315.16 378.855 315.146 378.903 315.119C378.952 315.093 378.994 315.055 379.025 315.009C379.055 314.963 379.074 314.91 379.08 314.855C379.085 314.8 379.077 314.744 379.056 314.693L370.385 289.977C370.039 289.077 370.368 288.108 371.337 288.108H375.439C375.904 288.109 376.362 288.227 376.77 288.45C377.179 288.674 377.524 288.997 377.775 289.389L394.616 314.606C394.646 314.656 394.689 314.698 394.741 314.725C394.793 314.753 394.851 314.765 394.91 314.762L406.143 314.468C406.696 314.433 408.67 314.416 409.258 314.416C416.943 314.416 421.771 316.908 421.771 319.971C421.771 323.035 416.925 325.51 409.258 325.51Z" fill="#4D8F6A"/>
<path d="M65.6719 512.09C63.2985 512.09 60.9784 511.386 59.005 510.067C57.0317 508.749 55.4936 506.875 54.5853 504.682C53.6771 502.489 53.4394 500.076 53.9025 497.749C54.3655 495.421 55.5084 493.283 57.1866 491.605C58.8648 489.926 61.003 488.783 63.3308 488.32C65.6586 487.857 68.0714 488.095 70.2641 489.003C72.4568 489.912 74.3309 491.45 75.6495 493.423C76.9681 495.396 77.6719 497.716 77.6719 500.09C77.6682 503.271 76.4028 506.321 74.1531 508.571C71.9035 510.821 68.8534 512.086 65.6719 512.09ZM65.6719 490.09C63.6941 490.09 61.7607 490.676 60.1162 491.775C58.4717 492.874 57.19 494.436 56.4331 496.263C55.6762 498.09 55.4782 500.101 55.864 502.041C56.2499 503.981 57.2023 505.762 58.6008 507.161C59.9993 508.559 61.7812 509.512 63.721 509.898C65.6608 510.284 67.6715 510.085 69.4987 509.329C71.326 508.572 72.8878 507.29 73.9866 505.646C75.0854 504.001 75.6719 502.068 75.6719 500.09C75.6689 497.439 74.6144 494.897 72.7397 493.022C70.865 491.147 68.3231 490.093 65.6719 490.09Z" fill="#F0F0F0"/>
<path d="M318.672 243.09C316.299 243.09 313.978 242.386 312.005 241.067C310.032 239.749 308.494 237.875 307.585 235.682C306.677 233.489 306.439 231.077 306.902 228.749C307.365 226.421 308.508 224.283 310.187 222.605C311.865 220.926 314.003 219.783 316.331 219.32C318.659 218.857 321.071 219.095 323.264 220.003C325.457 220.912 327.331 222.45 328.65 224.423C329.968 226.396 330.672 228.716 330.672 231.09C330.668 234.271 329.403 237.321 327.153 239.571C324.904 241.821 321.853 243.086 318.672 243.09ZM318.672 221.09C316.694 221.09 314.761 221.676 313.116 222.775C311.472 223.874 310.19 225.436 309.433 227.263C308.676 229.09 308.478 231.101 308.864 233.041C309.25 234.981 310.202 236.762 311.601 238.161C312.999 239.559 314.781 240.512 316.721 240.898C318.661 241.284 320.671 241.085 322.499 240.329C324.326 239.572 325.888 238.29 326.987 236.646C328.085 235.001 328.672 233.068 328.672 231.09C328.669 228.439 327.614 225.897 325.74 224.022C323.865 222.147 321.323 221.093 318.672 221.09Z" fill="#F0F0F0"/>
<path d="M542.144 572.46L528.679 558.024L543.115 544.558L556.58 558.995L542.144 572.46ZM530.825 558.098L542.219 570.314L554.434 558.92L543.04 546.705L530.825 558.098Z" fill="#F0F0F0"/>
</g>
<defs>
<clipPath id="clip0">
<rect width="1021.5" height="782.954" fill="white"/>
</clipPath>
</defs>
</svg>
