<svg width="271" height="223" viewBox="0 0 271 223" fill="none" xmlns="http://www.w3.org/2000/svg">
<g clip-path="url(#clip0)">
<path d="M254.495 207.412C259.15 202.112 281.067 176.027 265.489 171.727C253.789 168.497 252.486 186.267 252.878 198.191C251.005 190.157 247.369 180.772 240.981 184.913C231.774 190.881 249.025 204.088 253.531 207.33C253.605 207.989 253.654 208.355 253.654 208.355C253.654 208.355 253.839 208.154 254.168 207.782C254.426 207.963 254.569 208.06 254.569 208.06C254.569 208.06 254.545 207.826 254.495 207.412Z" fill="#E6E6E6"/>
<path d="M18.5302 221.919C23.861 215.849 48.9642 185.973 31.122 181.048C17.7214 177.349 16.2284 197.701 16.6782 211.359C14.5324 202.157 10.368 191.408 3.05136 196.15C-7.49327 202.986 12.2649 218.112 17.426 221.825C17.5108 222.58 17.5667 223 17.5667 223C17.5667 223 17.7784 222.769 18.1558 222.344C18.4506 222.55 18.6146 222.661 18.6146 222.661C18.6146 222.661 18.5871 222.394 18.5302 221.919Z" fill="#E6E6E6"/>
<path d="M77.2806 17.8016C76.8188 17.8022 76.376 17.986 76.0494 18.3129C75.7228 18.6397 75.5391 19.0828 75.5385 19.545V206.09C75.5391 206.552 75.7228 206.995 76.0494 207.322C76.376 207.649 76.8188 207.833 77.2806 207.833H227.448C227.91 207.833 228.352 207.649 228.679 207.322C229.006 206.995 229.189 206.552 229.19 206.09V19.545C229.189 19.0828 229.006 18.6397 228.679 18.3129C228.352 17.986 227.91 17.8022 227.448 17.8016H77.2806Z" fill="#E6E6E6"/>
<path d="M203.581 99.2625H101.147C100.454 99.2625 99.7894 98.9869 99.2994 98.4965C98.8093 98.0061 98.534 97.3409 98.534 96.6473C98.534 95.9538 98.8093 95.2886 99.2994 94.7982C99.7894 94.3077 100.454 94.0322 101.147 94.0322H203.581C204.274 94.0322 204.939 94.3077 205.429 94.7982C205.919 95.2886 206.195 95.9538 206.195 96.6473C206.195 97.3409 205.919 98.0061 205.429 98.4965C204.939 98.9869 204.274 99.2625 203.581 99.2625Z" fill="white"/>
<path d="M204.461 50.5342H136.503C135.545 50.5342 134.769 49.3633 134.769 47.9191C134.769 46.4748 135.545 45.304 136.503 45.304H204.461C205.418 45.304 206.195 46.4748 206.195 47.9191C206.195 49.3633 205.418 50.5342 204.461 50.5342Z" fill="white"/>
<path d="M204.461 65.5274H136.503C135.545 65.5274 134.769 64.3566 134.769 62.9123C134.769 61.4681 135.545 60.2972 136.503 60.2972H204.461C205.418 60.2972 206.195 61.4681 206.195 62.9123C206.195 64.3566 205.418 65.5274 204.461 65.5274Z" fill="white"/>
<path d="M203.581 116.173H101.147C100.454 116.173 99.7894 115.898 99.2994 115.408C98.8093 114.917 98.534 114.252 98.534 113.558C98.534 112.865 98.8093 112.2 99.2994 111.709C99.7894 111.219 100.454 110.943 101.147 110.943H203.581C204.274 110.943 204.939 111.219 205.429 111.709C205.919 112.2 206.195 112.865 206.195 113.558C206.195 114.252 205.919 114.917 205.429 115.408C204.939 115.898 204.274 116.173 203.581 116.173Z" fill="white"/>
<path d="M203.581 133.084H101.147C100.454 133.084 99.7894 132.809 99.2994 132.319C98.8093 131.828 98.534 131.163 98.534 130.469C98.534 129.776 98.8093 129.111 99.2994 128.62C99.7894 128.13 100.454 127.854 101.147 127.854H203.581C204.274 127.854 204.939 128.13 205.429 128.62C205.919 129.111 206.195 129.776 206.195 130.469C206.195 131.163 205.919 131.828 205.429 132.319C204.939 132.809 204.274 133.084 203.581 133.084V133.084Z" fill="white"/>
<path d="M203.581 149.996H101.147C100.454 149.996 99.7894 149.72 99.2994 149.23C98.8093 148.739 98.534 148.074 98.534 147.38C98.534 146.687 98.8093 146.022 99.2994 145.531C99.7894 145.041 100.454 144.765 101.147 144.765H203.581C204.274 144.765 204.939 145.041 205.429 145.531C205.919 146.022 206.195 146.687 206.195 147.38C206.195 148.074 205.919 148.739 205.429 149.23C204.939 149.72 204.274 149.996 203.581 149.996Z" fill="white"/>
<path d="M203.581 166.907H101.147C100.454 166.907 99.7894 166.631 99.2994 166.141C98.8093 165.65 98.534 164.985 98.534 164.292C98.534 163.598 98.8093 162.933 99.2994 162.442C99.7894 161.952 100.454 161.677 101.147 161.677H203.581C204.274 161.677 204.939 161.952 205.429 162.442C205.919 162.933 206.195 163.598 206.195 164.292C206.195 164.985 205.919 165.65 205.429 166.141C204.939 166.631 204.274 166.907 203.581 166.907Z" fill="white"/>
<path d="M203.581 183.818H101.147C100.454 183.818 99.7894 183.542 99.2994 183.052C98.8093 182.561 98.534 181.896 98.534 181.203C98.534 180.509 98.8093 179.844 99.2994 179.353C99.7894 178.863 100.454 178.587 101.147 178.587H203.581C204.274 178.587 204.939 178.863 205.429 179.353C205.919 179.844 206.195 180.509 206.195 181.203C206.195 181.896 205.919 182.561 205.429 183.052C204.939 183.542 204.274 183.818 203.581 183.818Z" fill="white"/>
<path d="M112.296 69.363C119.897 69.363 126.059 63.1966 126.059 55.5901C126.059 47.9835 119.897 41.8171 112.296 41.8171C104.696 41.8171 98.534 47.9835 98.534 55.5901C98.534 63.1966 104.696 69.363 112.296 69.363Z" fill="white"/>
<path d="M101.88 103.895L81.3576 114.814L81.0978 105.715C87.7963 104.595 94.1692 102.647 100.062 99.475L102.208 94.1681C102.442 93.5898 102.822 93.0823 103.311 92.6955C103.8 92.3086 104.382 92.0557 104.998 91.9615C105.614 91.8673 106.244 91.9352 106.826 92.1583C107.408 92.3815 107.923 92.7523 108.318 93.2343V93.2343C108.897 93.9396 109.187 94.8388 109.128 95.7496C109.069 96.6605 108.666 97.5149 108.002 98.1399L101.88 103.895Z" fill="#593F3F"/>
<path d="M51.735 166.938C51.5853 166.388 51.5535 165.813 51.6417 165.251C51.7299 164.688 51.9362 164.15 52.2469 163.673L56.7552 156.749C57.8215 155.111 59.4576 153.928 61.3462 153.43C63.2348 152.931 65.2411 153.152 66.976 154.051V154.051C65.0813 157.278 65.3454 160.109 67.6303 162.57C64.0832 164.303 60.8049 166.54 57.8969 169.211C57.3661 169.573 56.7564 169.803 56.1187 169.882C55.481 169.96 54.8338 169.885 54.2309 169.663C53.628 169.44 53.087 169.077 52.6528 168.603C52.2187 168.129 51.904 167.558 51.735 166.938V166.938Z" fill="black"/>
<path d="M102.815 157.885C102.133 159.022 101.17 159.966 100.019 160.624C98.8672 161.282 97.5661 161.633 96.2402 161.643L66.2902 161.87L64.9913 154.331L78.2402 150.431L67.0696 141.852L79.2793 127.553L101.456 148.238C102.752 149.447 103.594 151.065 103.842 152.821C104.089 154.576 103.727 156.364 102.815 157.885V157.885Z" fill="black"/>
<path d="M61.6141 209.446H54.6C48.3024 166.246 41.8919 122.924 60.8348 106.754L83.176 110.394L80.3184 129.373L67.8489 143.672L61.6141 209.446Z" fill="black"/>
<path d="M67.0831 222.72C66.534 222.87 65.9594 222.901 65.3971 222.813C64.8349 222.725 64.2976 222.518 63.8208 222.208L56.9017 217.696C55.2652 216.629 54.0831 214.992 53.5847 213.102C53.0864 211.212 53.3073 209.204 54.2046 207.468V207.468C57.4298 209.364 60.2591 209.099 62.7177 206.812C64.4495 210.362 66.6846 213.643 69.3538 216.553C69.7157 217.084 69.9456 217.694 70.0242 218.332C70.1028 218.971 70.028 219.618 69.8058 220.222C69.5836 220.825 69.2206 221.366 68.747 221.801C68.2734 222.235 67.7029 222.55 67.0831 222.72Z" fill="black"/>
<path d="M92.2304 76.7289H58.8864C52.7286 68.0107 52.0059 59.6737 58.8864 51.8701C58.8864 48.4194 63.3401 45.6221 68.8339 45.6221H68.8339C73.1374 45.6221 76.9529 47.3602 78.2895 49.9296L92.2304 76.7289Z" fill="black"/>
<path d="M78.2402 77.8966L65.2511 74.7769C67.4084 70.3577 67.586 65.4405 66.55 60.218L75.3826 59.958C75.6593 66.4523 76.4966 72.5197 78.2402 77.8966Z" fill="#593F3F"/>
<path d="M81.81 118.222C72.3544 124.67 65.6734 118.443 60.575 108.834C61.2835 102.955 60.1364 95.9189 58.0118 88.2738C57.067 84.9018 57.4197 81.2978 59.0004 78.1734C60.5811 75.0489 63.2749 72.6311 66.55 71.3972V71.3972L77.7206 76.0769C87.2057 83.8142 89.0727 92.1954 85.514 101.035L81.81 118.222Z" fill="#4D8F6A"/>
<path d="M54.6 84.3962L44.2087 89.8558L62.6533 100.775L65.2197 107.11C65.391 107.533 65.4744 107.987 65.4649 108.443C65.4555 108.899 65.3532 109.348 65.1645 109.764C64.9758 110.179 64.7045 110.552 64.3672 110.859C64.0299 111.166 63.6336 111.401 63.2026 111.549V111.549C62.7127 111.718 62.1902 111.772 61.6763 111.705C61.1623 111.638 60.6707 111.453 60.2401 111.165C59.8094 110.876 59.4513 110.492 59.1939 110.042C58.9365 109.592 58.7867 109.088 58.7563 108.57L58.4967 104.155L35.054 96.4127C34.2641 96.1518 33.544 95.7145 32.948 95.1339C32.352 94.5533 31.8959 93.8445 31.6142 93.0613V93.0613C31.2035 91.9198 31.1826 90.6741 31.5548 89.5194C31.9269 88.3647 32.671 87.366 33.6708 86.6796L52.5218 73.7371L54.6 84.3962Z" fill="#593F3F"/>
<path d="M64.9913 85.4361C60.6575 83.5354 56.7166 85.6001 51.7424 87.2559L50.9631 73.477C55.9023 70.8425 60.6114 70.1322 64.9913 72.1771V85.4361Z" fill="#4D8F6A"/>
<path d="M91.619 76.7289H84.2645C79.6872 68.2784 79.895 53.3479 70.057 56.6755C63.7365 52.9214 67.3631 67.6536 65.7914 76.7289H59.3956C57.6576 67.8619 57.6335 58.9766 59.678 51.751C59.6974 51.2777 59.8164 50.8138 60.0273 50.3896C60.2381 49.9655 60.5361 49.5906 60.9016 49.2896C61.2187 48.9983 61.5622 48.7371 61.9277 48.5094C64.1878 47.0844 65.7057 46.2728 69.0075 46.2728C70.8555 46.2687 72.695 46.5218 74.4733 47.0249C74.7045 47.0927 74.9332 47.1654 75.154 47.2415C75.4579 47.3456 75.7514 47.4597 76.032 47.582C77.4764 48.2035 78.6116 49.045 79.1494 50.098C85.3738 57.5269 88.5509 66.8998 91.619 76.7289Z" fill="black"/>
<path d="M70.1755 66.7833C74.7556 66.7833 78.4686 63.0675 78.4686 58.4839C78.4686 53.9003 74.7556 50.1846 70.1755 50.1846C65.5954 50.1846 61.8825 53.9003 61.8825 58.4839C61.8825 63.0675 65.5954 66.7833 70.1755 66.7833Z" fill="#593F3F"/>
<path d="M78.5871 55.2826C76.0921 51.8795 69.5857 55.939 61.764 58.8395V50.7773C68.1983 47.9426 71.9503 47.1249 76.2176 50.0659L78.5871 55.2826Z" fill="black"/>
<path d="M224.431 40.2092C235.526 40.2092 244.52 31.208 244.52 20.1046C244.52 9.00113 235.526 0 224.431 0C213.336 0 204.342 9.00113 204.342 20.1046C204.342 31.208 213.336 40.2092 224.431 40.2092Z" fill="#4D8F6A"/>
<path d="M216.061 18.7779C215.709 18.7779 215.372 18.9177 215.123 19.1665C214.875 19.4153 214.735 19.7527 214.735 20.1046C214.735 20.4564 214.875 20.7939 215.123 21.0427C215.372 21.2915 215.709 21.4313 216.061 21.4313H223.106V28.4814C223.106 28.8332 223.245 29.1706 223.494 29.4194C223.742 29.6682 224.08 29.808 224.431 29.808C224.783 29.808 225.12 29.6682 225.369 29.4194C225.617 29.1706 225.757 28.8332 225.757 28.4814V21.4313H232.802C233.153 21.4313 233.49 21.2915 233.739 21.0427C233.988 20.7939 234.127 20.4565 234.127 20.1046C234.127 19.7527 233.988 19.4153 233.739 19.1665C233.49 18.9177 233.153 18.7779 232.802 18.7779H225.757V11.7276C225.757 11.3758 225.617 11.0383 225.369 10.7896C225.12 10.5408 224.783 10.401 224.431 10.401C224.08 10.401 223.742 10.5408 223.494 10.7896C223.245 11.0383 223.106 11.3758 223.106 11.7276V18.7779H216.061Z" fill="white"/>
</g>
<defs>
<clipPath id="clip0">
<rect width="271" height="223" fill="white"/>
</clipPath>
</defs>
</svg>
