<svg width="762" height="529" viewBox="0 0 762 529" fill="none" xmlns="http://www.w3.org/2000/svg">
<g clip-path="url(#clip0)">
<path d="M85.8229 55.594C88.0394 55.594 89.8363 53.7973 89.8363 51.581C89.8363 49.3646 88.0394 47.568 85.8229 47.568C83.6064 47.568 81.8096 49.3646 81.8096 51.581C81.8096 53.7973 83.6064 55.594 85.8229 55.594Z" fill="white"/>
<path d="M101.055 55.594C103.271 55.594 105.068 53.7973 105.068 51.581C105.068 49.3646 103.271 47.568 101.055 47.568C98.8383 47.568 97.0415 49.3646 97.0415 51.581C97.0415 53.7973 98.8383 55.594 101.055 55.594Z" fill="white"/>
<path d="M116.287 55.594C118.503 55.594 120.3 53.7973 120.3 51.581C120.3 49.3646 118.503 47.568 116.287 47.568C114.07 47.568 112.273 49.3646 112.273 51.581C112.273 53.7973 114.07 55.594 116.287 55.594Z" fill="white"/>
<path d="M585.711 61.0089H76.0718V63.8412H585.711V61.0089Z" fill="white"/>
<path d="M586.15 0.333252H0.251465V375.537H586.15V0.333252Z" fill="#E6E6E6"/>
<path d="M585.898 0H0V24.8891H585.898V0Z" fill="#4D8F6A"/>
<path d="M569.879 44.9642H17.4873V187.995H569.879V44.9642Z" fill="white"/>
<path d="M570.228 211.499H17.8364V354.53H570.228V211.499Z" fill="white"/>
<path d="M502.977 76.6056H204.022V89.9284H502.977V76.6056Z" fill="#E6E6E6"/>
<path d="M310.613 109.912H204.022V123.235H310.613V109.912Z" fill="#E6E6E6"/>
<path d="M416.372 143.219H204.022V156.542H416.372V143.219Z" fill="#E6E6E6"/>
<path d="M181.538 282.282C181.554 291.982 178.73 301.475 173.414 309.589C172.3 311.3 171.08 312.939 169.759 314.497C166.664 318.164 163.058 321.368 159.051 324.011C157.962 324.733 156.842 325.408 155.692 326.038C149.704 329.35 143.095 331.385 136.282 332.015C134.734 332.167 133.159 332.238 131.571 332.238C127.218 332.243 122.883 331.676 118.678 330.553C116.294 329.926 113.962 329.117 111.703 328.131C110.548 327.632 109.419 327.09 108.317 326.505C105.665 325.112 103.146 323.48 100.791 321.63C99.6951 320.777 98.6388 319.878 97.6218 318.933C91.5367 313.295 86.9515 306.23 84.2801 298.377C81.6088 290.523 80.9353 282.128 82.3205 273.949C83.7058 265.771 87.1062 258.065 92.2147 251.529C97.3232 244.993 103.979 239.832 111.581 236.512C119.184 233.192 127.494 231.817 135.76 232.511C144.027 233.205 151.991 235.947 158.933 240.489C165.875 245.031 171.576 251.23 175.523 258.527C179.469 265.824 181.536 273.988 181.538 282.283V282.282Z" fill="#4D8F6A"/>
<path d="M134.637 258.961H128.512V305.591H134.637V258.961Z" fill="white"/>
<path d="M154.89 279.214H108.257V285.339H154.89V279.214Z" fill="white"/>
<path d="M495.482 243.14H196.527V256.463H495.482V243.14Z" fill="#E6E6E6"/>
<path d="M303.118 276.447H196.527V289.77H303.118V276.447Z" fill="#E6E6E6"/>
<path d="M408.877 309.754H196.527V323.077H408.877V309.754Z" fill="#E6E6E6"/>
<path d="M38.7498 16.4982C41.0238 16.4982 42.8673 14.6549 42.8673 12.3811C42.8673 10.1072 41.0238 8.26392 38.7498 8.26392C36.4758 8.26392 34.6323 10.1072 34.6323 12.3811C34.6323 14.6549 36.4758 16.4982 38.7498 16.4982Z" fill="white"/>
<path d="M54.3787 16.4982C56.6528 16.4982 58.4962 14.6549 58.4962 12.3811C58.4962 10.1072 56.6528 8.26392 54.3787 8.26392C52.1047 8.26392 50.2612 10.1072 50.2612 12.3811C50.2612 14.6549 52.1047 16.4982 54.3787 16.4982Z" fill="white"/>
<path d="M23.0799 16.4982C25.3539 16.4982 27.1974 14.6549 27.1974 12.3811C27.1974 10.1072 25.3539 8.26392 23.0799 8.26392C20.8059 8.26392 18.9624 10.1072 18.9624 12.3811C18.9624 14.6549 20.8059 16.4982 23.0799 16.4982Z" fill="white"/>
<path d="M161.527 156.659C157.16 154.358 152.602 152.44 147.903 150.926L147.304 144.299L123.007 141.682L119.919 150.152L111.199 153.424C110.887 153.542 110.59 153.697 110.314 153.885H110.305C109.818 154.214 109.404 154.638 109.087 155.133C108.77 155.627 108.557 156.181 108.461 156.761C108.368 157.337 108.39 157.926 108.526 158.493L108.987 160.383C109.65 160.779 110.333 161.157 111.015 161.516L111.448 161.738C112.444 162.254 113.458 162.742 114.499 163.194C114.711 163.286 114.942 163.378 115.154 163.47C115.172 163.48 115.181 163.48 115.199 163.489C115.688 163.692 116.177 163.885 116.674 164.069C118.309 164.694 119.977 165.229 121.67 165.673C125.991 166.825 130.444 167.407 134.916 167.406C136.548 167.406 138.161 167.332 139.755 167.176C143.399 166.839 146.996 166.113 150.485 165.01C150.494 165.01 150.503 165 150.512 165C152.716 164.298 154.869 163.445 156.955 162.447C156.964 162.438 156.983 162.438 156.992 162.429C157.462 162.208 157.914 161.968 158.375 161.738L158.596 161.627C158.965 161.433 159.334 161.24 159.702 161.037C160.624 160.53 161.527 159.996 162.421 159.424C162.67 159.277 162.91 159.12 163.159 158.954C163.509 158.724 163.859 158.484 164.2 158.235C163.343 157.682 162.449 157.157 161.527 156.659Z" fill="#464353"/>
<path d="M115.928 160.742L114.407 153.876H110.434C110.394 153.876 110.354 153.879 110.315 153.885H110.305C108.877 154.006 107.502 154.481 106.305 155.267C105.493 155.786 104.77 156.433 104.167 157.185C105.346 158.079 106.572 158.908 107.835 159.701L107.89 159.728C108.25 159.95 108.619 160.171 108.987 160.383C109.651 160.779 110.333 161.157 111.015 161.516L111.448 161.738C112.444 162.254 113.458 162.742 114.499 163.194C114.711 163.286 114.942 163.378 115.154 163.47C115.172 163.48 115.181 163.48 115.2 163.489C115.689 163.692 116.177 163.885 116.675 164.069L115.928 160.742Z" fill="#464353"/>
<path d="M134.202 137.492C143.867 137.492 151.702 129.658 151.702 119.995C151.702 110.331 143.867 102.497 134.202 102.497C124.538 102.497 116.703 110.331 116.703 119.995C116.703 129.658 124.538 137.492 134.202 137.492Z" fill="#FFB8B8"/>
<path d="M122.453 111.472C124.265 113.615 127.331 114.22 130.158 114.468C136.77 114.833 143.401 114.292 149.865 112.859C150.266 116.741 149.174 120.927 151.461 124.121C152.533 120.255 153.156 116.278 153.318 112.269C153.489 110.549 153.265 108.813 152.662 107.193C152.34 106.381 151.796 105.676 151.093 105.158C150.39 104.639 149.555 104.329 148.684 104.261C149.988 103.272 151.515 102.619 153.131 102.36L147.575 99.5679L149.002 98.1032L138.942 97.4876L141.856 95.6368C137.47 95.0343 133.034 94.8943 128.62 95.219C126.57 95.37 124.426 95.6585 122.766 96.8461C121.105 98.0338 120.145 100.394 121.176 102.138C119.885 102.35 118.67 102.888 117.645 103.701C116.62 104.514 115.82 105.575 115.32 106.784C114.688 108.705 114.535 110.752 114.875 112.746C115.254 115.945 115.998 119.09 117.092 122.121L122.453 111.472Z" fill="#2F2E41"/>
<path d="M183.409 101.026C180.954 93.9736 176.99 87.5411 171.793 82.1776C166.596 76.8142 160.292 72.6488 153.319 69.9719C146.347 67.295 138.875 66.1712 131.423 66.6786C123.972 67.1861 116.721 69.3127 110.176 72.9102C103.632 76.5076 97.9502 81.4893 93.5286 87.5078C89.1071 93.5264 86.0517 100.437 84.5755 107.758C83.0994 115.078 83.238 122.633 84.9817 129.894C86.7254 137.156 90.0323 143.949 94.6716 149.802C95.1325 150.382 95.6118 150.963 96.1006 151.525C96.1375 151.562 96.165 151.599 96.2019 151.636C97.4034 153.02 98.6804 154.337 100.027 155.581C100.378 155.903 100.746 156.235 101.115 156.548C101.815 157.175 102.534 157.774 103.281 158.346C103.576 158.576 103.862 158.807 104.166 159.028C105.346 159.922 106.572 160.751 107.835 161.544L107.89 161.572C108.249 161.793 108.618 162.014 108.987 162.226C109.65 162.622 110.333 163 111.014 163.36L111.448 163.581C112.443 164.097 113.457 164.586 114.499 165.037C114.711 165.129 114.941 165.222 115.153 165.314C115.172 165.323 115.181 165.323 115.199 165.332C115.688 165.535 116.176 165.728 116.674 165.913C118.309 166.537 119.977 167.073 121.67 167.516C125.991 168.668 130.444 169.251 134.916 169.249C136.547 169.249 138.16 169.176 139.755 169.019C143.399 168.683 146.996 167.956 150.484 166.853C150.493 166.853 150.503 166.844 150.512 166.844C152.716 166.142 154.869 165.289 156.955 164.291C156.964 164.281 156.983 164.281 156.992 164.272C157.462 164.051 157.914 163.811 158.375 163.581L158.596 163.47C158.964 163.277 159.333 163.083 159.702 162.88C160.624 162.374 161.527 161.839 162.421 161.267C162.67 161.12 162.91 160.963 163.159 160.797C163.509 160.567 163.859 160.327 164.2 160.079C164.651 159.765 165.103 159.443 165.546 159.111C165.684 159.009 165.832 158.908 165.97 158.797C174.605 152.243 180.944 143.123 184.077 132.745C187.21 122.367 186.976 111.264 183.409 101.026H183.409ZM164.274 156.558C163.97 156.797 163.656 157.028 163.343 157.24C163.038 157.47 162.735 157.691 162.421 157.894C162.154 158.088 161.886 158.272 161.61 158.447L161.527 158.502C161.324 158.641 161.121 158.77 160.918 158.899C160.153 159.378 159.379 159.839 158.596 160.281C158.513 160.327 158.43 160.373 158.347 160.42C157.997 160.613 157.646 160.797 157.296 160.982C157.25 161.009 157.195 161.028 157.149 161.056L157.093 161.083C156.651 161.314 156.199 161.535 155.748 161.747C154.005 162.586 152.21 163.313 150.374 163.922C150.134 164.005 149.894 164.088 149.655 164.162C146.353 165.212 142.947 165.904 139.497 166.226C137.985 166.364 136.455 166.438 134.916 166.438C130.686 166.447 126.474 165.895 122.389 164.798C120.293 164.25 118.238 163.554 116.241 162.715C116.139 162.669 116.029 162.632 115.927 162.586C115.817 162.539 115.715 162.503 115.614 162.457C115.503 162.41 115.402 162.364 115.291 162.309C114.425 161.931 113.568 161.516 112.729 161.083L112.324 160.871C111.3 160.337 110.296 159.765 109.318 159.157C109.033 158.982 108.738 158.797 108.461 158.604C108.388 158.558 108.323 158.512 108.249 158.466C107.595 158.032 106.94 157.581 106.304 157.111C105.871 156.788 105.438 156.466 105.014 156.134C104.304 155.599 103.622 155.028 102.958 154.438C102.608 154.143 102.267 153.82 101.935 153.516C100.628 152.309 99.3913 151.029 98.2299 149.682C97.8429 149.24 97.4648 148.797 97.1052 148.336C97.0234 148.245 96.9465 148.15 96.8747 148.051C90.8858 140.494 87.2835 131.325 86.5273 121.713C85.771 112.1 87.8951 102.481 92.6287 94.0806C97.3622 85.6805 104.491 78.8804 113.105 74.5477C121.719 70.2149 131.429 68.5459 140.996 69.7534C150.562 70.9609 159.553 74.9903 166.82 81.3276C174.087 87.6649 179.302 96.0229 181.799 105.336C184.297 114.649 183.964 124.494 180.842 133.617C177.721 142.74 171.953 150.726 164.274 156.558Z" fill="#464353"/>
<path d="M620.406 347.447C617.951 340.394 613.986 333.962 608.79 328.599C603.593 323.235 597.288 319.07 590.316 316.393C583.344 313.716 575.871 312.592 568.42 313.1C560.969 313.607 553.718 315.734 547.173 319.331C540.628 322.929 534.947 327.91 530.525 333.929C526.104 339.947 523.048 346.858 521.572 354.178C520.096 361.499 520.235 369.053 521.978 376.315C523.722 383.577 527.029 390.37 531.668 396.223C532.129 396.803 532.608 397.384 533.097 397.946C533.134 397.983 533.161 398.02 533.198 398.057C534.4 399.441 535.677 400.758 537.024 402.002C537.374 402.324 537.742 402.656 538.111 402.969C538.812 403.596 539.531 404.195 540.277 404.767C541.735 405.916 543.255 406.983 544.831 407.965L544.886 407.993C545.909 408.629 546.951 409.218 548.011 409.781L548.444 410.002C549.44 410.518 550.454 411.006 551.495 411.458C551.707 411.55 551.937 411.642 552.149 411.735C552.168 411.744 552.177 411.744 552.196 411.753C554.3 412.628 556.462 413.358 558.667 413.937C562.987 415.089 567.44 415.671 571.912 415.67C573.543 415.67 575.157 415.596 576.751 415.44C580.395 415.103 583.992 414.377 587.481 413.274C587.49 413.274 587.499 413.265 587.508 413.265C589.712 412.563 591.865 411.71 593.951 410.712C593.96 410.702 593.979 410.702 593.988 410.693C594.458 410.472 594.91 410.232 595.371 410.002L595.592 409.891C595.961 409.698 596.33 409.504 596.698 409.301C597.62 408.794 598.523 408.26 599.418 407.688C599.666 407.541 599.906 407.384 600.155 407.218C600.966 406.684 601.768 406.112 602.542 405.532C602.681 405.43 602.828 405.329 602.966 405.218C611.602 398.664 617.94 389.544 621.073 379.166C624.206 368.788 623.972 357.685 620.406 347.447Z" fill="white"/>
<path d="M588.858 385.489C593.108 385.489 596.554 382.044 596.554 377.794C596.554 373.544 593.108 370.099 588.858 370.099C584.608 370.099 581.162 373.544 581.162 377.794C581.162 382.044 584.608 385.489 588.858 385.489Z" fill="#2F2E41"/>
<path d="M591.002 370.311C592.334 370.311 593.643 370.656 594.802 371.314C595.96 371.971 596.928 372.918 597.611 374.062C598.293 375.206 598.668 376.507 598.697 377.838C598.726 379.17 598.409 380.486 597.777 381.659C598.444 380.824 598.93 379.859 599.204 378.826C599.477 377.794 599.533 376.715 599.367 375.66C599.2 374.604 598.816 373.595 598.238 372.696C597.661 371.797 596.902 371.029 596.011 370.439C595.119 369.85 594.115 369.453 593.062 369.273C592.008 369.093 590.929 369.134 589.893 369.394C588.856 369.655 587.886 370.128 587.042 370.784C586.199 371.44 585.501 372.264 584.994 373.205C585.714 372.302 586.628 371.572 587.668 371.071C588.708 370.57 589.848 370.31 591.003 370.311H591.002Z" fill="#2F2E41"/>
<path d="M574.476 377.777C586.962 377.777 597.083 367.657 597.083 355.172C597.083 342.688 586.962 332.567 574.476 332.567C561.991 332.567 551.869 342.688 551.869 355.172C551.869 367.657 561.991 377.777 574.476 377.777Z" fill="#2F2E41"/>
<path d="M556.733 341.147C560.629 336.767 566.074 334.071 571.919 333.628C577.765 333.186 583.553 335.032 588.064 338.777C587.879 338.6 587.695 338.424 587.504 338.253C583.038 334.253 577.166 332.19 571.179 332.519C565.193 332.848 559.582 335.541 555.581 340.007C551.58 344.472 549.518 350.344 549.847 356.33C550.175 362.316 552.869 367.927 557.335 371.927C557.378 371.965 557.421 372.004 557.464 372.042C557.656 372.212 557.853 372.374 558.049 372.537C553.802 368.497 551.291 362.964 551.045 357.108C550.8 351.251 552.84 345.528 556.734 341.147H556.733Z" fill="#2F2E41"/>
<path d="M574.285 377.585C582.326 377.585 588.845 371.067 588.845 363.027C588.845 354.986 582.326 348.468 574.285 348.468C566.243 348.468 559.725 354.986 559.725 363.027C559.725 371.067 566.243 377.585 574.285 377.585Z" fill="#A0616A"/>
<path d="M600.339 400.96V405.845C599.445 406.416 598.542 406.951 597.62 407.458C597.251 407.661 596.883 407.854 596.514 408.048L596.293 408.158C595.832 408.389 595.38 408.628 594.91 408.85C594.901 408.859 594.882 408.859 594.873 408.868C592.787 409.866 590.634 410.719 588.43 411.421C588.421 411.421 588.412 411.43 588.403 411.43C584.914 412.534 581.317 413.26 577.673 413.596C576.079 413.753 574.465 413.827 572.834 413.827C568.362 413.828 563.91 413.245 559.589 412.094C557.384 411.514 555.222 410.785 553.118 409.909C553.099 409.9 553.09 409.9 553.072 409.891C552.86 409.799 552.629 409.707 552.417 409.615C551.376 409.163 550.362 408.674 549.366 408.158L548.933 407.937C547.873 407.375 546.831 406.785 545.808 406.149L545.753 406.121C544.177 405.14 542.657 404.072 541.199 402.923C540.453 402.352 539.734 401.753 539.033 401.126C538.665 400.812 538.296 400.481 537.946 400.158C536.599 398.914 535.322 397.597 534.12 396.213C534.279 395.253 534.514 394.307 534.821 393.384L534.83 393.374C534.885 393.217 534.95 393.063 535.023 392.914C535.074 392.781 535.133 392.652 535.199 392.527C536.849 389.439 539.835 388.674 543.541 388.508C545.633 388.416 547.947 388.517 550.39 388.49C551.68 388.48 553.016 388.434 554.353 388.314C562.787 387.549 561.257 382.572 561.635 379.89C562.013 377.291 564.354 379.54 564.511 379.688L564.52 379.697C569.293 381.93 574.573 382.856 579.821 382.379C580.724 382.268 581.628 382.204 582.531 382.176C584.909 382.148 584.393 382.83 583.573 383.393C583.175 383.655 582.759 383.889 582.328 384.093C582.328 384.093 581.95 386.397 581.563 389.844C581.195 393.144 587.518 394.693 588.043 394.812C588.054 394.82 588.067 394.823 588.08 394.822C590.389 394.223 592.82 394.287 595.095 395.006H595.104C596.403 395.484 597.563 396.279 598.477 397.318C599.392 398.358 600.032 399.61 600.339 400.96Z" fill="#4D8F6A"/>
<path d="M553.209 406.887C553.209 407.569 553.191 408.223 553.163 408.841C553.154 409.209 553.136 409.569 553.118 409.91C553.099 409.9 553.09 409.9 553.071 409.891C552.859 409.799 552.629 409.707 552.417 409.615C551.375 409.163 550.361 408.675 549.366 408.158L548.933 407.937C547.872 407.375 546.831 406.785 545.808 406.149C545.835 405.827 545.882 405.504 545.928 405.181C546.029 404.472 546.112 403.753 546.167 403.043C546.53 398.057 545.626 393.061 543.54 388.517V388.508C543.356 388.14 543.246 387.937 543.246 387.937C543.246 387.937 545.928 385.633 549.753 387.937C549.997 388.08 550.213 388.268 550.389 388.49C552.694 391.209 553.32 400.352 553.209 406.887Z" fill="#2F2E41"/>
<path d="M595.067 405.633C595.03 406.665 594.974 407.744 594.91 408.84V408.85C594.901 408.859 594.882 408.859 594.873 408.868C592.787 409.866 590.634 410.719 588.43 411.421C588.421 411.421 588.412 411.43 588.403 411.43L588.301 408.84L588.292 408.499L587.803 395.891C587.79 395.605 587.835 395.32 587.935 395.053C588.036 394.785 588.189 394.541 588.386 394.334C588.583 394.127 588.821 393.962 589.083 393.85C589.346 393.737 589.629 393.679 589.914 393.679H594.587C594.818 393.679 594.984 394.149 595.095 394.997V395.006C595.321 398.545 595.312 402.095 595.067 405.633Z" fill="#2F2E41"/>
<path d="M561.832 344.828V359.391H565.203L569.494 354.793L568.92 359.391H583.825L582.903 354.793L584.746 359.391H587.123V344.828H561.832Z" fill="#2F2E41"/>
<path d="M559.533 362.069C560.168 362.069 560.682 361.126 560.682 359.962C560.682 358.799 560.168 357.855 559.533 357.855C558.898 357.855 558.383 358.799 558.383 359.962C558.383 361.126 558.898 362.069 559.533 362.069Z" fill="#A0616A"/>
<path d="M589.037 362.069C589.672 362.069 590.187 361.126 590.187 359.962C590.187 358.799 589.672 357.855 589.037 357.855C588.402 357.855 587.888 358.799 587.888 359.962C587.888 361.126 588.402 362.069 589.037 362.069Z" fill="#A0616A"/>
<path d="M603.464 403.688C602.69 404.269 601.888 404.84 601.077 405.375C600.828 405.541 600.588 405.697 600.339 405.845C599.445 406.416 598.542 406.951 597.62 407.458C597.251 407.661 596.883 407.854 596.514 408.048V397.891C596.514 397.891 597.989 399.071 600.339 401.034C600.634 401.283 600.938 401.541 601.261 401.817C601.943 402.389 602.681 403.015 603.464 403.688Z" fill="#4D8F6A"/>
<path d="M620.406 347.447C617.951 340.394 613.986 333.962 608.79 328.599C603.593 323.235 597.288 319.07 590.316 316.393C583.344 313.716 575.871 312.592 568.42 313.1C560.969 313.607 553.718 315.734 547.173 319.331C540.628 322.929 534.947 327.91 530.525 333.929C526.104 339.947 523.048 346.858 521.572 354.178C520.096 361.499 520.235 369.053 521.978 376.315C523.722 383.577 527.029 390.37 531.668 396.223C532.129 396.803 532.608 397.384 533.097 397.946C533.134 397.983 533.161 398.02 533.198 398.057C534.4 399.441 535.677 400.758 537.024 402.002C537.374 402.324 537.742 402.656 538.111 402.969C538.812 403.596 539.531 404.195 540.277 404.767C541.735 405.916 543.255 406.983 544.831 407.965L544.886 407.993C545.909 408.629 546.951 409.218 548.011 409.781L548.444 410.002C549.44 410.518 550.454 411.006 551.495 411.458C551.707 411.55 551.937 411.642 552.149 411.735C552.168 411.744 552.177 411.744 552.196 411.753C554.3 412.628 556.462 413.358 558.667 413.937C562.987 415.089 567.44 415.671 571.912 415.67C573.543 415.67 575.157 415.596 576.751 415.44C580.395 415.103 583.992 414.377 587.481 413.274C587.49 413.274 587.499 413.265 587.508 413.265C589.712 412.563 591.865 411.71 593.951 410.712C593.96 410.702 593.979 410.702 593.988 410.693C594.458 410.472 594.91 410.232 595.371 410.002L595.592 409.891C595.961 409.698 596.33 409.504 596.698 409.301C597.62 408.794 598.523 408.26 599.418 407.688C599.666 407.541 599.906 407.384 600.155 407.218C600.966 406.684 601.768 406.112 602.542 405.532C602.681 405.43 602.828 405.329 602.966 405.218C611.602 398.664 617.94 389.544 621.073 379.166C624.206 368.788 623.972 357.685 620.406 347.447ZM601.27 402.979C600.966 403.218 600.653 403.449 600.339 403.661C600.035 403.891 599.731 404.112 599.418 404.315C599.15 404.509 598.883 404.693 598.606 404.868C598.376 405.025 598.145 405.172 597.915 405.32C597.15 405.799 596.376 406.26 595.592 406.702C595.509 406.748 595.426 406.794 595.343 406.84C594.993 407.034 594.643 407.218 594.292 407.403C594.246 407.43 594.191 407.449 594.145 407.476L594.089 407.504C593.647 407.734 593.196 407.956 592.744 408.168C591.001 409.007 589.206 409.734 587.37 410.343C587.13 410.426 586.89 410.509 586.651 410.582C583.349 411.633 579.943 412.325 576.493 412.647C574.981 412.785 573.451 412.859 571.912 412.859C567.682 412.868 563.47 412.316 559.385 411.218C557.289 410.671 555.234 409.975 553.237 409.135C553.025 409.052 552.813 408.96 552.61 408.877C552.5 408.831 552.398 408.785 552.288 408.73C551.421 408.352 550.564 407.937 549.725 407.504L549.32 407.292C548.297 406.757 547.292 406.186 546.315 405.578C545.955 405.357 545.596 405.126 545.246 404.887C544.139 404.158 543.061 403.375 542.01 402.555C541.3 402.02 540.618 401.449 539.955 400.859C539.604 400.564 539.263 400.241 538.931 399.937C537.625 398.73 536.387 397.45 535.226 396.103C534.839 395.66 534.461 395.218 534.101 394.757C534.02 394.666 533.943 394.571 533.871 394.471C527.882 386.915 524.28 377.746 523.523 368.133C522.767 358.521 524.891 348.902 529.625 340.502C534.358 332.101 541.487 325.301 550.101 320.969C558.715 316.636 568.425 314.967 577.992 316.174C587.558 317.382 596.549 321.411 603.816 327.749C611.083 334.086 616.298 342.444 618.796 351.757C621.293 361.07 620.96 370.915 617.838 380.038C614.717 389.161 608.949 397.147 601.27 402.979Z" fill="#464353"/>
<path d="M617.514 343.421C618.788 342.959 619.945 342.224 620.904 341.266C621.863 340.309 622.6 339.153 623.064 337.88C623.528 336.607 623.707 335.247 623.588 333.898C623.47 332.548 623.057 331.241 622.378 330.068L643.91 305.142L626.936 302.933L609.092 326.941C607.197 328.212 605.834 330.133 605.261 332.341C604.688 334.549 604.945 336.891 605.983 338.922C607.021 340.953 608.768 342.533 610.894 343.363C613.019 344.192 615.375 344.213 617.514 343.421V343.421Z" fill="#FFB8B8"/>
<path d="M738.877 348.688C739.771 347.669 740.43 346.467 740.808 345.166C741.186 343.865 741.275 342.497 741.067 341.158C740.86 339.819 740.361 338.542 739.606 337.416C738.852 336.291 737.86 335.345 736.7 334.644L743.544 302.427L727.608 308.675L723.552 338.311C722.504 340.337 722.236 342.678 722.799 344.889C723.362 347.099 724.716 349.027 726.605 350.306C728.494 351.585 730.787 352.127 733.049 351.829C735.31 351.53 737.384 350.413 738.877 348.688Z" fill="#FFB8B8"/>
<path d="M661.759 516.593L650.458 516.592L645.083 473.008L661.761 473.009L661.759 516.593Z" fill="#FFB8B8"/>
<path d="M664.641 527.546L628.203 527.545V527.084C628.203 525.222 628.57 523.378 629.283 521.657C629.995 519.937 631.04 518.373 632.357 517.056C633.674 515.74 635.238 514.695 636.958 513.982C638.679 513.27 640.523 512.903 642.386 512.903H642.387L664.641 512.904L664.641 527.546Z" fill="#2F2E41"/>
<path d="M717.064 516.593L705.763 516.592L700.388 473.008L717.066 473.009L717.064 516.593Z" fill="#FFB8B8"/>
<path d="M719.946 527.546L683.508 527.545V527.084C683.508 525.222 683.875 523.378 684.588 521.657C685.301 519.937 686.345 518.373 687.662 517.056C688.979 515.74 690.543 514.695 692.263 513.982C693.984 513.27 695.828 512.903 697.691 512.903H697.692L719.947 512.904L719.946 527.546Z" fill="#2F2E41"/>
<path d="M662.936 493.835L646.94 493.195C645.848 493.148 644.819 492.673 644.075 491.874C643.33 491.075 642.93 490.016 642.96 488.924L647.466 341.106L647.761 341C675.797 330.858 698.991 331.625 718.668 343.341L718.888 343.472L721.588 487.44C721.598 487.992 721.499 488.539 721.295 489.052C721.091 489.564 720.787 490.03 720.401 490.424C720.015 490.817 719.554 491.13 719.046 491.343C718.538 491.557 717.992 491.666 717.441 491.666H703.952C702.991 491.665 702.06 491.33 701.318 490.72C700.576 490.11 700.068 489.261 699.881 488.319L681.506 394.852C681.443 394.529 681.266 394.239 681.008 394.035C680.75 393.83 680.427 393.725 680.098 393.737C679.769 393.749 679.456 393.878 679.213 394.101C678.971 394.324 678.816 394.626 678.777 394.953L667.22 490.19C667.093 491.194 666.605 492.118 665.847 492.789C665.089 493.46 664.113 493.833 663.1 493.837C663.046 493.837 662.991 493.836 662.936 493.835Z" fill="#2F2E41"/>
<path d="M678.499 211.473C691.002 211.473 701.138 201.338 701.138 188.836C701.138 176.334 691.002 166.199 678.499 166.199C665.995 166.199 655.859 176.334 655.859 188.836C655.859 201.338 665.995 211.473 678.499 211.473Z" fill="#FFB8B8"/>
<path d="M625.165 325.428C624.38 325.118 623.708 324.576 623.238 323.875L618.864 317.329C618.392 316.619 618.149 315.782 618.169 314.93C618.189 314.078 618.47 313.252 618.974 312.565L636.609 288.631L647.657 235.624C648.292 233.987 649.244 232.492 650.458 231.224C651.672 229.955 653.124 228.938 654.731 228.231C656.338 227.524 658.069 227.141 659.824 227.103C661.579 227.065 663.325 227.373 664.961 228.01C666.597 228.647 668.092 229.601 669.359 230.815C670.627 232.03 671.642 233.483 672.348 235.091C673.054 236.698 673.436 238.429 673.472 240.184C673.508 241.939 673.198 243.685 672.56 245.32L667.338 279.055C665.755 289.294 660.506 298.609 652.568 305.268L629.354 324.747C628.907 325.122 628.387 325.398 627.827 325.558C627.266 325.718 626.679 325.758 626.102 325.676C625.781 325.631 625.467 325.548 625.165 325.428Z" fill="#464353"/>
<path d="M737.91 327.83C737.116 328.116 736.253 328.153 735.437 327.937L727.828 325.914C727.005 325.693 726.27 325.224 725.721 324.572C725.173 323.919 724.838 323.114 724.762 322.265L722.185 292.648L695.452 245.561C694.847 243.912 694.574 242.161 694.646 240.406C694.719 238.652 695.137 236.929 695.876 235.336C696.615 233.744 697.66 232.312 698.953 231.124C700.246 229.935 701.76 229.013 703.409 228.41C705.059 227.807 706.811 227.536 708.565 227.61C710.32 227.685 712.042 228.105 713.634 228.845C715.226 229.586 716.657 230.633 717.844 231.927C719.031 233.221 719.951 234.736 720.552 236.386L738.924 265.158C744.501 273.89 746.717 284.35 745.158 294.593L740.604 324.552C740.516 325.128 740.308 325.679 739.993 326.169C739.678 326.659 739.264 327.078 738.777 327.398C738.506 327.575 738.215 327.721 737.91 327.83Z" fill="#464353"/>
<path d="M653.736 229.037C657.625 224.773 662.421 221.437 667.771 219.274C673.122 217.111 678.89 216.176 684.649 216.54C685.028 216.563 685.405 216.589 685.78 216.619H685.781C691.24 217.05 696.544 218.642 701.338 221.288C706.132 223.934 710.306 227.573 713.581 231.962C716.91 236.411 719.251 241.521 720.447 246.948C721.643 252.375 721.667 257.995 720.517 263.432C716.127 284.21 717.238 305.775 723.74 325.992L729.813 344.849C730.008 345.453 730.061 346.094 729.969 346.722C729.877 347.35 729.642 347.949 729.282 348.472C728.922 348.994 728.447 349.428 727.893 349.738C727.339 350.048 726.721 350.227 726.087 350.261L695.038 351.93L687.092 338.207V352.357L649.355 354.386C649.279 354.391 649.205 354.392 649.13 354.392C648.558 354.392 647.991 354.273 647.467 354.043C646.942 353.814 646.471 353.478 646.083 353.057C645.695 352.636 645.398 352.139 645.211 351.598C645.024 351.057 644.951 350.482 644.997 349.912L649.263 297.024L643.913 261.104C643.047 255.364 643.48 249.504 645.18 243.954C646.88 238.404 649.804 233.307 653.736 229.037Z" fill="#464353"/>
<path d="M694.233 210.447C692.137 211.653 683.852 212.452 683.261 210.107L683.249 210.056C682.838 208.338 683.179 206.544 683.297 204.781C683.415 203.018 683.242 201.082 682.042 199.786C679.804 197.37 675.822 198.651 672.586 198.04C670.69 197.617 669.014 196.518 667.87 194.948C666.727 193.378 666.195 191.446 666.373 189.512C666.419 189.145 666.492 188.779 666.573 188.412C666.775 187.483 666.759 186.52 666.527 185.599C666.294 184.677 665.852 183.822 665.233 183.1C664.614 182.378 663.837 181.81 662.961 181.439C662.086 181.068 661.137 180.906 660.188 180.964C656.917 181.151 653.387 182.141 650.681 179.719C648.589 177.846 648.078 172.97 648.998 170.317C650.543 165.858 660.44 163.523 664.761 162.24C670.106 160.696 675.727 160.362 681.217 161.262C686.707 162.163 691.927 164.276 696.498 167.447C699.227 169.37 701.776 171.788 702.94 174.918C704.103 178.048 703.542 181.996 700.919 184.063C702.952 186.215 704.384 188.865 705.071 191.745C705.758 194.625 705.676 197.636 704.833 200.474C703.537 204.649 697.353 208.652 694.233 210.447Z" fill="#2F2E41"/>
<path d="M761.078 529H564.744C564.5 529 564.265 528.903 564.092 528.73C563.919 528.557 563.822 528.323 563.822 528.078C563.822 527.834 563.919 527.599 564.092 527.427C564.265 527.254 564.5 527.157 564.744 527.157H761.078C761.323 527.157 761.557 527.254 761.73 527.427C761.903 527.599 762 527.834 762 528.078C762 528.323 761.903 528.557 761.73 528.73C761.557 528.903 761.323 529 761.078 529Z" fill="#CCCCCC"/>
</g>
<defs>
<clipPath id="clip0">
<rect width="762" height="529" fill="white"/>
</clipPath>
</defs>
</svg>
