<svg width="320" height="255" viewBox="0 0 320 255" fill="none" xmlns="http://www.w3.org/2000/svg">
<path d="M264.183 228.025C264.208 227.984 264.235 227.944 264.263 227.906C264.335 227.739 264.424 227.58 264.531 227.433L273.369 215.094L280.651 204.932H293.073L292.195 206.155L290.632 208.339L285.787 215.098L275.407 229.585L285.029 248.871C285.422 249.657 284.751 250.785 283.539 251.388L278.898 253.695C278.438 253.929 277.93 254.056 277.412 254.066C276.759 254.066 276.215 253.824 275.986 253.365L264.025 229.389C263.93 229.167 263.895 228.925 263.923 228.686C263.951 228.447 264.04 228.219 264.183 228.025Z" fill="#4D8F6A"/>
<path d="M280.898 227.286L268.385 222.647C267.817 222.436 267.357 222.009 267.105 221.46C266.853 220.91 266.829 220.284 267.04 219.717L270.71 209.86C270.922 209.294 271.35 208.835 271.9 208.583C272.45 208.332 273.078 208.308 273.646 208.518L286.159 213.157C286.726 213.368 287.187 213.795 287.439 214.344C287.691 214.893 287.715 215.52 287.504 216.086L283.834 225.944C283.729 226.224 283.571 226.482 283.367 226.701C283.163 226.92 282.917 227.097 282.645 227.222C282.372 227.347 282.077 227.416 281.778 227.427C281.478 227.438 281.179 227.39 280.898 227.286H280.898Z" fill="#2F2E41"/>
<path d="M270.258 221.807C270.173 221.807 270.089 221.791 270.01 221.761H270.01C269.836 221.696 269.695 221.563 269.619 221.394C269.542 221.225 269.536 221.032 269.601 220.858L274.196 208.725C274.262 208.551 274.394 208.411 274.564 208.334C274.734 208.258 274.927 208.252 275.101 208.317C275.276 208.383 275.417 208.515 275.493 208.685C275.57 208.854 275.576 209.047 275.51 209.221L270.916 221.353C270.865 221.487 270.775 221.601 270.658 221.682C270.54 221.763 270.401 221.807 270.258 221.807Z" fill="white"/>
<path d="M290.449 252.261V208.441C290.448 208.4 290.451 208.359 290.457 208.319C290.478 207.811 290.648 207.32 290.945 206.906C291.242 206.493 291.654 206.175 292.13 205.993C292.434 205.873 292.757 205.811 293.084 205.812H298.269C298.967 205.813 299.637 206.09 300.131 206.583C300.625 207.076 300.903 207.744 300.904 208.441V252.261C300.903 252.958 300.625 253.626 300.131 254.119C299.637 254.612 298.967 254.889 298.269 254.89H293.084C292.385 254.889 291.716 254.612 291.222 254.119C290.728 253.626 290.45 252.958 290.449 252.261Z" fill="#4D8F6A"/>
<path d="M287.635 224.912V214.396C287.636 213.792 287.877 213.213 288.305 212.786C288.733 212.359 289.313 212.119 289.919 212.118H303.268C303.873 212.119 304.454 212.359 304.882 212.786C305.31 213.213 305.551 213.792 305.551 214.396V224.912C305.551 225.517 305.31 226.096 304.882 226.523C304.454 226.95 303.873 227.19 303.268 227.191H289.919C289.313 227.19 288.733 226.95 288.305 226.523C287.877 226.096 287.636 225.517 287.635 224.912Z" fill="#2F2E41"/>
<path d="M297.849 226.081C297.663 226.081 297.484 226.007 297.352 225.876C297.221 225.744 297.147 225.566 297.146 225.38V212.41C297.146 212.224 297.221 212.046 297.352 211.915C297.484 211.783 297.663 211.709 297.849 211.709C298.035 211.709 298.214 211.783 298.346 211.915C298.478 212.046 298.552 212.224 298.552 212.41V225.38C298.551 225.566 298.477 225.744 298.346 225.876C298.214 226.007 298.035 226.081 297.849 226.081Z" fill="white"/>
<path d="M273.844 175.11L235.433 155.351C234.814 155.03 234.346 154.478 234.134 153.814C233.922 153.15 233.981 152.429 234.3 151.809L236.675 147.21C236.997 146.592 237.551 146.126 238.216 145.914C238.881 145.702 239.603 145.762 240.224 146.08L278.635 165.84C278.828 165.938 279.007 166.062 279.168 166.206C279.61 166.593 279.908 167.115 280.017 167.691C280.126 168.266 280.038 168.861 279.768 169.381L277.393 173.98C277.235 174.287 277.017 174.56 276.752 174.784C276.488 175.007 276.182 175.175 275.852 175.28C275.591 175.361 275.319 175.403 275.045 175.403C274.627 175.403 274.215 175.303 273.844 175.11Z" fill="#4D8F6A"/>
<path d="M274.59 176.247L255.916 168.89C255.292 168.577 254.819 168.03 254.598 167.369C254.378 166.709 254.429 165.988 254.74 165.364L258.999 156.607C259.313 155.985 259.861 155.512 260.523 155.292C260.856 155.182 261.208 155.14 261.557 155.167C261.907 155.195 262.248 155.292 262.559 155.452L279.423 165.652C279.488 165.685 279.549 165.727 279.603 165.777C280.032 166.163 280.246 167.09 280.418 167.833L280.445 167.949C280.492 168.149 280.533 168.321 280.574 168.442L280.588 168.488C280.603 168.537 280.618 168.588 280.629 168.634C280.779 169.241 280.707 169.882 280.425 170.441L278.1 175.065C277.878 175.5 277.54 175.866 277.123 176.123C276.706 176.379 276.227 176.516 275.737 176.518C275.339 176.519 274.946 176.426 274.59 176.247Z" fill="#2F2E41"/>
<path d="M288.365 152.246C298.749 152.246 307.166 143.847 307.166 133.486C307.166 123.125 298.749 114.726 288.365 114.726C277.982 114.726 269.564 123.125 269.564 133.486C269.564 143.847 277.982 152.246 288.365 152.246Z" fill="#4D8F6A"/>
<path d="M289.463 143.594L289.482 142.893C288.175 142.857 287.023 142.775 286.157 142.144C285.912 141.954 285.71 141.715 285.565 141.441C285.421 141.167 285.338 140.865 285.32 140.556C285.305 140.367 285.334 140.178 285.404 140.002C285.474 139.826 285.584 139.668 285.725 139.542C286.3 139.057 287.225 139.214 287.899 139.522L288.481 139.788L287.366 131.659L286.67 131.755L287.618 138.669C286.702 138.401 285.853 138.516 285.272 139.006C285.049 139.201 284.874 139.444 284.76 139.717C284.647 139.99 284.598 140.286 284.618 140.581C284.639 140.996 284.75 141.402 284.944 141.769C285.139 142.137 285.411 142.458 285.743 142.71C286.855 143.521 288.301 143.561 289.463 143.594Z" fill="#2F2E41"/>
<path d="M283.227 132.351H279.443V133.052H283.227V132.351Z" fill="#2F2E41"/>
<path d="M295.171 132.351H291.387V133.052H295.171V132.351Z" fill="#2F2E41"/>
<path d="M271.226 215.264C269.985 215.192 269.017 213.155 269.017 210.601V177.766C269.016 176.167 269.217 174.574 269.616 173.025L269.616 173.025C269.761 172.468 269.933 171.914 270.126 171.38C271.306 168.092 273.376 165.194 276.107 163.01C276.416 162.758 276.738 162.515 277.065 162.287C278.656 161.167 280.411 160.299 282.268 159.716C282.217 159.485 282.191 159.249 282.19 159.012C282.191 158.13 282.543 157.283 283.169 156.659C283.794 156.035 284.643 155.683 285.527 155.682H290.446C291.33 155.683 292.179 156.035 292.804 156.659C293.43 157.283 293.782 158.13 293.783 159.012C293.782 159.249 293.756 159.484 293.705 159.714C297.549 160.929 300.905 163.333 303.288 166.579C305.671 169.824 306.955 173.743 306.956 177.766V210.601C306.956 213.221 305.953 215.273 304.673 215.273H271.3C271.275 215.273 271.25 215.27 271.226 215.264Z" fill="#2F2E41"/>
<path d="M292.952 218.261C292.733 217.879 292.615 217.448 292.606 217.008L291.867 173.895C291.861 173.549 291.923 173.206 292.05 172.885C292.177 172.564 292.366 172.271 292.606 172.022L292.607 172.022C292.847 171.773 293.134 171.575 293.451 171.437C293.769 171.299 294.11 171.225 294.456 171.219L299.641 171.132C300.294 171.121 300.928 171.352 301.42 171.781C301.912 172.209 302.227 172.806 302.303 173.453C302.314 173.539 302.32 173.626 302.32 173.713L303.062 216.829C303.072 217.526 302.805 218.199 302.319 218.7C301.834 219.2 301.169 219.489 300.471 219.502L295.287 219.591C294.814 219.598 294.348 219.478 293.937 219.245C293.527 219.011 293.186 218.671 292.952 218.261V218.261Z" fill="#4D8F6A"/>
<path d="M290.772 188.655C290.576 188.31 290.46 187.926 290.434 187.53L290.655 167.556C290.601 166.861 290.826 166.173 291.28 165.643C291.734 165.113 292.38 164.784 293.076 164.729L298.245 164.325C298.874 164.277 299.5 164.455 300.009 164.826C300.062 164.866 300.115 164.915 300.167 164.95C300.296 165.057 300.431 165.157 300.57 165.251L300.682 165.33C301.425 165.855 302.268 166.45 302.308 167.03L305.418 186.518C305.464 187.074 305.329 187.631 305.033 188.104C304.963 188.22 304.883 188.331 304.795 188.434C304.717 188.525 304.633 188.61 304.542 188.687C304.113 189.072 303.568 189.305 302.993 189.348L293.265 189.974C292.767 190.012 292.269 189.909 291.827 189.675C291.386 189.441 291.02 189.088 290.772 188.655V188.655Z" fill="#2F2E41"/>
<path d="M272.556 210.658C272.37 210.657 272.191 210.584 272.059 210.452C271.928 210.321 271.853 210.142 271.853 209.957V175.955C271.853 175.769 271.927 175.591 272.059 175.459C272.191 175.328 272.369 175.254 272.556 175.254C272.742 175.254 272.921 175.328 273.053 175.459C273.184 175.591 273.258 175.769 273.258 175.955V209.957C273.258 210.142 273.184 210.321 273.052 210.452C272.921 210.584 272.742 210.657 272.556 210.658Z" fill="white"/>
<path d="M305.416 129.029L272.755 117.107C272.582 117.044 272.423 116.947 272.287 116.822C272.151 116.698 272.041 116.548 271.964 116.381C271.886 116.214 271.842 116.033 271.834 115.849C271.826 115.665 271.855 115.481 271.918 115.308L272.029 114.787C274.58 107.83 283.034 103.451 290.007 105.996L300.057 109.665C307.03 112.21 310.06 120.449 307.51 127.406L307.219 128.194C307.091 128.544 306.829 128.828 306.491 128.984C306.153 129.141 305.766 129.157 305.416 129.029Z" fill="#2F2E41"/>
<path d="M307.176 129.691C261.652 131.367 257.675 125.66 271.545 116.685L274.488 111.282L308.212 123.55L307.176 129.691Z" fill="#2F2E41"/>
<path d="M298.25 108.809C298.501 107.975 297.424 106.915 295.845 106.441C294.266 105.967 292.782 106.26 292.53 107.094C292.279 107.928 293.356 108.989 294.935 109.462C296.514 109.936 297.998 109.644 298.25 108.809Z" fill="#2F2E41"/>
<path d="M99.6223 0C66.9813 0 40.4301 26.4936 40.4301 59.0636C40.4208 67.4008 42.19 75.6444 45.6201 83.2466C54.8967 103.791 75.6092 118.127 99.6223 118.127C115.318 118.119 130.369 111.893 141.468 100.818C152.567 89.7436 158.806 74.7256 158.814 59.0636C158.814 26.4936 132.258 0 99.6223 0ZM148.596 82.8072C144.126 91.9735 137.164 99.7021 128.505 105.112C119.846 110.521 109.838 113.394 99.6223 113.402C76.5468 113.402 56.7766 99.0048 48.8638 78.7389C46.4115 72.4682 45.1571 65.7949 45.1655 59.0636C45.1655 29.1018 69.5953 4.72509 99.6223 4.72509C129.649 4.72509 154.079 29.1018 154.079 59.0636C154.089 67.2918 152.214 75.4134 148.596 82.8072Z" fill="#E6E6E6"/>
<path d="M99.6224 118.302C88.4103 118.293 77.4294 115.12 67.9476 109.149C58.4659 103.178 50.87 94.653 46.037 84.558C45.844 84.1555 45.7603 83.7095 45.794 83.2646C45.8278 82.8197 45.9779 82.3914 46.2293 82.0225L46.2611 81.9761C46.5122 81.6131 46.8545 81.3225 47.2538 81.1333C47.653 80.9441 48.0951 80.863 48.5357 80.8981C48.9763 80.9333 49.3999 81.0835 49.7639 81.3336C50.1279 81.5838 50.4196 81.925 50.6097 82.3232C59.59 101.096 78.8286 113.227 99.6223 113.227C109.125 113.203 118.456 110.7 126.69 105.967C134.924 101.234 141.774 94.4346 146.562 86.2443C146.784 85.8596 147.105 85.5406 147.491 85.3197C147.878 85.0988 148.315 84.9839 148.761 84.9866C149.201 84.9854 149.634 85.1015 150.014 85.3229C150.395 85.5442 150.709 85.8628 150.925 86.2458L150.953 86.2942C151.172 86.6807 151.286 87.1177 151.284 87.5617C151.281 88.0058 151.163 88.4415 150.94 88.8257C145.702 97.775 138.211 105.203 129.209 110.373C120.208 115.544 110.009 118.277 99.6224 118.302Z" fill="#4D8F6A"/>
<path d="M86.2808 64.4658C87.8897 64.4554 89.4523 65.0025 90.702 66.0138C91.9516 67.025 92.8107 68.4377 93.1327 70.0107C93.4547 71.5836 93.2196 73.2193 92.4675 74.6385C91.7154 76.0578 90.4929 77.1725 89.0088 77.7925C87.5247 78.4125 85.8709 78.4993 84.3298 78.038C82.7888 77.5768 81.4559 76.5961 80.5588 75.2634C79.6616 73.9307 79.2559 72.3286 79.4108 70.7306C79.5657 69.1327 80.2716 67.6379 81.408 66.5014C82.045 65.8574 82.8036 65.3459 83.64 64.9965C84.4765 64.6471 85.374 64.4667 86.2808 64.4658ZM86.2808 61.5127C84.3293 61.5116 82.4213 62.088 80.798 63.169C79.1748 64.25 77.9093 65.787 77.1615 67.5857C76.4137 69.3843 76.2173 71.3639 76.597 73.274C76.9767 75.184 77.9155 76.9389 79.2947 78.3166C80.6739 79.6943 82.4315 80.6329 84.3453 81.0138C86.2592 81.3948 88.2432 81.2008 90.0466 80.4566C91.85 79.7124 93.3917 78.4512 94.4768 76.8327C95.5619 75.2142 96.1416 73.3109 96.1426 71.3636C96.144 68.7524 95.1058 66.2475 93.2564 64.4001C91.4069 62.5527 88.8977 61.5141 86.2808 61.5127H86.2808ZM106.84 47.4323C107.732 47.4368 108.59 47.0874 109.224 46.4608C109.859 45.8342 110.217 44.9819 110.222 44.0913C110.222 44.08 110.222 44.0686 110.222 44.0572C110.226 43.621 110.144 43.1881 109.981 42.7834C109.817 42.3788 109.575 42.0102 109.269 41.6988C108.963 41.3873 108.598 41.1391 108.196 40.9683C107.794 40.7975 107.361 40.7074 106.924 40.7033C106.903 40.7031 106.882 40.7031 106.861 40.7033C105.966 40.6949 105.105 41.0413 104.467 41.6663C103.829 42.2913 103.466 43.1437 103.457 44.036C103.449 44.9283 103.796 45.7874 104.422 46.4243C105.049 47.0612 105.903 47.4238 106.797 47.4322C106.811 47.4323 106.825 47.4324 106.84 47.4323ZM113.911 64.4658C115.52 64.4554 117.082 65.0025 118.332 66.0138C119.582 67.025 120.441 68.4377 120.763 70.0107C121.085 71.5836 120.85 73.2193 120.098 74.6385C119.345 76.0578 118.123 77.1725 116.639 77.7925C115.155 78.4125 113.501 78.4993 111.96 78.038C110.419 77.5768 109.086 76.5961 108.189 75.2634C107.292 73.9307 106.886 72.3286 107.041 70.7306C107.196 69.1327 107.902 67.6379 109.038 66.5014C109.675 65.8574 110.434 65.3459 111.27 64.9965C112.107 64.6471 113.004 64.4667 113.911 64.4658ZM113.911 61.5127C111.96 61.5127 110.054 62.0898 108.432 63.1711C106.81 64.2523 105.546 65.7892 104.8 67.5873C104.053 69.3854 103.858 71.364 104.239 73.2729C104.619 75.1817 105.558 76.9351 106.938 78.3113C108.317 79.6875 110.074 80.6247 111.987 81.0044C113.9 81.3841 115.883 81.1893 117.685 80.4445C119.487 79.6997 121.027 78.4384 122.111 76.8201C123.194 75.2019 123.773 73.2993 123.773 71.3531C123.773 70.0608 123.518 68.7812 123.022 67.5873C122.526 66.3934 121.8 65.3086 120.884 64.3949C119.969 63.4811 118.881 62.7562 117.685 62.2617C116.488 61.7672 115.206 61.5127 113.911 61.5127Z" fill="#E6E6E6"/>
<path d="M111.934 54.2035H106.861L103.743 47.8648C103.491 47.4203 103.139 47.0401 102.716 46.7541C102.292 46.4681 101.807 46.2842 101.3 46.2167C100.793 46.1492 100.277 46.2001 99.7931 46.3653C99.309 46.5304 98.8699 46.8054 98.5104 47.1686L90.9316 54.4567C90.3113 55.0885 89.9592 55.9348 89.9486 56.8192C89.9486 58.6544 91.2804 59.3084 91.904 59.6775C96.7134 62.4408 98.4046 62.7467 98.4046 64.1283V71.0789C98.4046 71.5264 98.5828 71.9557 98.9 72.2721C99.2171 72.5886 99.6473 72.7664 100.096 72.7664C100.544 72.7664 100.975 72.5886 101.292 72.2721C101.609 71.9557 101.787 71.5264 101.787 71.0789V61.5865C101.787 60.1943 98.5737 59.0552 96.6817 57.5786L101.85 52.1469C103.827 55.1528 104.736 57.5786 105.867 57.5786H111.934C112.383 57.5793 112.813 57.4022 113.131 57.0863C113.449 56.7703 113.627 56.3414 113.628 55.8938C113.629 55.4463 113.451 55.0167 113.135 54.6998C112.818 54.3828 112.388 54.2043 111.94 54.2036H111.934V54.2035Z" fill="#E6E6E6"/>
<path d="M52.0114 149.977C50.5545 149.977 49.3483 154.21 49.1145 159.759H21.087C20.8532 154.21 19.647 149.977 18.1901 149.977C16.5659 149.977 15.2491 155.233 15.2491 161.716C15.2491 168.199 16.5659 173.454 18.1901 173.454C19.647 173.454 20.8532 169.222 21.087 163.672H49.1145C49.3483 169.222 50.5545 173.454 52.0114 173.454C53.6356 173.454 54.9524 168.199 54.9524 161.716C54.9524 155.233 53.6356 149.977 52.0114 149.977Z" fill="#E6E6E6"/>
<path d="M65.6638 144.385C61.5097 136.956 54.7841 131.292 46.7464 128.454C38.7086 125.617 29.91 125.8 21.9978 128.969C14.0857 132.139 7.60264 138.078 3.76261 145.673C-0.077417 153.269 -1.01111 162.001 1.13637 170.234C3.28385 178.467 8.36523 185.637 15.4291 190.401C22.4929 195.165 31.0548 197.196 39.5115 196.115C47.9683 195.033 55.7401 190.913 61.3716 184.526C67.0032 178.138 70.1083 169.922 70.1056 161.414C70.1037 155.453 68.5747 149.591 65.6638 144.385ZM35.0449 193.597C26.5472 193.553 18.4136 190.149 12.428 184.13C6.4423 178.111 3.0932 169.969 3.11518 161.49C3.13717 153.011 6.52845 144.886 12.5453 138.899C18.5621 132.911 26.7132 129.548 35.211 129.549C43.7087 129.549 51.8594 132.913 57.8755 138.901C63.8915 144.89 67.2817 153.015 67.3026 161.494C67.3234 169.974 63.9733 178.115 57.9868 184.133C52.0004 190.151 43.8663 193.554 35.3687 193.597C35.2607 193.597 35.1528 193.597 35.0449 193.597Z" fill="#E6E6E6"/>
<path d="M35.062 196.574C28.3815 196.577 21.8384 194.681 16.1985 191.109C15.9169 190.929 15.6995 190.666 15.5777 190.355L15.5601 190.31C15.4376 190.002 15.4175 189.663 15.5026 189.344C15.5878 189.024 15.7737 188.74 16.0329 188.533C16.2835 188.323 16.5952 188.199 16.922 188.179C17.2488 188.159 17.5733 188.244 17.8477 188.423C23.8424 192.23 30.9348 193.943 38.0107 193.291C45.0867 192.639 51.7452 189.661 56.9403 184.823C62.1354 179.985 65.5727 173.562 66.7122 166.563C67.8516 159.565 66.6286 152.386 63.2354 146.156C63.0764 145.871 63.0134 145.542 63.056 145.218C63.0985 144.894 63.2443 144.592 63.4717 144.357C63.6964 144.113 63.9936 143.948 64.3195 143.885C64.6455 143.822 64.983 143.866 65.2823 144.009L65.3262 144.03C65.6264 144.17 65.8743 144.402 66.034 144.692C68.9385 150.044 70.4002 156.057 70.2761 162.143C70.1519 168.228 68.4461 174.177 65.3256 179.407C62.2052 184.637 57.7771 188.968 52.4749 191.978C47.1728 194.987 41.1783 196.571 35.0784 196.574H35.062Z" fill="#4D8F6A"/>
<path d="M164.183 126.436C159.578 126.434 155.018 127.337 150.763 129.094C146.508 130.851 142.641 133.427 139.384 136.675C136.127 139.923 133.543 143.78 131.779 148.024C130.016 152.269 129.108 156.819 129.107 161.414C129.106 166.009 130.013 170.559 131.775 174.805C133.536 179.05 136.119 182.908 139.375 186.157C142.631 189.406 146.497 191.984 150.751 193.742C155.006 195.5 159.566 196.405 164.171 196.405H164.183C164.411 196.405 164.633 196.405 164.861 196.395C174.099 196.218 182.894 192.409 189.332 185.796C195.771 179.182 199.333 170.301 199.243 161.081C199.154 151.861 195.421 143.05 188.856 136.562C182.29 130.074 173.424 126.435 164.183 126.436V126.436ZM171.329 192.804C166.904 193.807 162.316 193.867 157.866 192.98C153.416 192.092 149.203 190.278 145.504 187.655C141.804 185.032 138.701 181.66 136.397 177.759C134.093 173.857 132.64 169.515 132.133 165.015C131.626 160.515 132.076 155.959 133.454 151.645C134.832 147.33 137.107 143.354 140.13 139.977C143.154 136.6 146.857 133.897 150.998 132.046C155.14 130.195 159.626 129.236 164.165 129.233H164.184C172.116 129.233 179.771 132.149 185.684 137.424C191.598 142.7 195.356 149.965 196.24 157.831C197.124 165.697 195.072 173.612 190.477 180.064C185.882 186.516 179.065 191.051 171.329 192.804Z" fill="#E6E6E6"/>
<path d="M164.183 196.58C155.488 196.58 147.099 193.372 140.631 187.572C134.163 181.772 130.073 173.791 129.147 165.163C128.221 156.536 130.526 147.871 135.616 140.836C140.707 133.802 148.225 128.894 156.723 127.057C156.932 127.012 157.148 127.009 157.358 127.048L157.431 127.062C157.784 127.131 158.102 127.318 158.332 127.593C158.563 127.868 158.691 128.214 158.695 128.573C158.699 128.931 158.579 129.28 158.355 129.56C158.132 129.841 157.818 130.036 157.467 130.112C149.72 131.769 142.861 136.228 138.213 142.63C133.564 149.032 131.453 156.924 132.288 164.786C133.122 172.648 136.843 179.924 142.733 185.212C148.623 190.5 156.265 193.427 164.188 193.428C164.498 193.425 164.799 193.423 165.105 193.415C165.446 193.4 165.782 193.507 166.052 193.714C166.323 193.922 166.511 194.218 166.585 194.551C166.666 194.872 166.63 195.212 166.484 195.51C166.338 195.807 166.091 196.044 165.787 196.177V196.177C165.58 196.272 165.373 196.364 165.165 196.455C164.989 196.533 164.8 196.574 164.608 196.578C164.467 196.58 164.326 196.58 164.183 196.58Z" fill="#4D8F6A"/>
<path d="M181.48 159.933C180.546 159.886 179.622 160.146 178.85 160.672C178.077 161.198 177.498 161.962 177.202 162.847H173.749L171.228 155.283C171.135 155 170.954 154.753 170.712 154.578C170.469 154.403 170.178 154.309 169.879 154.309H169.852C169.549 154.313 169.255 154.416 169.015 154.601C168.775 154.786 168.602 155.044 168.521 155.336L164.571 169.091L159.929 141.271C159.875 140.949 159.712 140.656 159.466 140.44C159.221 140.224 158.909 140.098 158.582 140.085C158.255 140.071 157.933 140.17 157.671 140.365C157.409 140.561 157.222 140.84 157.142 141.156L152.437 162.847H147.165C146.788 162.847 146.427 162.996 146.16 163.262C145.894 163.528 145.745 163.888 145.745 164.264C145.745 164.64 145.894 165 146.16 165.266C146.427 165.532 146.788 165.681 147.165 165.681H153.556C153.872 165.681 154.179 165.576 154.429 165.382C154.678 165.188 154.855 164.916 154.931 164.609L158.251 148.472L162.805 175.742C162.857 176.06 163.016 176.35 163.257 176.565C163.498 176.779 163.805 176.905 164.127 176.92H164.207C164.516 176.92 164.816 176.82 165.062 176.634C165.309 176.449 165.488 176.189 165.574 175.893L169.985 160.517L171.379 164.707C171.474 164.989 171.655 165.235 171.897 165.41C172.139 165.584 172.429 165.679 172.728 165.681H177.264C177.535 166.398 177.995 167.028 178.596 167.505C179.196 167.982 179.915 168.289 180.675 168.392C181.436 168.496 182.21 168.392 182.917 168.092C183.624 167.793 184.236 167.308 184.689 166.69C185.143 166.072 185.42 165.343 185.493 164.581C185.565 163.818 185.43 163.05 185.101 162.358C184.773 161.666 184.263 161.075 183.625 160.648C182.988 160.221 182.247 159.974 181.48 159.933H181.48Z" fill="#E6E6E6"/>
<path d="M319.649 255H255.362C255.269 255 255.179 254.963 255.113 254.897C255.047 254.832 255.01 254.742 255.01 254.649C255.01 254.557 255.047 254.467 255.113 254.402C255.179 254.336 255.269 254.299 255.362 254.299H319.649C319.742 254.299 319.831 254.336 319.897 254.402C319.963 254.467 320 254.557 320 254.649C320 254.742 319.963 254.832 319.897 254.897C319.831 254.963 319.742 255 319.649 255Z" fill="#3F3D56"/>
</svg>
