<svg width="101" height="31" viewBox="0 0 101 31" fill="none" xmlns="http://www.w3.org/2000/svg">
<g filter="url(#filter0_d)">
<path d="M46.3203 22H44.624V16.085H38.1729V22H36.4854V9.20312H38.1729V14.7051H44.624V9.20312H46.3203V22ZM54.9336 22C54.8398 21.8125 54.7637 21.4785 54.7051 20.998C53.9492 21.7832 53.0469 22.1758 51.998 22.1758C51.0605 22.1758 50.29 21.9121 49.6865 21.3848C49.0889 20.8516 48.79 20.1777 48.79 19.3633C48.79 18.373 49.165 17.6055 49.915 17.0605C50.6709 16.5098 51.7314 16.2344 53.0967 16.2344H54.6787V15.4873C54.6787 14.9189 54.5088 14.4678 54.1689 14.1338C53.8291 13.7939 53.3281 13.624 52.666 13.624C52.0859 13.624 51.5996 13.7705 51.207 14.0635C50.8145 14.3564 50.6182 14.7109 50.6182 15.127H48.9834C48.9834 14.6523 49.1504 14.1953 49.4844 13.7559C49.8242 13.3105 50.2812 12.959 50.8555 12.7012C51.4355 12.4434 52.0713 12.3145 52.7627 12.3145C53.8584 12.3145 54.7168 12.5898 55.3379 13.1406C55.959 13.6855 56.2812 14.4385 56.3047 15.3994V19.7764C56.3047 20.6494 56.416 21.3438 56.6387 21.8594V22H54.9336ZM52.2354 20.7607C52.7451 20.7607 53.2285 20.6289 53.6855 20.3652C54.1426 20.1016 54.4736 19.7588 54.6787 19.3369V17.3857H53.4043C51.4121 17.3857 50.416 17.9688 50.416 19.1348C50.416 19.6445 50.5859 20.043 50.9258 20.3301C51.2656 20.6172 51.7021 20.7607 52.2354 20.7607ZM66.9043 17.3506C66.9043 18.8037 66.5703 19.9727 65.9023 20.8574C65.2344 21.7363 64.3379 22.1758 63.2129 22.1758C62.0117 22.1758 61.083 21.751 60.4268 20.9014L60.3477 22H58.8535V8.5H60.4795V13.5361C61.1357 12.7217 62.041 12.3145 63.1953 12.3145C64.3496 12.3145 65.2549 12.751 65.9111 13.624C66.5732 14.4971 66.9043 15.6924 66.9043 17.21V17.3506ZM65.2783 17.166C65.2783 16.0586 65.0645 15.2031 64.6367 14.5996C64.209 13.9961 63.5938 13.6943 62.791 13.6943C61.7188 13.6943 60.9482 14.1924 60.4795 15.1885V19.3018C60.9775 20.2979 61.7539 20.7959 62.8086 20.7959C63.5879 20.7959 64.1943 20.4941 64.6279 19.8906C65.0615 19.2871 65.2783 18.3789 65.2783 17.166ZM70.7275 22H69.1016V12.4902H70.7275V22ZM68.9697 9.96777C68.9697 9.7041 69.0488 9.48145 69.207 9.2998C69.3711 9.11816 69.6113 9.02734 69.9277 9.02734C70.2441 9.02734 70.4844 9.11816 70.6484 9.2998C70.8125 9.48145 70.8945 9.7041 70.8945 9.96777C70.8945 10.2314 70.8125 10.4512 70.6484 10.627C70.4844 10.8027 70.2441 10.8906 69.9277 10.8906C69.6113 10.8906 69.3711 10.8027 69.207 10.627C69.0488 10.4512 68.9697 10.2314 68.9697 9.96777ZM75.5439 10.1875V12.4902H77.3193V13.7471H75.5439V19.6445C75.5439 20.0254 75.623 20.3125 75.7812 20.5059C75.9395 20.6934 76.209 20.7871 76.5898 20.7871C76.7773 20.7871 77.0352 20.752 77.3633 20.6816V22C76.9355 22.1172 76.5195 22.1758 76.1152 22.1758C75.3887 22.1758 74.8408 21.9561 74.4717 21.5166C74.1025 21.0771 73.918 20.4531 73.918 19.6445V13.7471H72.1865V12.4902H73.918V10.1875H75.5439ZM85.0977 21.0596C84.4648 21.8037 83.5361 22.1758 82.3115 22.1758C81.2979 22.1758 80.5244 21.8828 79.9912 21.2969C79.4639 20.7051 79.1973 19.832 79.1914 18.6777V12.4902H80.8174V18.6338C80.8174 20.0752 81.4033 20.7959 82.5752 20.7959C83.8174 20.7959 84.6436 20.333 85.0537 19.4072V12.4902H86.6797V22H85.1328L85.0977 21.0596ZM93.1045 22.1758C91.8154 22.1758 90.7666 21.7539 89.958 20.9102C89.1494 20.0605 88.7451 18.9268 88.7451 17.5088V17.21C88.7451 16.2666 88.9238 15.4258 89.2812 14.6875C89.6445 13.9434 90.1484 13.3633 90.793 12.9473C91.4434 12.5254 92.1465 12.3145 92.9023 12.3145C94.1387 12.3145 95.0996 12.7217 95.7852 13.5361C96.4707 14.3506 96.8135 15.5166 96.8135 17.0342V17.7109H90.3711C90.3945 18.6484 90.667 19.4072 91.1885 19.9873C91.7158 20.5615 92.3838 20.8486 93.1924 20.8486C93.7666 20.8486 94.2529 20.7314 94.6514 20.4971C95.0498 20.2627 95.3984 19.9521 95.6973 19.5654L96.6904 20.3389C95.8936 21.5635 94.6982 22.1758 93.1045 22.1758ZM92.9023 13.6504C92.2461 13.6504 91.6953 13.8906 91.25 14.3711C90.8047 14.8457 90.5293 15.5137 90.4238 16.375H95.1875V16.252C95.1406 15.4258 94.918 14.7871 94.5195 14.3359C94.1211 13.8789 93.582 13.6504 92.9023 13.6504Z" fill="white"/>
</g>
<path d="M-7.15256e-07 15C-7.15256e-07 18.9782 1.58035 22.7935 4.3934 25.6066C7.20644 28.4196 11.0218 30 15 30C18.9782 30 22.7936 28.4196 25.6066 25.6066C28.4196 22.7935 30 18.9782 30 15C30 14.5245 29.9772 14.0568 29.934 13.594C29.5725 9.75461 27.7462 6.2019 24.8342 3.67358C21.9223 1.14527 18.1484 -0.164395 14.2963 0.016532C10.4441 0.197459 6.80962 1.85508 4.14746 4.6452C1.4853 7.43532 1.88142e-05 11.1436 -7.15256e-07 15V15Z" fill="white"/>
<path d="M19.4361 16.01C19.075 15.5255 18.5999 15.1418 18.0549 14.8944C17.3827 14.6053 16.6885 14.3726 15.9793 14.1987V10.0607C17.0695 10.2284 18.092 10.7041 18.9311 11.434L19.7543 9.64329C19.2808 9.2129 18.7373 8.87022 18.1483 8.6307C17.4954 8.36093 16.8101 8.18156 16.1106 8.09734V6H14.2042V8.11795C13.4681 8.20233 12.7579 8.44563 12.121 8.83167C11.5457 9.17914 11.0614 9.66359 10.7094 10.2436C10.3736 10.8097 10.1996 11.4603 10.207 12.122C10.1742 12.839 10.3778 13.5466 10.7852 14.1317C11.1603 14.6383 11.6556 15.0391 12.2245 15.2963C12.9074 15.5939 13.6135 15.8326 14.3355 16.01V19.9754C13.049 19.8764 11.8231 19.3773 10.8231 18.5454L10 20.3387C10.5591 20.8104 11.195 21.1784 11.8786 21.426C12.6278 21.6995 13.4104 21.866 14.2042 21.9207V24H16.1106V21.8821C17.1695 21.764 18.1625 21.2994 18.9412 20.5577C19.2841 20.2221 19.555 19.8175 19.7367 19.3696C19.9184 18.9216 20.0069 18.44 19.9967 17.9553C20.0284 17.2612 19.831 16.5762 19.4361 16.01V16.01ZM14.3355 13.7607C13.8711 13.617 13.4394 13.3805 13.0653 13.065C12.9172 12.9305 12.8 12.7641 12.7223 12.5779C12.6446 12.3917 12.6083 12.1902 12.6159 11.988C12.6022 11.5291 12.7674 11.0833 13.0755 10.7486C13.417 10.3975 13.8576 10.1642 14.3355 10.0813V13.7607ZM17.1762 19.2436C16.8541 19.5807 16.4346 19.8038 15.9793 19.88V16.4687C16.4145 16.5878 16.8216 16.7955 17.1762 17.0793C17.3106 17.1964 17.4174 17.343 17.4887 17.508C17.5599 17.6731 17.5938 17.8524 17.5878 18.0326C17.6053 18.4748 17.4583 18.9074 17.1762 19.2436V19.2436Z" fill="#6ADB7E"/>
<defs>
<filter id="filter0_d" x="32.4854" y="8.5" width="68.3281" height="21.6758" filterUnits="userSpaceOnUse" color-interpolation-filters="sRGB">
<feFlood flood-opacity="0" result="BackgroundImageFix"/>
<feColorMatrix in="SourceAlpha" type="matrix" values="0 0 0 0 0 0 0 0 0 0 0 0 0 0 0 0 0 0 127 0"/>
<feOffset dy="4"/>
<feGaussianBlur stdDeviation="2"/>
<feColorMatrix type="matrix" values="0 0 0 0 0 0 0 0 0 0 0 0 0 0 0 0 0 0 0.25 0"/>
<feBlend mode="normal" in2="BackgroundImageFix" result="effect1_dropShadow"/>
<feBlend mode="normal" in="SourceGraphic" in2="effect1_dropShadow" result="shape"/>
</filter>
</defs>
</svg>
