<svg width="30" height="30" viewBox="0 0 30 30" fill="none" xmlns="http://www.w3.org/2000/svg">
<path d="M-7.15256e-07 15C-7.15256e-07 18.9782 1.58035 22.7935 4.3934 25.6066C7.20644 28.4196 11.0218 30 15 30C18.9782 30 22.7936 28.4196 25.6066 25.6066C28.4196 22.7935 30 18.9782 30 15C30 14.5245 29.9772 14.0568 29.934 13.594C29.5725 9.75461 27.7462 6.2019 24.8342 3.67358C21.9223 1.14527 18.1484 -0.164395 14.2963 0.016532C10.4441 0.197459 6.80962 1.85508 4.14746 4.6452C1.4853 7.43532 1.88142e-05 11.1436 -7.15256e-07 15V15Z" fill="white"/>
<line x1="7" y1="15" x2="22" y2="15" stroke="#464353" stroke-width="2"/>
<line x1="7" y1="11" x2="22" y2="11" stroke="#464353" stroke-width="2"/>
<line x1="7" y1="19" x2="22" y2="19" stroke="#464353" stroke-width="2"/>
</svg>
