<svg width="465" height="403" viewBox="0 0 465 403" fill="none" xmlns="http://www.w3.org/2000/svg">
<path d="M180.834 321.836C184.355 318.421 188.669 316.243 193.623 316.045C197.942 315.873 202.175 316.821 206.384 317.633L259.594 327.901C264.151 328.78 267.792 333.564 266.699 338.288C265.615 342.972 261.234 346.39 256.349 345.447C240.762 342.44 225.175 339.432 209.588 336.424C205.914 335.715 202.244 334.967 198.561 334.299C197.734 334.149 196.903 334.04 196.076 333.897C195.876 333.862 195.732 333.834 195.63 333.811C195.603 333.814 195.58 333.817 195.545 333.82C195.093 333.859 194.636 333.859 194.182 333.892C194.333 333.925 193.85 334.116 193.615 334.168C193.574 334.222 193.491 334.315 193.355 334.457C193.155 334.71 192.559 335.478 192.546 335.447C191.576 337.003 190.713 338.623 189.964 340.297C188.235 343.973 187.863 344.74 187.046 348.338C186.015 352.884 181.502 356.611 176.697 355.497C172.164 354.446 168.486 349.985 169.592 345.11C171.456 336.895 174.62 327.865 180.834 321.836Z" fill="#E6E6E6"/>
<path d="M251.28 355.339C253.409 349.427 255.519 343.508 257.666 337.603C259.845 331.612 263.006 326.342 268.542 323.17C270.021 322.322 271.534 321.556 273.052 320.793C273.586 320.525 274.119 320.256 274.649 319.979C274.68 319.962 274.7 319.952 274.728 319.938C274.787 319.903 274.857 319.862 274.952 319.808C277.261 318.48 279.516 317.064 281.7 315.519C283.64 314.147 285.521 312.691 287.345 311.15C287.801 310.765 288.252 310.376 288.7 309.981C288.777 309.913 289.193 309.539 289.467 309.296C289.725 309.049 290.196 308.604 290.276 308.526C290.81 308.003 291.338 307.472 291.86 306.935C295.414 303.263 298.639 299.283 301.498 295.042C301.782 294.622 302.061 294.198 302.336 293.77C302.413 293.638 302.512 293.469 302.644 293.243C303.255 292.201 303.865 291.159 304.444 290.096C305.674 287.839 306.8 285.527 307.822 283.158C308.327 281.989 308.806 280.808 309.258 279.616C309.49 279.003 309.716 278.387 309.934 277.769C309.97 277.666 310.195 276.997 310.325 276.619C310.439 276.237 310.647 275.561 310.677 275.456C310.86 274.826 311.035 274.194 311.204 273.559C311.583 272.132 311.927 270.696 312.235 269.251C312.779 266.682 313.21 264.093 313.529 261.482C313.706 260.015 313.845 258.545 313.953 257.072C313.96 256.982 313.966 256.91 313.97 256.845C313.973 256.779 313.975 256.703 313.979 256.61C314.009 255.79 314.032 254.971 314.041 254.151C314.075 251.039 313.947 247.927 313.656 244.829C313.518 243.363 313.343 241.903 313.133 240.447C313.039 239.801 312.938 239.156 312.829 238.512C312.837 238.554 312.49 236.739 312.492 236.681C311.026 229.985 307.795 223.531 309.094 216.473C309.974 211.695 314.841 207.861 319.511 208.953C321.843 209.477 323.88 210.89 325.193 212.894C326.506 214.899 326.992 217.34 326.549 219.701C326.529 219.808 326.512 219.9 326.496 219.989C326.513 220.146 326.527 220.277 326.539 220.393C326.843 221.601 327.272 222.775 327.631 223.965C328.614 227.223 329.355 230.536 330.021 233.882C331.118 239.334 331.703 244.877 331.771 250.44C331.9 262.626 329.844 274.74 325.703 286.201C318.485 306.309 303.656 324.093 285.675 334.565C284.114 335.474 282.528 336.338 280.934 337.176C280.274 337.523 279.61 337.861 278.945 338.195C278.63 338.354 277.319 339.048 277.903 338.702C276.651 339.43 276.109 339.813 275.705 340.445C275.636 340.595 275.541 340.799 275.413 341.077C275.074 341.812 274.746 342.546 274.447 343.299C271.834 349.877 269.612 356.645 267.213 363.308C265.565 367.886 259.214 369.89 255.298 367.702C250.739 365.155 249.514 360.245 251.28 355.339Z" fill="#E6E6E6"/>
<path d="M173.016 359.179C176.679 359.867 180.467 359.065 183.548 356.951C186.63 354.836 188.753 351.581 189.452 347.9L191.303 337.892C201.509 340.993 237.251 347.322 247.788 347.561L245.872 357.92C245.219 361.607 246.041 365.401 248.161 368.475C250.281 371.549 253.526 373.654 257.188 374.332C260.85 375.009 264.633 374.204 267.712 372.091C270.791 369.978 272.917 366.729 273.625 363.053L277.386 342.714C292.674 337.538 306.319 328.359 316.911 316.124C327.504 303.889 334.661 289.041 337.643 273.112C342.696 245.789 335.092 218.022 316.78 196.932C304.881 183.182 289.156 173.327 271.625 168.635C269.246 167.998 266.834 167.453 264.457 167.013C256.083 165.464 218.061 159.778 208.075 160.766L190.447 135.207C190.188 134.827 189.823 134.534 189.397 134.363C188.972 134.193 188.505 134.154 188.057 134.251C187.607 134.341 187.194 134.566 186.873 134.896C186.551 135.226 186.337 135.646 186.257 136.1L185.623 139.528L182.189 134.559C181.931 134.179 181.567 133.885 181.141 133.714C180.716 133.544 180.249 133.505 179.801 133.603C179.351 133.693 178.938 133.917 178.616 134.247C178.295 134.577 178.08 134.997 178 135.452L170.915 173.76C158.251 181.584 147.697 192.423 140.189 205.316C132.68 218.209 128.449 232.758 127.871 247.674C127.292 262.59 130.383 277.412 136.871 290.827C143.359 304.242 153.042 315.836 165.063 324.58L161.7 342.768C161.036 346.456 161.855 350.254 163.976 353.331C166.098 356.408 169.349 358.511 173.016 359.179V359.179ZM190.442 336.447L188.362 347.698C187.707 351.084 185.748 354.075 182.912 356.02C180.075 357.965 176.591 358.706 173.218 358.082C169.845 357.458 166.857 355.52 164.904 352.689C162.951 349.859 162.191 346.365 162.791 342.969L166.282 324.089L165.998 323.883C152.507 314.088 141.987 300.722 135.609 285.269C127.485 265.553 126.659 243.552 133.279 223.249C139.9 202.946 153.531 185.682 171.704 174.581L171.916 174.451L179.091 135.653C179.13 135.417 179.241 135.198 179.408 135.027C179.575 134.855 179.791 134.739 180.025 134.695C180.26 134.641 180.505 134.661 180.728 134.75C180.951 134.839 181.142 134.994 181.276 135.194L186.228 142.359L187.348 136.302C187.388 136.065 187.498 135.846 187.666 135.675C187.833 135.504 188.048 135.388 188.282 135.343C188.517 135.29 188.763 135.309 188.986 135.399C189.21 135.488 189.401 135.644 189.535 135.845L207.54 161.95L207.872 161.91C217.197 160.767 255.817 166.549 264.255 168.11C266.603 168.544 268.986 169.083 271.338 169.713C288.655 174.348 304.189 184.082 315.943 197.666C334.032 218.499 341.543 245.924 336.553 272.911C333.595 288.698 326.487 303.409 315.966 315.517C305.446 327.625 291.896 336.687 276.725 341.762L276.415 341.867L272.534 362.851C271.879 366.236 269.92 369.226 267.084 371.171C264.248 373.115 260.764 373.856 257.391 373.233C254.019 372.609 251.03 370.671 249.077 367.841C247.124 365.011 246.364 361.517 246.963 358.122L249.121 346.45L248.452 346.453C238.937 346.492 200.172 339.606 191.044 336.642L190.442 336.447Z" fill="#3F3D56"/>
<path d="M295.393 110.979L352.422 140.398C354.236 141.336 355.603 142.96 356.224 144.913C356.845 146.866 356.669 148.988 355.734 150.813C354.799 152.638 353.182 154.017 351.238 154.647C349.295 155.277 347.183 155.106 345.368 154.172L295.462 128.424L294.416 127.884C295.253 122.107 294.741 116.215 292.922 110.675C293.296 110.583 293.683 110.555 294.066 110.592C294.529 110.632 294.981 110.763 295.393 110.979Z" fill="#6ADB7E"/>
<path d="M345.693 158.256C346.495 158.402 347.323 158.291 348.06 157.939C348.797 157.587 349.406 157.011 349.8 156.293L355.697 145.533C355.943 145.084 356.099 144.591 356.155 144.081C356.212 143.572 356.168 143.056 356.026 142.564C355.884 142.072 355.648 141.613 355.329 141.213C355.011 140.813 354.617 140.481 354.17 140.234L308.036 114.764C307.59 114.517 307.099 114.361 306.592 114.306C306.085 114.25 305.572 114.295 305.082 114.438C304.593 114.581 304.135 114.82 303.737 115.141C303.339 115.461 303.007 115.858 302.761 116.307L296.864 127.066C296.376 127.951 296.249 128.991 296.51 129.966C296.771 130.941 297.4 131.776 298.263 132.292C298.306 132.318 298.348 132.342 298.392 132.366L344.524 157.836C344.889 158.038 345.283 158.18 345.693 158.256Z" fill="#2F2E41"/>
<path d="M264.176 84.1615C274.098 86.0003 282.911 91.648 288.75 99.9092C294.589 108.17 296.996 118.397 295.462 128.424C295.4 128.815 295.333 129.211 295.26 129.606C293.856 137.197 290.244 144.204 284.881 149.74C279.519 155.276 272.646 159.093 265.131 160.708C257.617 162.323 249.8 161.663 242.667 158.812C235.534 155.961 229.407 151.048 225.06 144.692C220.713 138.337 218.341 130.825 218.245 123.107C218.149 115.389 220.332 107.811 224.519 101.332C228.706 94.8531 234.708 89.7635 241.767 86.7072C248.826 83.6508 256.625 82.7649 264.176 84.1615V84.1615ZM250.182 159.831C260.018 161.639 270.174 159.451 278.42 153.747C286.667 148.042 292.33 139.288 294.169 129.404C294.263 128.894 294.346 128.387 294.416 127.884C295.471 120.526 294.352 113.022 291.196 106.306C288.04 99.5899 282.988 93.9578 276.667 90.11C270.347 86.2623 263.036 84.3686 255.646 84.6645C248.255 84.9604 241.109 87.4328 235.098 91.7743C229.087 96.1157 224.475 102.135 221.835 109.083C219.196 116.031 218.645 123.602 220.253 130.854C221.86 138.105 225.554 144.718 230.875 149.87C236.197 155.022 242.911 158.486 250.182 159.831V159.831Z" fill="#3F3D56"/>
<path d="M224.896 116.593C223.309 125.173 225.178 134.029 230.091 141.212C235.005 148.395 242.56 153.317 251.095 154.896C259.63 156.474 268.446 154.58 275.603 149.629C282.761 144.678 287.673 137.076 289.26 128.496C289.449 127.471 289.587 126.453 289.679 125.438C290.435 117.013 287.933 108.626 282.694 102.018C277.455 95.4098 269.881 91.0878 261.544 89.9496C253.208 88.8114 244.749 90.9444 237.924 95.9058C231.1 100.867 226.434 108.276 224.896 116.593V116.593Z" fill="white"/>
<path d="M266.262 126.466C265.672 125.29 264.797 124.284 263.717 123.54C262.379 122.656 260.971 121.884 259.507 121.23L261.136 112.424C263.425 113.216 265.447 114.637 266.972 116.526L269.455 113.044C268.602 111.939 267.562 110.992 266.384 110.247C265.08 109.412 263.67 108.757 262.192 108.298L263.018 103.835L258.9 103.073L258.066 107.58C256.443 107.466 254.813 107.7 253.285 108.267C251.906 108.777 250.669 109.614 249.68 110.708C248.732 111.778 248.1 113.093 247.856 114.505C247.503 116.017 247.664 117.604 248.314 119.012C248.925 120.24 249.837 121.291 250.964 122.066C252.322 122.972 253.754 123.762 255.244 124.428L253.683 132.867C250.943 132.142 248.491 130.59 246.659 128.42L244.175 131.908C245.197 133.135 246.426 134.172 247.805 134.972C249.315 135.854 250.941 136.521 252.634 136.954L251.816 141.379L255.934 142.141L256.767 137.634C259.101 137.805 261.429 137.213 263.403 135.946C264.276 135.369 265.02 134.616 265.589 133.735C266.158 132.855 266.539 131.865 266.707 130.83C267.049 129.365 266.892 127.828 266.262 126.466V126.466ZM256.129 119.641C255.182 119.15 254.343 118.474 253.659 117.653C253.392 117.308 253.204 116.907 253.11 116.48C253.015 116.052 253.016 115.609 253.112 115.182C253.263 114.2 253.795 113.317 254.592 112.728C255.468 112.117 256.512 111.796 257.577 111.811L256.129 119.641ZM260.107 132.444C259.279 133.033 258.285 133.34 257.271 133.321L258.614 126.061C259.507 126.488 260.305 127.093 260.959 127.838C261.203 128.141 261.377 128.496 261.465 128.876C261.554 129.255 261.557 129.651 261.473 130.032C261.337 130.98 260.849 131.842 260.107 132.444V132.444Z" fill="#6ADB7E"/>
<path d="M335.352 204.369C336.195 204.523 337.066 204.394 337.83 204C338.594 203.607 339.208 202.971 339.576 202.192L343.08 194.748C343.519 193.812 343.571 192.74 343.225 191.767C342.879 190.794 342.163 189.999 341.233 189.557L279.543 160.325C278.612 159.888 277.545 159.839 276.576 160.189C275.607 160.54 274.815 161.262 274.374 162.197L271.406 168.504L271.727 168.589C288.126 172.967 302.924 181.976 314.372 194.549L314.458 194.613L334.406 204.063C334.707 204.206 335.025 204.308 335.352 204.369V204.369Z" fill="#2F2E41"/>
<path d="M338.949 245.005C346.768 245.283 354.558 243.862 361.788 240.841C365.37 239.346 368.778 237.46 371.952 235.219C375.085 233.006 378.171 230.403 380.141 227.048C382.011 223.953 382.628 220.257 381.863 216.723C381.114 213.213 379.01 210.147 376.011 208.198C372.987 206.284 369.065 205.414 365.62 206.26C363.982 206.647 362.475 207.466 361.253 208.631C360.687 209.168 360.223 209.804 359.885 210.509C359.574 211.147 359.426 211.852 359.454 212.561C359.515 213.275 359.727 213.968 360.076 214.592C360.425 215.216 360.903 215.758 361.478 216.181C362.735 217.155 364.155 217.895 365.672 218.367C367.193 218.869 369.398 219.478 370.885 218.451C371.189 218.25 371.448 217.986 371.644 217.678C371.786 217.44 371.869 217.172 371.886 216.896C371.882 217.018 371.858 216.623 371.861 216.639C371.87 216.699 371.931 216.851 371.848 216.619C371.822 216.543 371.792 216.468 371.757 216.396C371.789 216.458 371.863 216.565 371.729 216.38C371.622 216.208 371.469 216.068 371.288 215.979C371.216 215.942 371.143 215.911 371.071 215.876C370.889 215.787 371.262 215.914 371.067 215.871C370.991 215.855 370.914 215.843 370.839 215.825C370.647 215.781 371.039 215.808 370.846 215.82C370.77 215.825 370.696 215.83 370.621 215.839C370.458 215.859 370.751 215.746 370.624 215.848C370.476 215.967 370.778 215.733 370.614 215.845C370.532 215.9 370.453 215.961 370.379 216.025C370.094 216.22 369.744 216.294 369.406 216.231C369.067 216.168 368.767 215.974 368.57 215.691C368.383 215.403 368.313 215.053 368.376 214.715C368.439 214.376 368.629 214.075 368.907 213.873C370.458 212.535 372.876 213.384 373.906 214.948C375.22 216.942 374.079 219.507 372.224 220.692C370.123 222.033 367.565 221.68 365.313 220.974C363.4 220.426 361.603 219.536 360.006 218.347C358.42 217.162 357.329 215.427 356.944 213.477C356.798 212.448 356.871 211.399 357.159 210.399C357.446 209.4 357.942 208.472 358.612 207.679C361.357 204.211 365.934 203.019 370.161 203.447C372.335 203.675 374.443 204.334 376.361 205.386C378.279 206.438 379.97 207.862 381.335 209.576C383.946 212.994 385.149 217.292 384.693 221.581C384.246 226.033 381.766 229.978 378.645 233.06C375.397 236.177 371.722 238.811 367.733 240.882C359.903 245.093 351.204 247.406 342.333 247.635C341.279 247.658 340.224 247.65 339.17 247.61C338.829 247.629 338.494 247.517 338.232 247.296C337.971 247.075 337.803 246.762 337.764 246.421C337.737 246.077 337.846 245.735 338.068 245.47C338.29 245.205 338.606 245.038 338.949 245.005L338.949 245.005Z" fill="#3F3D56"/>
<path d="M227.433 166.61C238.612 168.514 249.675 170.854 260.62 173.63C264.362 174.579 267.39 176.531 266.971 178.793C266.622 180.683 262.961 182.298 259.194 181.342C248.254 178.567 237.192 176.227 226.007 174.322C216.888 172.769 218.32 165.058 227.433 166.61Z" fill="#CCCCCC"/>
<path d="M242.558 176.988C243.763 177.211 272.078 182.4 272.805 178.47C273.532 174.539 245.233 169.259 244.028 169.036C242.823 168.813 214.508 163.624 213.781 167.554C213.054 171.485 241.353 176.765 242.558 176.988ZM271.698 178.265C270.703 179.313 259.986 179.077 242.761 175.891C225.535 172.705 215.442 169.094 214.888 167.759C215.883 166.71 226.6 166.947 243.825 170.133C261.051 173.318 271.144 176.93 271.698 178.265L271.698 178.265Z" fill="#3F3D56"/>
<path d="M133.636 263.711C127.402 262.377 119.644 260.716 114.452 255.193C112.916 253.495 111.768 251.478 111.09 249.286C110.412 247.093 110.219 244.777 110.526 242.5C111.048 238.993 112.862 236.183 115.636 234.59C119.267 232.505 123.965 232.727 128.633 235.099L130.468 196.566L134.319 196.744L132.162 242.044L129.293 240.017C125.967 237.668 121.134 235.892 117.545 237.953C116.655 238.501 115.904 239.248 115.348 240.134C114.792 241.021 114.447 242.024 114.339 243.066C114.12 244.763 114.268 246.486 114.771 248.119C115.275 249.752 116.123 251.256 117.257 252.529C121.298 256.827 127.432 258.419 134.446 259.921L133.636 263.711Z" fill="#3F3D56"/>
<path d="M155.323 204.515L175.741 208.291L175.036 212.102L154.619 208.326L155.323 204.515Z" fill="#3F3D56"/>
<path d="M322.871 220.188C323.78 220.353 324.719 220.187 325.519 219.72C326.319 219.253 326.928 218.516 327.237 217.64L329.962 209.875C330.303 208.898 330.246 207.826 329.801 206.893C329.357 205.96 328.562 205.244 327.592 204.9L263.233 182.199C262.261 181.858 261.194 181.918 260.265 182.366C259.336 182.814 258.622 183.614 258.278 184.59L255.553 192.355C255.212 193.332 255.269 194.404 255.714 195.337C256.158 196.27 256.952 196.986 257.923 197.33L322.282 220.031C322.474 220.098 322.671 220.151 322.871 220.188Z" fill="#2F2E41"/>
<path d="M367.634 131.562C352.27 128.72 342.131 113.897 344.987 98.4524C347.843 83.0079 362.613 72.791 377.977 75.6323C393.341 78.4735 403.48 93.2971 400.624 108.742C397.767 124.186 382.997 134.403 367.634 131.562Z" fill="#6ADB7E"/>
<path d="M355.717 107.92C354.885 107.443 354.166 106.792 353.606 106.012C353.242 105.462 353.002 104.839 352.903 104.185C352.804 103.532 352.849 102.865 353.034 102.23C353.157 101.776 353.383 101.356 353.694 101.004C354.005 100.652 354.392 100.377 354.826 100.2C355.948 99.7637 357.274 100.033 358.501 100.908L360.675 90.0202L361.763 90.2375L359.208 103.037L358.478 102.336C357.633 101.524 356.334 100.808 355.225 101.24C354.949 101.357 354.703 101.537 354.507 101.765C354.311 101.994 354.17 102.264 354.094 102.556C353.959 103.029 353.927 103.526 354.001 104.013C354.074 104.499 354.25 104.964 354.519 105.375C355.483 106.774 357.16 107.493 359.091 108.223L358.698 109.267C357.666 108.908 356.668 108.458 355.717 107.92V107.92Z" fill="#2F2E41"/>
<path d="M349.584 87.1765L355.229 89.1353L354.866 90.1892L349.22 88.2305L349.584 87.1765Z" fill="#2F2E41"/>
<path d="M367.404 93.3585L373.05 95.3173L372.686 96.3712L367.041 94.4125L367.404 93.3585Z" fill="#2F2E41"/>
<path d="M332.012 221.373C333.013 221.556 334.046 221.428 334.974 221.006C335.902 220.585 336.68 219.89 337.206 219.013L365.935 170.925C369.451 165.026 370.497 157.97 368.844 151.307C367.19 144.644 362.973 138.916 357.117 135.381L342.605 126.643C342.044 126.304 341.421 126.079 340.773 125.983C340.125 125.886 339.464 125.919 338.829 126.08C338.196 126.235 337.599 126.514 337.075 126.903C336.55 127.291 336.107 127.781 335.773 128.342L287.773 189.207C287.429 189.773 287.201 190.401 287.1 191.055C286.999 191.709 287.028 192.376 287.185 193.019C287.341 193.661 287.623 194.266 288.014 194.798C288.404 195.33 288.895 195.779 289.46 196.119L330.354 220.742C330.865 221.05 331.426 221.264 332.012 221.373Z" fill="#2F2E41"/>
<path d="M347.008 129.294L302.991 170.164L335.517 127.683C335.815 127.173 336.211 126.726 336.68 126.368C337.15 126.011 337.685 125.75 338.255 125.6C338.825 125.45 339.418 125.415 340.001 125.495C340.584 125.576 341.146 125.771 341.653 126.07L347.008 129.294Z" fill="#E6E6E6"/>
<path d="M284.534 154.961L348.231 162.526C349.235 162.645 350.253 162.564 351.227 162.288C352.201 162.012 353.111 161.546 353.906 160.917C354.701 160.288 355.366 159.507 355.861 158.621C356.357 157.734 356.674 156.758 356.795 155.749C356.915 154.74 356.837 153.717 356.564 152.739C356.291 151.761 355.829 150.847 355.204 150.049C354.58 149.251 353.804 148.585 352.923 148.089C352.042 147.592 351.071 147.275 350.067 147.156L286.37 139.591C285.9 139.535 285.423 139.573 284.967 139.702C284.511 139.832 284.085 140.05 283.713 140.345C283.34 140.639 283.029 141.005 282.797 141.42C282.565 141.835 282.416 142.292 282.36 142.765L281.384 150.937C281.27 151.891 281.538 152.852 282.129 153.606C282.719 154.361 283.585 154.848 284.534 154.961Z" fill="#6ADB7E"/>
<path d="M376.563 85.0599C373.489 81.2191 367.94 83.1201 363.835 81.8485C359.907 80.6319 357.406 76.425 357.308 72.4288C357.193 67.7665 360.341 63.6992 364.274 61.5329C368.581 59.1602 373.704 59.1979 378.3 60.6342C383.568 62.2804 388.028 65.7163 391.885 69.5877C395.625 73.2333 398.931 77.3022 401.738 81.7133C404.231 85.7762 406.121 90.4192 406.103 95.2627C406.087 99.6645 404.625 104.275 401.453 107.42C399.783 109.024 397.73 110.169 395.494 110.744C393.15 111.407 390.719 111.742 388.416 112.555C384.935 113.786 381.183 116.978 381.445 121.071C381.498 121.965 381.769 122.831 382.234 123.593C382.793 124.509 384.255 123.706 383.695 122.788C382.711 121.175 383.101 119.339 384.067 117.809C385.197 116.094 386.872 114.813 388.819 114.178C391.228 113.329 393.776 113.001 396.219 112.273C398.548 111.627 400.689 110.425 402.458 108.769C405.82 105.531 407.518 100.821 407.743 96.2153C407.987 91.2313 406.318 86.3528 403.888 82.0736C401.242 77.4166 397.708 73.2352 394.02 69.3838C390.063 65.2513 385.533 61.5385 380.137 59.5008C375.46 57.7344 370.116 57.3012 365.395 59.1693C360.989 60.913 357.173 64.6089 355.993 69.3088C355.484 71.4526 355.553 73.6927 356.193 75.7986C356.832 77.9044 358.019 79.8 359.63 81.2903C361.294 82.7629 363.377 83.6725 365.586 83.8907C367.938 84.171 370.397 83.8857 372.7 84.517C373.746 84.7774 374.679 85.3737 375.357 86.2155C376.029 87.0547 377.229 85.8922 376.563 85.0599L376.563 85.0599Z" fill="#2F2E41"/>
<path d="M300.87 160.684C300.953 160.7 301.037 160.712 301.122 160.722L301.122 160.723L353.426 166.934C353.932 166.994 354.446 166.954 354.937 166.815C355.428 166.675 355.887 166.44 356.288 166.123C356.689 165.806 357.024 165.412 357.274 164.965C357.524 164.518 357.684 164.026 357.745 163.517L359.412 149.558C359.473 149.049 359.434 148.533 359.296 148.04C359.158 147.547 358.925 147.086 358.61 146.684C358.295 146.281 357.904 145.945 357.459 145.695C357.015 145.445 356.525 145.285 356.019 145.225L303.715 139.013C302.693 138.893 301.664 139.185 300.854 139.826C300.044 140.466 299.52 141.403 299.396 142.43L297.729 156.389C297.641 157.137 297.769 157.895 298.099 158.57C298.429 159.246 298.946 159.811 299.589 160.198C299.983 160.436 300.417 160.601 300.87 160.684V160.684Z" fill="#2F2E41"/>
</svg>
