<svg width="187" height="292" viewBox="0 0 187 292" fill="none" xmlns="http://www.w3.org/2000/svg">
<path d="M67.9234 3.54303C67.9234 3.54303 53.5174 -1.60196 44.2565 18.978C34.9955 39.558 20.5895 62.196 20.5895 62.196L28.8215 64.254C28.8215 64.254 30.8795 49.848 36.0245 47.79L33.9665 66.312C33.9665 66.312 95.7064 87.921 123.489 64.254L122.46 57.051C122.46 57.051 126.576 58.08 126.576 64.254L129.663 61.167C129.663 61.167 126.576 54.993 117.315 46.761C111.237 41.3579 109.148 31.0785 108.43 24.6517C107.892 19.2852 105.745 14.2065 102.271 10.0817C96.1161 2.94914 84.9019 -4.63179 67.9234 3.54303Z" fill="#2F2E41"/>
<path d="M171.263 171.325L171.263 171.325L171.263 171.325L171.257 171.326L129.796 175.312L129.362 175.354L129.344 175.789L129.844 175.81L129.344 175.789L129.344 175.79L129.344 175.792L129.344 175.802L129.342 175.841C129.34 175.876 129.337 175.929 129.334 175.999C129.326 176.137 129.314 176.342 129.296 176.603C129.261 177.126 129.202 177.877 129.109 178.787C128.924 180.606 128.602 183.054 128.059 185.571C127.515 188.094 126.754 190.663 125.698 192.738C124.635 194.827 123.319 196.328 121.712 196.863C121.346 196.985 121.061 196.98 120.83 196.902C120.596 196.824 120.367 196.655 120.146 196.363C119.692 195.762 119.342 194.729 119.109 193.321C118.646 190.527 118.684 186.545 118.95 182.445C119.215 178.356 119.704 174.189 120.128 171.041C120.339 169.468 120.534 168.151 120.676 167.228C120.747 166.766 120.805 166.403 120.845 166.155C120.848 166.132 120.852 166.11 120.855 166.089L161.075 154.764L161.877 154.538L161.3 153.936L143.273 135.125L155.415 120.706C155.609 120.875 155.873 121.105 156.2 121.393C156.947 122.05 158.02 123.004 159.319 124.191C161.918 126.566 165.423 129.873 169.053 133.602C172.683 137.331 176.43 141.476 179.515 145.528C182.608 149.59 185.004 153.517 185.974 156.815C186.936 160.086 186.493 162.58 185.34 164.502C184.175 166.444 182.251 167.859 180.155 168.882C178.062 169.904 175.839 170.516 174.13 170.873C173.277 171.051 172.557 171.164 172.052 171.233C171.799 171.267 171.6 171.29 171.465 171.305C171.397 171.312 171.346 171.317 171.312 171.321L171.274 171.324L171.265 171.325L171.263 171.325L171.263 171.325Z" fill="white" stroke="black"/>
<path d="M25.8927 186.213L29.042 144.484L45.6015 146.742L43.2373 192.45L17.7503 260.15L17.7159 260.241L17.7184 260.339L17.7838 260.337C17.7184 260.339 17.7184 260.339 17.7184 260.339L17.7184 260.34L17.7185 260.344L17.7189 260.36L17.7202 260.427C17.7212 260.486 17.7226 260.574 17.7239 260.69C17.7264 260.921 17.7283 261.26 17.726 261.693C17.7214 262.557 17.6997 263.793 17.6315 265.274C17.4951 268.238 17.1729 272.175 16.4313 276.08C15.688 279.995 14.5315 283.833 12.7508 286.631C10.979 289.416 8.63698 291.108 5.49038 290.923C3.90773 290.83 2.80622 290.279 2.04611 289.422C1.27488 288.553 0.810424 287.32 0.612322 285.789C0.214683 282.716 0.913218 278.636 2.05591 274.513C3.19435 270.404 4.75558 266.314 6.03462 263.247C6.6737 261.715 7.24134 260.44 7.64896 259.549C7.85275 259.103 8.01649 258.753 8.1291 258.516C8.1854 258.397 8.22891 258.306 8.25826 258.245L8.29146 258.176L8.29977 258.159L8.30179 258.155L8.30226 258.154C8.30235 258.154 8.30237 258.154 7.85299 257.934L8.30237 258.154L8.32593 258.105L8.33869 258.053L25.8798 186.294L25.8896 186.254L25.8927 186.213Z" fill="white" stroke="black"/>
<path d="M61.9233 56.7113H89.306C87.6963 62.3067 87.9757 67.0851 89.342 71.1101C90.7584 75.2828 93.3318 78.614 96.1157 81.1953C98.8991 83.7763 101.905 85.6193 104.211 86.8164C105.365 87.4155 106.346 87.8542 107.041 88.1438C107.254 88.2324 107.439 88.3071 107.595 88.3681C104.046 94.5505 98.2541 98.8653 91.7083 101.724C84.986 104.659 77.4989 106.045 70.9187 106.342C64.3204 106.64 58.7088 105.839 55.7137 104.468C54.9695 104.128 54.4145 103.764 54.0478 103.395C53.6839 103.03 53.528 102.685 53.5151 102.364C53.5021 102.043 53.6286 101.655 54.0125 101.197C54.3989 100.736 55.0243 100.231 55.943 99.6995C59.8828 97.4186 62.1834 93.4949 63.4374 88.9729C64.6909 84.4526 64.9139 79.2848 64.6633 74.4244C64.4126 69.5593 63.6857 64.9747 63.0226 61.6087C62.6908 59.925 62.3746 58.5442 62.1411 57.5835C62.0566 57.2361 61.983 56.9435 61.9233 56.7113Z" fill="white" stroke="black"/>
<path d="M99.0453 43.4542C99.0453 57.7096 87.489 69.2659 73.2336 69.2659C58.9782 69.2659 47.4219 57.7096 47.4219 43.4542C47.4219 29.1988 58.9782 17.6425 73.2336 17.6425C87.489 17.6425 99.0453 29.1988 99.0453 43.4542Z" fill="white" stroke="black"/>
<path d="M47.9471 150.527L27.514 148.256L27.5565 147.481C27.6002 146.682 27.6625 145.532 27.7372 144.131C27.8867 141.327 28.0861 137.514 28.2855 133.477C28.6839 125.409 29.0834 116.425 29.0834 112.821C29.0834 109.467 31.3239 106.805 33.6777 104.941C34.845 104.017 36.015 103.31 36.8945 102.834C37.3336 102.596 37.6988 102.416 37.953 102.297C38.0412 102.255 38.116 102.221 38.1757 102.194L42.4755 103.627L47.9471 150.527Z" fill="#00B359" stroke="black"/>
<path d="M136.638 262.241C107.205 266.601 64.3051 270.122 19.8154 264.003C19.8118 263.564 19.8118 263.135 19.8118 262.717C19.8118 260.229 19.907 257.769 20.0976 255.338C22.3767 225.394 37.8026 200.431 43.7714 191.78C44.0719 191.34 44.3503 190.944 44.5995 190.593C45.5632 189.241 46.1238 188.526 46.1238 188.526C46.1238 188.526 92.3686 187.771 116.288 197.338C117.441 197.822 118.497 198.513 119.402 199.376C128.321 207.605 133.561 234.324 136.638 262.241Z" fill="#2F2E41"/>
<path d="M44.8016 43.621C54.1161 36.8799 61.6561 29.1156 66.6437 19.8796C66.6437 19.8796 83.7376 38.8727 94.1838 39.8224C104.63 40.772 95.1335 17.0306 95.1335 17.0306L76.1403 12.2823L58.0968 14.1816L43.8519 23.6782L44.8016 43.621Z" fill="#2F2E41"/>
<path d="M119.93 92.427C119.989 92.4002 120.059 92.369 120.14 92.3345C120.428 92.2119 120.855 92.0473 121.402 91.8851C122.496 91.5605 124.063 91.2469 125.944 91.2951C129.688 91.3911 134.739 92.9211 139.831 98.797L160.271 122.381L144.9 139.29L115.242 121.339L119.93 92.427Z" fill="#00B359" stroke="black"/>
<path d="M118.889 199.19C118.907 199.492 118.923 199.748 118.937 199.954L45.1248 190.531C45.1722 190.304 45.236 190.01 45.316 189.664C45.5133 188.814 45.8088 187.656 46.2022 186.427C46.5961 185.196 47.0846 183.904 47.6652 182.779C48.2507 181.645 48.9063 180.727 49.6139 180.197L49.6224 180.19C50.0139 179.897 50.3182 179.668 50.538 179.492C50.7397 179.33 50.9351 179.163 51.0426 178.996C51.1003 178.906 51.187 178.734 51.1448 178.519C51.1011 178.296 50.9484 178.171 50.8583 178.114C50.7682 178.056 50.6694 178.02 50.5975 177.995C50.5229 177.97 50.4372 177.946 50.3558 177.923L50.3483 177.921C50.0068 177.823 49.543 177.689 49.0223 177.357C48.504 177.026 47.9101 176.485 47.3507 175.553C47.062 175.072 46.8811 174.693 46.7796 174.398C46.677 174.1 46.6664 173.918 46.6816 173.815C46.6941 173.73 46.7243 173.687 46.7707 173.65C46.832 173.602 46.9423 173.549 47.1301 173.507C47.4414 173.438 47.8219 173.424 48.2664 173.408C48.382 173.404 48.5019 173.4 48.626 173.394C49.1749 173.37 49.8276 173.321 50.3348 173.068C51.4038 172.533 52.211 170.868 52.0048 168.393C51.7954 165.88 50.5486 162.405 47.3263 157.975C46.5778 156.946 45.8621 155.302 45.1907 153.168C44.5224 151.045 43.9099 148.476 43.3512 145.627C42.234 139.93 41.3389 133.144 40.6418 126.622C39.945 120.102 39.4472 113.854 39.1236 109.236C38.9617 106.927 38.8435 105.026 38.7657 103.702C38.7269 103.04 38.6981 102.523 38.6791 102.171C38.6764 102.122 38.674 102.077 38.6717 102.034L40.81 101.445L59.6873 96.2463C76.4611 100.439 87.7054 98.1341 94.7809 94.7284C98.323 93.0234 100.808 91.0485 102.411 89.4935C103.212 88.7161 103.793 88.0438 104.176 87.5625C104.334 87.363 104.459 87.1963 104.551 87.0686L126.2 91.7077L130.931 131.126C130.918 131.174 130.899 131.243 130.875 131.333C130.82 131.536 130.733 131.844 130.61 132.265C130.362 133.106 129.966 134.396 129.369 136.184C128.177 139.762 126.187 145.334 123.001 153.299C119.775 161.364 118.779 173.206 118.58 182.976C118.48 187.872 118.58 192.267 118.705 195.439C118.767 197.025 118.836 198.305 118.889 199.19Z" fill="#00B359" stroke="black"/>
</svg>
